<?xml version="1.0" encoding="UTF-8" standalone="no"?>
<!DOCTYPE svg PUBLIC "-//W3C//DTD SVG 1.1//EN" "http://www.w3.org/Graphics/SVG/1.1/DTD/svg11.dtd">
<svg width="100%" height="100%" viewBox="0 0 2129 1021" version="1.1" xmlns="http://www.w3.org/2000/svg" xmlns:xlink="http://www.w3.org/1999/xlink" xml:space="preserve" xmlns:serif="http://www.serif.com/" style="fill-rule:evenodd;clip-rule:evenodd;stroke-linecap:round;stroke-linejoin:round;stroke-miterlimit:1.5;">
    <g transform="matrix(1,0,0,1,-689.687,-729.905)">
        <g transform="matrix(1,0,0,1,160.115,57.7163)">
            <path d="M1803.93,1059.33C1803.93,1035.39 1810.21,994.469 1825.03,974.578C1845.48,947.122 1962.18,902.498 1993.79,898.547C2018.52,895.456 2105.2,922.688 2124.77,939.147C2133.89,946.809 2140.88,958.086 2150.68,964.51C2182.96,985.675 2229.54,978.955 2264.03,990.887C2275.82,994.967 2320.61,1025.14 2331.37,1032.31C2355.86,1048.62 2344.7,1054.08 2357.86,1080.39C2363.41,1091.5 2357.86,1123.71 2357.86,1137.08C2357.86,1188.27 2328.53,1210.04 2275.61,1217.97C2247.92,1222.11 2213,1227.2 2184.94,1220.16C2161.23,1214.21 2139.29,1203.67 2116.29,1195.61C2096.2,1188.57 2024.98,1171.53 2024.98,1166.5" style="fill:rgb(0,83,135);stroke:rgb(35,31,32);stroke-width:20.83px;"/>
        </g>
        <g transform="matrix(1,0,0,1,87.7437,57.7163)">
            <path d="M2320.98,1191.95C2332.52,1187.29 2341.15,1175.56 2352.64,1169.79C2375.22,1158.46 2444.69,1138.85 2469.32,1148.07C2516.68,1165.78 2532.5,1222.31 2560.45,1258.25C2576.85,1279.34 2599.46,1290.24 2617.07,1309.62C2633.07,1327.22 2637.51,1351.51 2651.52,1369.53C2663.62,1385.1 2681.93,1396.81 2692.42,1413.49C2710.02,1441.49 2727.92,1518.3 2716.36,1548.57C2700.31,1590.6 2603.31,1576.05 2567.85,1576.05C2483.59,1576.05 2347.01,1589.37 2271.98,1565.88C2266.84,1564.27 2248.11,1518.57 2244.69,1512.75C2240.7,1505.97 2234.35,1506.53 2229.97,1502.15" style="fill:rgb(229,210,201);stroke:rgb(35,31,32);stroke-width:20.83px;"/>
        </g>
        <g transform="matrix(1,0,0,1,160.115,57.7163)">
            <path d="M1613.8,1476.56C1516.18,1476.56 1500.9,1331.65 1546.12,1274.31C1615.93,1185.79 1651.31,1051.98 1753.94,1032.31C1798.53,1023.76 1879.39,1008.1 1919.65,995.372C1941.99,988.314 1967.91,982.574 1990.21,974.793C2010.03,967.872 2047.91,985.778 2052.82,1005.6C2059.57,1032.87 2066.08,1241.69 2064.1,1246.95C2041.48,1306.97 1998.45,1333.17 1947.43,1367.11C1925.38,1381.77 1904.17,1411.96 1875.9,1411.96" style="fill:white;stroke:rgb(35,31,32);stroke-width:20.83px;"/>
        </g>
        <g transform="matrix(1,0,0,1,22.2908,-194.05)">
            <g transform="matrix(1,0,0,1,-531.567,294.632)">
                <path d="M1952.38,1368.26C2033.85,1368.26 2051.22,1110.31 1876.29,1122.42L1842.49,1185.85L1824.73,1297.18" style="fill:rgb(241,114,172);stroke:rgb(35,31,32);stroke-width:20.83px;"/>
            </g>
            <g transform="matrix(1,0,0,1,-531.567,294.632)">
                <path d="M1364.59,1449.74C1340.27,1449.74 1286.03,1455.15 1256.02,1414.08C1197.67,1334.21 1198.01,1249.34 1235.27,1168C1266.21,1100.44 1327.29,1087.99 1327.29,1080.46L1393.35,1183.81" style="fill:rgb(241,114,172);stroke:rgb(35,31,32);stroke-width:20.83px;"/>
            </g>
            <g transform="matrix(1,0,0,1,-160.937,301.008)">
                <path d="M927.877,1179.13L1122.23,1341.76L1315.96,1200.13L1052.34,1080.68L927.877,1179.13Z" style="fill:rgb(241,114,172);"/>
            </g>
            <g transform="matrix(1,0,0,1,-531.567,294.632)">
                <path d="M1504.67,1240.16C1504.67,1240.16 1368.79,1248.26 1297.7,990.992C1297.7,990.992 1217.34,680.109 1594.35,640.705C1594.35,640.705 1945.69,603.515 1908.15,990.992C1908.15,990.992 1884.89,1231.14 1753.94,1240.16" style="fill:rgb(241,114,172);stroke:rgb(35,31,32);stroke-width:20.83px;"/>
            </g>
            <g transform="matrix(1,0,0,1,-531.567,294.632)">
                <path d="M1565.34,1096.28C1594.67,1125.61 1636.96,1167.25 1682.45,1164.23C1731.55,1160.97 1791.31,1084.15 1791.31,1080.46" style="fill:none;stroke:rgb(35,31,32);stroke-width:20.83px;"/>
            </g>
            <g transform="matrix(1,0,0,1,-531.567,282.632)">
                <path d="M1533.92,1130.18C1564.16,1113.87 1579.44,1076.84 1581.87,1076.84" style="fill:none;stroke:rgb(35,31,32);stroke-width:20.83px;"/>
            </g>
            <g transform="matrix(1,0,0,1,-526.148,283.967)">
                <path d="M1772.08,1065.16C1774.53,1067.46 1787.13,1091.94 1817.71,1108.17" style="fill:none;stroke:rgb(35,31,32);stroke-width:20.83px;"/>
            </g>
            <g transform="matrix(1,0,0,1,-521.2,263.908)">
                <path d="M1763.94,1002.5C1763.94,1002.5 1693.08,1081.42 1656.92,1078.17C1582.45,1071.47 1537.25,1013.33 1537.25,1013.33C1537.25,1013.33 1405.38,860.461 1537.25,819.164C1537.25,819.164 1632.09,789.466 1656.92,888.65C1656.92,888.65 1658.41,816.839 1753.94,819.164C1753.94,819.164 1899.7,825.61 1763.94,1002.5" style="fill:white;stroke:rgb(35,31,32);stroke-width:20.83px;"/>
            </g>
            <g transform="matrix(0.7957,0,0,0.7957,-178.702,465.824)">
                <circle cx="1576.42" cy="927.586" r="25.976" style="fill:rgb(35,31,32);stroke:rgb(35,31,32);stroke-width:39.27px;"/>
            </g>
            <g transform="matrix(0.7957,0,0,0.7957,-58.6973,465.824)">
                <circle cx="1576.42" cy="927.586" r="25.976" style="fill:rgb(35,31,32);stroke:rgb(35,31,32);stroke-width:39.27px;"/>
            </g>
            <g transform="matrix(1,0,0,1,-531.567,294.632)">
                <path d="M1824.73,1297.18C1867.85,1297.18 1898.07,1236.32 1878.47,1197.12C1871.02,1182.22 1839.47,1174.21 1825.53,1170.77C1765.51,1155.95 1742.92,1202.15 1736.28,1215.76C1724.73,1239.43 1653.34,1453.2 1842.61,1473.43C1873.57,1476.74 1901.6,1467.9 1919.56,1448.82C2024.85,1336.97 1880.88,1291.37 1878.47,1281.58" style="fill:rgb(241,114,172);stroke:rgb(35,31,32);stroke-width:20.83px;"/>
            </g>
            <g transform="matrix(1,0,0,1,-531.567,294.632)">
                <path d="M1608.19,1243.31C1585.26,1243.31 1548.19,1174.72 1571.5,1151.05C1592.11,1130.13 1618.3,1119.13 1650.3,1119.13C1746.42,1119.13 1753.73,1256.42 1750.39,1320.93C1744.36,1437.62 1625.78,1433.68 1605.09,1440.74C1544.93,1461.26 1444.14,1381.17 1430.1,1325.4C1423.89,1300.71 1430.1,1301.95 1430.1,1274.94" style="fill:rgb(241,114,172);stroke:rgb(35,31,32);stroke-width:20.83px;"/>
            </g>
            <g transform="matrix(1,0,0,1,-529.146,253.25)">
                <path d="M1561.5,1380.89C1539.94,1380.89 1535.57,1368.48 1524.82,1357.73C1467.78,1300.68 1609.1,1264.6 1640.9,1296.41C1666.75,1322.25 1652.85,1552.3 1489.44,1551.96C1321.34,1551.61 1343.17,1349.11 1355.37,1258.98" style="fill:rgb(241,114,172);stroke:rgb(35,31,32);stroke-width:20.83px;"/>
            </g>
        </g>
        <g transform="matrix(1,0,0,1,160.115,57.7163)">
            <path d="M1803.88,1179.38C1802.69,1114.68 1845.8,1121.7 1862.12,1106.85C1884.65,1086.33 1934.49,1037.57 1966.21,1033.21C2011.79,1026.94 2049.41,1055.36 2093.22,1059.17C2117.85,1061.31 2145.41,1054.17 2169.31,1061.96C2198.31,1071.42 2285.47,1120.33 2306.67,1141.51C2333.04,1167.84 2345.97,1213.41 2365.66,1245.07C2375.75,1261.3 2409.88,1299.94 2401.24,1322.04C2395.45,1336.86 2374.59,1351.91 2364.74,1364.73C2317.55,1426.16 2309.74,1415.99 2236.33,1433.72C2175.87,1448.33 2152.13,1535.91 2076.72,1512.3C2075.75,1512 2074.89,1509.53 2074.63,1509.13C2059.21,1485.67 2031.89,1485.37 2014.88,1465.15C1990.89,1436.63 1996.92,1399.48 1961.66,1375.09C1941.9,1361.42 1854.56,1261.04 1838.59,1245.07" style="fill:rgb(35,31,32);stroke:rgb(35,31,32);stroke-width:20.83px;"/>
        </g>
        <g transform="matrix(1,0,0,1,160.115,57.7163)">
            <path d="M1829.71,1222.8C1809.67,1222.8 1760.03,1260.4 1741.96,1273.08C1725.6,1284.57 1657.73,1307.04 1647.4,1313.57C1575.69,1358.93 1610.8,1504.17 1620.76,1534.04C1633.9,1573.48 1692.24,1604.31 1728.42,1617.83C1781.63,1637.7 1865.86,1624.14 1914.54,1596.99C1929.83,1588.47 1948.84,1573.2 1966.45,1569.5C1969.93,1568.77 1974.38,1569.5 1977.9,1569.5C2016.84,1569.5 2120.77,1572.32 2120.77,1514.65C2120.77,1509.64 2123.24,1495.45 2119.78,1491.99" style="fill:rgb(167,182,191);stroke:rgb(35,31,32);stroke-width:20.83px;"/>
        </g>
        <g transform="matrix(1,0,0,1,160.115,57.7163)">
            <path d="M2000.42,1362.74C2000.42,1362.74 1904.65,1438.6 1876.4,1462.24C1823.38,1506.64 1819.9,1620.99 1876.4,1645.97C1977.6,1690.72 2071.5,1664.09 2176.1,1677.13C2201.51,1680.3 2227.65,1684.09 2253.55,1681.31C2278.94,1678.59 2303.8,1662.21 2319.85,1643.33C2330.82,1630.42 2331.37,1613.9 2331.37,1597.54C2331.37,1502.82 2269.28,1516.8 2233.42,1462.24C2211.06,1428.23 2193.97,1384.2 2152.88,1371.33C2130.4,1364.3 2022.67,1362.74 2000.42,1362.74Z" style="fill:rgb(0,125,197);stroke:rgb(35,31,32);stroke-width:20.83px;"/>
        </g>
        <g transform="matrix(1,0,0,1,183.095,41.0023)">
            <path d="M1892.75,1173.41C1881.34,1151.23 1874.56,1075.74 1819.34,1102.93C1786.26,1119.23 1747.74,1178.92 1759.78,1217.39C1763.04,1227.83 1774.74,1235.62 1777.54,1246.82C1780.39,1258.23 1795.07,1290.79 1806.14,1296.28C1821.96,1304.13 1859.48,1296.27 1876.5,1296.27C1888.31,1296.27 1909.28,1299.11 1916.36,1287.59C1958.25,1219.46 1892.75,1173.41 1892.75,1173.41Z" style="fill:rgb(255,221,0);stroke:rgb(35,31,32);stroke-width:20.83px;"/>
        </g>
    </g>
</svg>
