<?xml version="1.0" encoding="UTF-8" standalone="no"?>
<!DOCTYPE svg PUBLIC "-//W3C//DTD SVG 1.1//EN" "http://www.w3.org/Graphics/SVG/1.1/DTD/svg11.dtd">
<svg width="100%" height="100%" viewBox="0 0 2488 1966" version="1.1" xmlns="http://www.w3.org/2000/svg" xmlns:xlink="http://www.w3.org/1999/xlink" xml:space="preserve" xmlns:serif="http://www.serif.com/" style="fill-rule:evenodd;clip-rule:evenodd;stroke-linecap:round;stroke-linejoin:round;stroke-miterlimit:1.5;">
    <g transform="matrix(1,0,0,1,-509.944,-257.532)">
        <g transform="matrix(0.968016,-0.250889,0.250889,0.968016,289.758,-184.534)">
            <g transform="matrix(1,0,0,1,-531.567,294.632)">
                <path d="M1952.38,1368.26C2033.85,1368.26 2051.22,1110.31 1876.29,1122.42L1842.49,1185.85L1824.73,1297.18" style="fill:rgb(241,114,172);stroke:rgb(35,31,32);stroke-width:20.83px;"/>
            </g>
            <g transform="matrix(1,0,0,1,-531.567,294.632)">
                <path d="M1364.59,1449.74C1340.27,1449.74 1286.03,1455.15 1256.02,1414.08C1197.67,1334.21 1198.01,1249.34 1235.27,1168C1266.21,1100.44 1327.29,1087.99 1327.29,1080.46L1393.35,1183.81" style="fill:rgb(241,114,172);stroke:rgb(35,31,32);stroke-width:20.83px;"/>
            </g>
            <g transform="matrix(1,0,0,1,-160.937,301.008)">
                <path d="M927.877,1179.13L1122.23,1341.76L1315.96,1200.13L1052.34,1080.68L927.877,1179.13Z" style="fill:rgb(241,114,172);"/>
            </g>
            <g transform="matrix(1,0,0,1,-531.567,294.632)">
                <path d="M1504.67,1240.16C1504.67,1240.16 1368.79,1248.26 1297.7,990.992C1297.7,990.992 1217.34,680.109 1594.35,640.705C1594.35,640.705 1945.69,603.515 1908.15,990.992C1908.15,990.992 1884.89,1231.14 1753.94,1240.16" style="fill:rgb(241,114,172);stroke:rgb(35,31,32);stroke-width:20.83px;"/>
            </g>
            <g transform="matrix(1,0,0,1,-531.567,294.632)">
                <path d="M1565.34,1096.28C1594.67,1125.61 1636.96,1167.25 1682.45,1164.23C1731.55,1160.97 1791.31,1084.15 1791.31,1080.46" style="fill:none;stroke:rgb(35,31,32);stroke-width:20.83px;"/>
            </g>
            <g transform="matrix(1,0,0,1,-531.567,282.632)">
                <path d="M1533.92,1130.18C1564.16,1113.87 1579.44,1076.84 1581.87,1076.84" style="fill:none;stroke:rgb(35,31,32);stroke-width:20.83px;"/>
            </g>
            <g transform="matrix(1,0,0,1,-526.148,283.967)">
                <path d="M1772.08,1065.16C1774.53,1067.46 1787.13,1091.94 1817.71,1108.17" style="fill:none;stroke:rgb(35,31,32);stroke-width:20.83px;"/>
            </g>
            <g transform="matrix(1,0,0,1,-521.2,263.908)">
                <path d="M1763.94,1002.5C1763.94,1002.5 1693.08,1081.42 1656.92,1078.17C1582.45,1071.47 1537.25,1013.33 1537.25,1013.33C1537.25,1013.33 1405.38,860.461 1537.25,819.164C1537.25,819.164 1632.09,789.466 1656.92,888.65C1656.92,888.65 1658.41,816.839 1753.94,819.164C1753.94,819.164 1899.7,825.61 1763.94,1002.5" style="fill:white;stroke:rgb(35,31,32);stroke-width:20.83px;"/>
            </g>
            <g transform="matrix(0.7957,0,0,0.7957,-178.702,465.824)">
                <circle cx="1576.42" cy="927.586" r="25.976" style="fill:rgb(35,31,32);stroke:rgb(35,31,32);stroke-width:39.27px;"/>
            </g>
            <g transform="matrix(0.7957,0,0,0.7957,-58.6973,465.824)">
                <circle cx="1576.42" cy="927.586" r="25.976" style="fill:rgb(35,31,32);stroke:rgb(35,31,32);stroke-width:39.27px;"/>
            </g>
            <g transform="matrix(1,0,0,1,-531.567,294.632)">
                <path d="M1824.73,1297.18C1867.85,1297.18 1898.07,1236.32 1878.47,1197.12C1871.02,1182.22 1839.47,1174.21 1825.53,1170.77C1765.51,1155.95 1742.92,1202.15 1736.28,1215.76C1724.73,1239.43 1653.34,1453.2 1842.61,1473.43C1873.57,1476.74 1901.6,1467.9 1919.56,1448.82C2024.85,1336.97 1880.88,1291.37 1878.47,1281.58" style="fill:rgb(241,114,172);stroke:rgb(35,31,32);stroke-width:20.83px;"/>
            </g>
            <g transform="matrix(1,0,0,1,-531.567,294.632)">
                <path d="M1608.19,1243.31C1585.26,1243.31 1548.19,1174.72 1571.5,1151.05C1592.11,1130.13 1618.3,1119.13 1650.3,1119.13C1746.42,1119.13 1753.73,1256.42 1750.39,1320.93C1744.36,1437.62 1625.78,1433.68 1605.09,1440.74C1544.93,1461.26 1444.14,1381.17 1430.1,1325.4C1423.89,1300.71 1430.1,1301.95 1430.1,1274.94" style="fill:rgb(241,114,172);stroke:rgb(35,31,32);stroke-width:20.83px;"/>
            </g>
            <g transform="matrix(1,0,0,1,-529.146,253.25)">
                <path d="M1561.5,1380.89C1539.94,1380.89 1535.57,1368.48 1524.82,1357.73C1467.78,1300.68 1609.1,1264.6 1640.9,1296.41C1666.75,1322.25 1652.85,1552.3 1489.44,1551.96C1321.34,1551.61 1343.17,1349.11 1355.37,1258.98" style="fill:rgb(241,114,172);stroke:rgb(35,31,32);stroke-width:20.83px;"/>
            </g>
        </g>
        <g transform="matrix(0.932132,0,0,1.18017,-19.0515,-222.102)">
            <rect x="666.172" y="1585.81" width="2467.15" height="321.465" style="fill:white;stroke:rgb(35,31,32);stroke-width:19.59px;"/>
        </g>
        <g transform="matrix(0.992648,-0.121034,0.121034,0.992648,194.795,626.782)">
            <path d="M2147.08,226.083C2148.08,225.483 2149.38,225.183 2150.98,225.183C2152.58,225.183 2154.03,225.858 2155.33,227.208C2156.63,228.558 2157.28,230.133 2157.28,231.933C2157.28,271.033 2157.45,294.658 2157.8,302.808C2158.16,310.958 2158.33,315.133 2158.33,315.333C2158.33,317.533 2157.73,319.608 2156.53,321.558C2155.33,323.508 2154.01,324.483 2152.55,324.483C2151.11,324.483 2150.01,324.408 2149.26,324.258C2148.51,324.108 2147.83,323.933 2147.23,323.733C2146.63,323.533 2146.03,323.133 2145.43,322.533L2143.93,321.033C2143.53,320.633 2143.01,319.858 2142.36,318.708C2141.7,317.558 2141.18,316.633 2140.78,315.933C2140.38,315.233 2139.76,314.008 2138.91,312.258C2138.05,310.508 2136.2,306.933 2133.36,301.533C2130.51,296.133 2127.93,291.283 2125.63,286.983C2117.73,272.483 2110.38,261.033 2103.58,252.633C2103.58,285.133 2102.68,307.683 2100.88,320.283C2100.58,322.683 2098.73,323.883 2095.33,323.883C2093.73,323.883 2092.41,323.483 2091.36,322.683C2090.3,321.883 2089.78,320.583 2089.78,318.783C2089.78,316.983 2090.16,307.083 2090.91,289.083C2091.66,271.083 2092.03,259.858 2092.03,255.408C2092.03,250.958 2092.03,248.133 2092.03,246.933C2092.03,239.733 2092.58,235.683 2093.68,234.783C2094.78,233.883 2095.93,233.433 2097.13,233.433C2102.63,233.433 2111.03,242.433 2122.33,260.433C2124.53,263.933 2128.73,271.258 2134.93,282.408C2141.13,293.558 2144.83,300.433 2146.03,303.033L2144.23,240.783C2144.23,232.183 2145.18,227.283 2147.08,226.083Z" style="fill:rgb(35,31,32);fill-rule:nonzero;stroke:rgb(35,31,32);stroke-width:4.17px;stroke-linecap:butt;stroke-miterlimit:1.41421;"/>
            <path d="M2190.13,258.933C2190.23,257.833 2191.03,256.808 2192.53,255.858C2194.03,254.908 2195.76,254.433 2197.7,254.433C2199.66,254.433 2200.73,255.133 2200.93,256.533C2202.63,273.233 2203.48,284.783 2203.48,291.183C2203.48,297.583 2203.38,302.183 2203.18,304.983C2202.58,311.083 2200.98,315.858 2198.38,319.308C2195.78,322.758 2191.48,324.483 2185.48,324.483C2179.48,324.483 2175.13,322.683 2172.43,319.083C2169.73,315.483 2167.93,310.533 2167.03,304.233C2167.03,303.033 2167.7,301.958 2169.05,301.008C2170.41,300.058 2171.76,299.583 2173.11,299.583C2174.45,299.583 2175.33,299.883 2175.73,300.483C2176.13,301.083 2176.61,302.758 2177.16,305.508C2177.7,308.258 2178.88,310.558 2180.68,312.408C2182.48,314.258 2184.23,315.183 2185.93,315.183C2188.73,315.183 2190.63,313.933 2191.63,311.433C2193.13,306.833 2193.88,301.233 2193.88,294.633C2193.88,288.033 2193.28,280.883 2192.08,273.183C2190.88,265.483 2190.23,260.733 2190.13,258.933Z" style="fill:rgb(35,31,32);fill-rule:nonzero;stroke:rgb(35,31,32);stroke-width:4.17px;stroke-linecap:butt;stroke-miterlimit:1.41421;"/>
            <path d="M2224.93,320.433C2224.53,322.933 2222.76,324.183 2219.61,324.183C2216.45,324.183 2214.88,322.883 2214.88,320.283C2214.88,314.383 2217.78,302.383 2223.58,284.283C2226.18,275.983 2229.08,269.083 2232.28,263.583C2235.48,258.083 2238.58,255.333 2241.58,255.333C2243.18,255.333 2244.58,256.283 2245.78,258.183C2246.98,260.083 2249.16,264.408 2252.3,271.158C2255.45,277.908 2258.08,285.058 2260.18,292.608C2262.28,300.158 2264.58,309.383 2267.08,320.283C2267.08,321.583 2266.63,322.608 2265.73,323.358C2264.83,324.108 2263.73,324.483 2262.43,324.483C2259.23,324.483 2257.23,323.083 2256.43,320.283L2251.18,299.733C2242.38,299.733 2235.33,299.033 2230.03,297.633C2227.03,308.633 2225.33,316.233 2224.93,320.433ZM2241.13,269.133C2237.83,274.733 2235.13,280.983 2233.03,287.883C2237.43,289.083 2242.63,289.683 2248.63,289.683C2246.73,282.783 2244.23,275.933 2241.13,269.133Z" style="fill:rgb(35,31,32);fill-rule:nonzero;stroke:rgb(35,31,32);stroke-width:4.17px;stroke-linecap:butt;stroke-miterlimit:1.41421;"/>
            <path d="M2284.03,311.883C2284.03,306.483 2283.73,298.108 2283.13,286.758C2282.53,275.408 2282.03,268.333 2281.63,265.533C2281.23,262.733 2281.03,260.783 2281.03,259.683C2281.03,258.583 2281.63,257.558 2282.83,256.608C2284.03,255.658 2285.48,255.183 2287.18,255.183C2288.88,255.183 2290.18,256.083 2291.08,257.883C2293.18,262.483 2294.23,272.083 2294.23,286.683C2300.43,281.583 2305.43,277.008 2309.23,272.958C2313.03,268.908 2316.88,263.983 2320.78,258.183C2322.08,256.083 2323.73,255.033 2325.73,255.033C2329.53,255.033 2331.43,256.283 2331.43,258.783C2331.43,263.583 2324.98,272.583 2312.08,285.783C2317.58,290.783 2322.76,297.058 2327.61,304.608C2332.45,312.158 2334.88,316.858 2334.88,318.708C2334.88,320.558 2334.36,321.958 2333.3,322.908C2332.26,323.858 2331.03,324.333 2329.63,324.333C2328.23,324.333 2326.61,323.108 2324.76,320.658C2322.91,318.208 2320.7,314.908 2318.16,310.758C2315.61,306.608 2313.36,303.308 2311.41,300.858C2309.45,298.408 2306.78,295.733 2303.38,292.833C2300.48,295.433 2297.53,297.783 2294.53,299.883C2294.83,311.583 2294.98,318.133 2294.98,319.533C2294.98,322.833 2292.78,324.483 2288.38,324.483C2285.38,324.483 2283.93,322.933 2284.03,319.833L2284.03,311.883Z" style="fill:rgb(35,31,32);fill-rule:nonzero;stroke:rgb(35,31,32);stroke-width:4.17px;stroke-linecap:butt;stroke-miterlimit:1.41421;"/>
        </g>
        <g transform="matrix(0.971396,0.237466,-0.237466,0.971396,-1099.84,-282.807)">
            <path d="M2147.08,226.083C2148.08,225.483 2149.38,225.183 2150.98,225.183C2152.58,225.183 2154.03,225.858 2155.33,227.208C2156.63,228.558 2157.28,230.133 2157.28,231.933C2157.28,271.033 2157.45,294.658 2157.8,302.808C2158.16,310.958 2158.33,315.133 2158.33,315.333C2158.33,317.533 2157.73,319.608 2156.53,321.558C2155.33,323.508 2154.01,324.483 2152.55,324.483C2151.11,324.483 2150.01,324.408 2149.26,324.258C2148.51,324.108 2147.83,323.933 2147.23,323.733C2146.63,323.533 2146.03,323.133 2145.43,322.533L2143.93,321.033C2143.53,320.633 2143.01,319.858 2142.36,318.708C2141.7,317.558 2141.18,316.633 2140.78,315.933C2140.38,315.233 2139.76,314.008 2138.91,312.258C2138.05,310.508 2136.2,306.933 2133.36,301.533C2130.51,296.133 2127.93,291.283 2125.63,286.983C2117.73,272.483 2110.38,261.033 2103.58,252.633C2103.58,285.133 2102.68,307.683 2100.88,320.283C2100.58,322.683 2098.73,323.883 2095.33,323.883C2093.73,323.883 2092.41,323.483 2091.36,322.683C2090.3,321.883 2089.78,320.583 2089.78,318.783C2089.78,316.983 2090.16,307.083 2090.91,289.083C2091.66,271.083 2092.03,259.858 2092.03,255.408C2092.03,250.958 2092.03,248.133 2092.03,246.933C2092.03,239.733 2092.58,235.683 2093.68,234.783C2094.78,233.883 2095.93,233.433 2097.13,233.433C2102.63,233.433 2111.03,242.433 2122.33,260.433C2124.53,263.933 2128.73,271.258 2134.93,282.408C2141.13,293.558 2144.83,300.433 2146.03,303.033L2144.23,240.783C2144.23,232.183 2145.18,227.283 2147.08,226.083Z" style="fill:rgb(35,31,32);fill-rule:nonzero;stroke:rgb(35,31,32);stroke-width:4.17px;stroke-linecap:butt;stroke-miterlimit:1.41421;"/>
            <path d="M2190.13,258.933C2190.23,257.833 2191.03,256.808 2192.53,255.858C2194.03,254.908 2195.76,254.433 2197.7,254.433C2199.66,254.433 2200.73,255.133 2200.93,256.533C2202.63,273.233 2203.48,284.783 2203.48,291.183C2203.48,297.583 2203.38,302.183 2203.18,304.983C2202.58,311.083 2200.98,315.858 2198.38,319.308C2195.78,322.758 2191.48,324.483 2185.48,324.483C2179.48,324.483 2175.13,322.683 2172.43,319.083C2169.73,315.483 2167.93,310.533 2167.03,304.233C2167.03,303.033 2167.7,301.958 2169.05,301.008C2170.41,300.058 2171.76,299.583 2173.11,299.583C2174.45,299.583 2175.33,299.883 2175.73,300.483C2176.13,301.083 2176.61,302.758 2177.16,305.508C2177.7,308.258 2178.88,310.558 2180.68,312.408C2182.48,314.258 2184.23,315.183 2185.93,315.183C2188.73,315.183 2190.63,313.933 2191.63,311.433C2193.13,306.833 2193.88,301.233 2193.88,294.633C2193.88,288.033 2193.28,280.883 2192.08,273.183C2190.88,265.483 2190.23,260.733 2190.13,258.933Z" style="fill:rgb(35,31,32);fill-rule:nonzero;stroke:rgb(35,31,32);stroke-width:4.17px;stroke-linecap:butt;stroke-miterlimit:1.41421;"/>
            <path d="M2224.93,320.433C2224.53,322.933 2222.76,324.183 2219.61,324.183C2216.45,324.183 2214.88,322.883 2214.88,320.283C2214.88,314.383 2217.78,302.383 2223.58,284.283C2226.18,275.983 2229.08,269.083 2232.28,263.583C2235.48,258.083 2238.58,255.333 2241.58,255.333C2243.18,255.333 2244.58,256.283 2245.78,258.183C2246.98,260.083 2249.16,264.408 2252.3,271.158C2255.45,277.908 2258.08,285.058 2260.18,292.608C2262.28,300.158 2264.58,309.383 2267.08,320.283C2267.08,321.583 2266.63,322.608 2265.73,323.358C2264.83,324.108 2263.73,324.483 2262.43,324.483C2259.23,324.483 2257.23,323.083 2256.43,320.283L2251.18,299.733C2242.38,299.733 2235.33,299.033 2230.03,297.633C2227.03,308.633 2225.33,316.233 2224.93,320.433ZM2241.13,269.133C2237.83,274.733 2235.13,280.983 2233.03,287.883C2237.43,289.083 2242.63,289.683 2248.63,289.683C2246.73,282.783 2244.23,275.933 2241.13,269.133Z" style="fill:rgb(35,31,32);fill-rule:nonzero;stroke:rgb(35,31,32);stroke-width:4.17px;stroke-linecap:butt;stroke-miterlimit:1.41421;"/>
            <path d="M2284.03,311.883C2284.03,306.483 2283.73,298.108 2283.13,286.758C2282.53,275.408 2282.03,268.333 2281.63,265.533C2281.23,262.733 2281.03,260.783 2281.03,259.683C2281.03,258.583 2281.63,257.558 2282.83,256.608C2284.03,255.658 2285.48,255.183 2287.18,255.183C2288.88,255.183 2290.18,256.083 2291.08,257.883C2293.18,262.483 2294.23,272.083 2294.23,286.683C2300.43,281.583 2305.43,277.008 2309.23,272.958C2313.03,268.908 2316.88,263.983 2320.78,258.183C2322.08,256.083 2323.73,255.033 2325.73,255.033C2329.53,255.033 2331.43,256.283 2331.43,258.783C2331.43,263.583 2324.98,272.583 2312.08,285.783C2317.58,290.783 2322.76,297.058 2327.61,304.608C2332.45,312.158 2334.88,316.858 2334.88,318.708C2334.88,320.558 2334.36,321.958 2333.3,322.908C2332.26,323.858 2331.03,324.333 2329.63,324.333C2328.23,324.333 2326.61,323.108 2324.76,320.658C2322.91,318.208 2320.7,314.908 2318.16,310.758C2315.61,306.608 2313.36,303.308 2311.41,300.858C2309.45,298.408 2306.78,295.733 2303.38,292.833C2300.48,295.433 2297.53,297.783 2294.53,299.883C2294.83,311.583 2294.98,318.133 2294.98,319.533C2294.98,322.833 2292.78,324.483 2288.38,324.483C2285.38,324.483 2283.93,322.933 2284.03,319.833L2284.03,311.883Z" style="fill:rgb(35,31,32);fill-rule:nonzero;stroke:rgb(35,31,32);stroke-width:4.17px;stroke-linecap:butt;stroke-miterlimit:1.41421;"/>
        </g>
        <g transform="matrix(0.960145,-0.279501,0.279501,0.960145,-1458.57,1351.22)">
            <path d="M2147.08,226.083C2148.08,225.483 2149.38,225.183 2150.98,225.183C2152.58,225.183 2154.03,225.858 2155.33,227.208C2156.63,228.558 2157.28,230.133 2157.28,231.933C2157.28,271.033 2157.45,294.658 2157.8,302.808C2158.16,310.958 2158.33,315.133 2158.33,315.333C2158.33,317.533 2157.73,319.608 2156.53,321.558C2155.33,323.508 2154.01,324.483 2152.55,324.483C2151.11,324.483 2150.01,324.408 2149.26,324.258C2148.51,324.108 2147.83,323.933 2147.23,323.733C2146.63,323.533 2146.03,323.133 2145.43,322.533L2143.93,321.033C2143.53,320.633 2143.01,319.858 2142.36,318.708C2141.7,317.558 2141.18,316.633 2140.78,315.933C2140.38,315.233 2139.76,314.008 2138.91,312.258C2138.05,310.508 2136.2,306.933 2133.36,301.533C2130.51,296.133 2127.93,291.283 2125.63,286.983C2117.73,272.483 2110.38,261.033 2103.58,252.633C2103.58,285.133 2102.68,307.683 2100.88,320.283C2100.58,322.683 2098.73,323.883 2095.33,323.883C2093.73,323.883 2092.41,323.483 2091.36,322.683C2090.3,321.883 2089.78,320.583 2089.78,318.783C2089.78,316.983 2090.16,307.083 2090.91,289.083C2091.66,271.083 2092.03,259.858 2092.03,255.408C2092.03,250.958 2092.03,248.133 2092.03,246.933C2092.03,239.733 2092.58,235.683 2093.68,234.783C2094.78,233.883 2095.93,233.433 2097.13,233.433C2102.63,233.433 2111.03,242.433 2122.33,260.433C2124.53,263.933 2128.73,271.258 2134.93,282.408C2141.13,293.558 2144.83,300.433 2146.03,303.033L2144.23,240.783C2144.23,232.183 2145.18,227.283 2147.08,226.083Z" style="fill:rgb(35,31,32);fill-rule:nonzero;stroke:rgb(35,31,32);stroke-width:4.17px;stroke-linecap:butt;stroke-miterlimit:1.41421;"/>
            <path d="M2190.13,258.933C2190.23,257.833 2191.03,256.808 2192.53,255.858C2194.03,254.908 2195.76,254.433 2197.7,254.433C2199.66,254.433 2200.73,255.133 2200.93,256.533C2202.63,273.233 2203.48,284.783 2203.48,291.183C2203.48,297.583 2203.38,302.183 2203.18,304.983C2202.58,311.083 2200.98,315.858 2198.38,319.308C2195.78,322.758 2191.48,324.483 2185.48,324.483C2179.48,324.483 2175.13,322.683 2172.43,319.083C2169.73,315.483 2167.93,310.533 2167.03,304.233C2167.03,303.033 2167.7,301.958 2169.05,301.008C2170.41,300.058 2171.76,299.583 2173.11,299.583C2174.45,299.583 2175.33,299.883 2175.73,300.483C2176.13,301.083 2176.61,302.758 2177.16,305.508C2177.7,308.258 2178.88,310.558 2180.68,312.408C2182.48,314.258 2184.23,315.183 2185.93,315.183C2188.73,315.183 2190.63,313.933 2191.63,311.433C2193.13,306.833 2193.88,301.233 2193.88,294.633C2193.88,288.033 2193.28,280.883 2192.08,273.183C2190.88,265.483 2190.23,260.733 2190.13,258.933Z" style="fill:rgb(35,31,32);fill-rule:nonzero;stroke:rgb(35,31,32);stroke-width:4.17px;stroke-linecap:butt;stroke-miterlimit:1.41421;"/>
            <path d="M2224.93,320.433C2224.53,322.933 2222.76,324.183 2219.61,324.183C2216.45,324.183 2214.88,322.883 2214.88,320.283C2214.88,314.383 2217.78,302.383 2223.58,284.283C2226.18,275.983 2229.08,269.083 2232.28,263.583C2235.48,258.083 2238.58,255.333 2241.58,255.333C2243.18,255.333 2244.58,256.283 2245.78,258.183C2246.98,260.083 2249.16,264.408 2252.3,271.158C2255.45,277.908 2258.08,285.058 2260.18,292.608C2262.28,300.158 2264.58,309.383 2267.08,320.283C2267.08,321.583 2266.63,322.608 2265.73,323.358C2264.83,324.108 2263.73,324.483 2262.43,324.483C2259.23,324.483 2257.23,323.083 2256.43,320.283L2251.18,299.733C2242.38,299.733 2235.33,299.033 2230.03,297.633C2227.03,308.633 2225.33,316.233 2224.93,320.433ZM2241.13,269.133C2237.83,274.733 2235.13,280.983 2233.03,287.883C2237.43,289.083 2242.63,289.683 2248.63,289.683C2246.73,282.783 2244.23,275.933 2241.13,269.133Z" style="fill:rgb(35,31,32);fill-rule:nonzero;stroke:rgb(35,31,32);stroke-width:4.17px;stroke-linecap:butt;stroke-miterlimit:1.41421;"/>
            <path d="M2284.03,311.883C2284.03,306.483 2283.73,298.108 2283.13,286.758C2282.53,275.408 2282.03,268.333 2281.63,265.533C2281.23,262.733 2281.03,260.783 2281.03,259.683C2281.03,258.583 2281.63,257.558 2282.83,256.608C2284.03,255.658 2285.48,255.183 2287.18,255.183C2288.88,255.183 2290.18,256.083 2291.08,257.883C2293.18,262.483 2294.23,272.083 2294.23,286.683C2300.43,281.583 2305.43,277.008 2309.23,272.958C2313.03,268.908 2316.88,263.983 2320.78,258.183C2322.08,256.083 2323.73,255.033 2325.73,255.033C2329.53,255.033 2331.43,256.283 2331.43,258.783C2331.43,263.583 2324.98,272.583 2312.08,285.783C2317.58,290.783 2322.76,297.058 2327.61,304.608C2332.45,312.158 2334.88,316.858 2334.88,318.708C2334.88,320.558 2334.36,321.958 2333.3,322.908C2332.26,323.858 2331.03,324.333 2329.63,324.333C2328.23,324.333 2326.61,323.108 2324.76,320.658C2322.91,318.208 2320.7,314.908 2318.16,310.758C2315.61,306.608 2313.36,303.308 2311.41,300.858C2309.45,298.408 2306.78,295.733 2303.38,292.833C2300.48,295.433 2297.53,297.783 2294.53,299.883C2294.83,311.583 2294.98,318.133 2294.98,319.533C2294.98,322.833 2292.78,324.483 2288.38,324.483C2285.38,324.483 2283.93,322.933 2284.03,319.833L2284.03,311.883Z" style="fill:rgb(35,31,32);fill-rule:nonzero;stroke:rgb(35,31,32);stroke-width:4.17px;stroke-linecap:butt;stroke-miterlimit:1.41421;"/>
        </g>
        <g transform="matrix(1,0,0,1,-98.6091,16.6032)">
            <path d="M2198.26,1252.09C2235.57,1252.09 2301.33,1178.84 2301.33,1143.31" style="fill:none;stroke:rgb(35,31,32);stroke-width:20.83px;"/>
        </g>
        <g transform="matrix(1,0,0,1,-98.6091,16.6032)">
            <path d="M2262.01,1296.67C2305.12,1252.83 2374.47,1216.94 2374.47,1148.6" style="fill:none;stroke:rgb(35,31,32);stroke-width:20.83px;"/>
        </g>
        <g transform="matrix(0.967284,0.253695,-0.253695,0.967284,254.431,-206.364)">
            <path d="M1228.72,1083.64C1228.72,1122.43 1293.63,1187.74 1325.98,1187.74" style="fill:none;stroke:rgb(35,31,32);stroke-width:20.83px;"/>
        </g>
        <g transform="matrix(0.967284,0.253695,-0.253695,0.967284,254.431,-206.364)">
            <path d="M1171.68,1090.75C1171.68,1122.82 1209.23,1183.69 1236.9,1197.53C1238.05,1198.1 1240.62,1197.81 1240.62,1199.35" style="fill:none;stroke:rgb(35,31,32);stroke-width:20.83px;"/>
        </g>
        <g transform="matrix(1,0,0,1,-76.0173,73.1136)">
            <path d="M1835.77,257.06C1853.6,257.06 1922.77,262.188 1971.67,322.628" style="fill:none;stroke:rgb(35,31,32);stroke-width:20.83px;"/>
        </g>
        <g transform="matrix(1,0,0,1,-76.0173,73.1136)">
            <path d="M1813.53,194.851C1844.86,194.851 1925.09,192.339 1969.64,249.381" style="fill:none;stroke:rgb(35,31,32);stroke-width:20.83px;"/>
        </g>
        <g transform="matrix(1,0,0,1,-76.0173,73.1136)">
            <path d="M2099.91,1553.23C2099.91,1485.58 2205.49,1469.2 2259.12,1438.39C2284.95,1423.55 2370.3,1305.64 2397.77,1294.03C2457.41,1268.81 2549.77,1279.91 2613.95,1279.91C2631,1279.91 2842.08,1284.86 2891.75,1397.11L2891.75,1576.3L2099.91,1576.3" style="fill:white;stroke:rgb(35,31,32);stroke-width:20.83px;"/>
        </g>
        <g transform="matrix(1,0,0,1,-76.0173,73.1136)">
            <path d="M2082.48,1576.3L767.144,1576.3L767.144,1426.11C822.484,1369.95 920.024,1335.64 1041.91,1333.57C1126.91,1332.12 1269.63,1465.27 1350.57,1479.49C1430,1493.44 1813.02,1501.34 1887.41,1534.23C1941.09,1557.97 2032.34,1534.23 2082.48,1534.23" style="fill:white;stroke:rgb(35,31,32);stroke-width:20.83px;"/>
        </g>
        <path d="M520.361,1499.22L691.126,1499.22L691.126,1787.71L2815.73,1787.71L2815.73,1239.24L2987.51,1239.24L2987.51,2212.37L2815.73,2212.37L2815.73,2109.18L691.126,2109.18L691.126,2212.37L520.361,2212.37L520.361,1499.22Z" style="fill:rgb(143,86,59);stroke:rgb(35,31,32);stroke-width:20.83px;"/>
    </g>
</svg>
