<?xml version="1.0" encoding="UTF-8" standalone="no"?>
<!DOCTYPE svg PUBLIC "-//W3C//DTD SVG 1.1//EN" "http://www.w3.org/Graphics/SVG/1.1/DTD/svg11.dtd">
<svg width="100%" height="100%" viewBox="0 0 2038 2103" version="1.1" xmlns="http://www.w3.org/2000/svg" xmlns:xlink="http://www.w3.org/1999/xlink" xml:space="preserve" xmlns:serif="http://www.serif.com/" style="fill-rule:evenodd;clip-rule:evenodd;stroke-linecap:round;stroke-linejoin:round;stroke-miterlimit:1.5;">
    <g transform="matrix(1,0,0,1,-835.332,-155.608)">
        <g transform="matrix(1,0,0,1,-5.75686,244.403)">
            <path d="M1028.25,1285.47C1028.25,1246.81 925.039,1049.55 1143.98,1032.1C1157.62,1031.01 1208.47,1039.26 1217.69,1030.88C1222.42,1026.58 1228.09,985.058 1232.44,966.084C1280.47,756.33 1494.06,852.637 1493.2,850.234L1648.89,1285.47" style="fill:rgb(225,244,253);stroke:rgb(35,31,32);stroke-width:20.83px;"/>
        </g>
        <path d="M1573.37,1316.08L1479.2,1408.04L1598.95,1512.01L1884.91,1512.01L1833.28,1408.04L1573.37,1316.08Z" style="fill:rgb(242,135,183);"/>
        <g transform="matrix(1,0,0,1,-5.75686,244.403)">
            <path d="M2002.95,1284.04L2082.45,830.308C2233.54,785.326 2304.92,914.773 2304.92,991.604C2304.92,995.111 2393.55,914.804 2492.89,987.538C2599.74,1065.77 2480.56,1261.88 2480.56,1281.87" style="fill:rgb(225,244,253);stroke:rgb(35,31,32);stroke-width:20.83px;"/>
        </g>
        <g transform="matrix(1,0,0,1,182.836,224.231)">
            <path d="M1952.38,1368.26C2113.33,1243.33 1901.35,1085.24 1885.18,1085.24L1836.4,1178.39L1824.73,1297.18" style="fill:rgb(241,114,172);stroke:rgb(35,31,32);stroke-width:20.83px;"/>
        </g>
        <g transform="matrix(1,0,0,1,182.836,224.231)">
            <path d="M1364.59,1449.74C1340.27,1449.74 1286.03,1455.15 1256.02,1414.08C1197.67,1334.21 1189.11,1244.64 1235.27,1168C1279.17,1095.12 1327.56,1088.61 1327.56,1081.08L1393.35,1183.81" style="fill:rgb(241,114,172);stroke:rgb(35,31,32);stroke-width:20.83px;"/>
        </g>
        <g transform="matrix(1,0,0,1,182.836,224.231)">
            <path d="M1504.67,1240.16C1504.67,1240.16 1326.05,1228.1 1297.7,990.992C1297.7,990.992 1259.27,669.47 1594.35,640.705C1594.35,640.705 1951.78,608.807 1908.15,990.992C1908.15,990.992 1884.81,1195.5 1753.94,1240.16" style="fill:rgb(242,135,183);stroke:rgb(35,31,32);stroke-width:20.83px;"/>
        </g>
        <g transform="matrix(1,0,0,1,182.836,224.231)">
            <path d="M1565.34,1096.28C1594.67,1125.61 1636.96,1167.25 1682.45,1164.23C1731.55,1160.97 1791.31,1084.15 1791.31,1080.46" style="fill:none;stroke:rgb(35,31,32);stroke-width:20.83px;"/>
        </g>
        <g transform="matrix(1,0,0,1,182.836,212.231)">
            <path d="M1523.35,1120.96C1560.7,1106.22 1579.44,1076.84 1581.87,1076.84" style="fill:none;stroke:rgb(35,31,32);stroke-width:20.83px;"/>
        </g>
        <g transform="matrix(1,0,0,1,188.255,213.566)">
            <path d="M1772.08,1065.16C1774.53,1067.46 1782.44,1091.3 1817.71,1108.17" style="fill:none;stroke:rgb(35,31,32);stroke-width:20.83px;"/>
        </g>
        <g transform="matrix(1,0,0,1,182.836,224.231)">
            <path d="M1605.09,1243.19C1582.16,1243.19 1548.19,1174.72 1571.5,1151.05C1592.11,1130.13 1618.3,1119.13 1650.3,1119.13C1746.42,1119.13 1730.5,1254.97 1727.16,1319.48C1721.12,1436.17 1625.78,1433.68 1605.09,1440.74C1544.93,1461.26 1444.14,1381.17 1430.1,1325.4C1423.89,1300.71 1422.97,1291.47 1422.97,1264.46" style="fill:rgb(241,114,172);stroke:rgb(35,31,32);stroke-width:20.83px;"/>
        </g>
        <g transform="matrix(1,0,0,1,185.257,182.849)">
            <path d="M1561.5,1380.89C1539.94,1380.89 1535.57,1368.48 1524.82,1357.73C1467.78,1300.68 1609.1,1264.6 1640.9,1296.41C1666.75,1322.25 1616.06,1498.7 1587.94,1512.55C1555.83,1528.36 1526.68,1544.96 1489.44,1551.96C1366.46,1575.1 1322.61,1380.21 1334.81,1290.08C1338.12,1265.66 1353.5,1246.11 1363.89,1225.19" style="fill:rgb(241,114,172);stroke:rgb(35,31,32);stroke-width:20.83px;"/>
        </g>
        <g transform="matrix(1,0,0,1,182.836,224.231)">
            <path d="M1825.53,1304.21C1868.65,1304.21 1898.07,1236.32 1878.47,1197.12C1871.02,1182.22 1839.46,1174.28 1825.53,1170.77C1765.03,1155.52 1736.45,1215.6 1736.28,1215.76C1717.23,1233.94 1727.56,1416.3 1748.76,1437.02C1769.33,1457.13 1815.48,1468.3 1842.61,1473.43C1873.2,1479.22 1898.67,1464.63 1919.56,1448.82C2008.71,1381.35 1923.76,1372.96 1878.47,1304.21" style="fill:rgb(241,114,172);stroke:rgb(35,31,32);stroke-width:20.83px;"/>
        </g>
        <g transform="matrix(1,0,0,1,553.467,230.607)">
            <path d="M471.971,1425.94L560.25,1773.56C560.25,1773.56 588.099,1874.98 683.696,1874.2C779.292,1873.41 1643.53,1874.2 1643.53,1874.2C1643.53,1874.2 1791.96,1882.18 1807.05,1773.56L1917.46,1425.94" style="fill:rgb(209,211,212);stroke:rgb(35,31,32);stroke-width:20.83px;"/>
        </g>
        <g transform="matrix(1,0,0,1,583.653,294.657)">
            <path d="M1951.2,1297.72C1951.2,1262.43 1922.55,1233.79 1887.27,1233.79L441.785,1233.79C406.501,1233.79 377.855,1262.43 377.855,1297.72L377.855,1297.96C377.855,1333.24 406.501,1361.89 441.785,1361.89L1887.27,1361.89C1922.55,1361.89 1951.2,1333.24 1951.2,1297.96L1951.2,1297.72Z" style="fill:white;stroke:rgb(35,31,32);stroke-width:20.83px;"/>
        </g>
        <g transform="matrix(1,0,0,1,-204.111,228.409)">
            <g>
                <path d="M2166.44,226.983C2167.84,225.383 2169.39,224.583 2171.09,224.583C2172.79,224.583 2174.24,225.433 2175.44,227.133C2177.14,235.833 2177.99,245.583 2177.99,256.383L2177.99,267.783C2177.99,276.383 2177.84,281.458 2177.54,283.008C2177.24,284.558 2176.94,286.283 2176.64,288.183C2176.34,290.083 2176.06,291.533 2175.81,292.533C2175.56,293.533 2175.19,294.883 2174.69,296.583C2173.59,300.283 2172.04,303.583 2170.04,306.483C2167.04,312.083 2163.09,316.483 2158.19,319.683C2153.29,322.883 2148.31,324.483 2143.26,324.483C2138.21,324.483 2133.01,322.283 2127.66,317.883C2122.31,313.483 2117.94,307.983 2114.54,301.383C2109.34,291.183 2106.74,279.433 2106.74,266.133C2106.74,261.433 2107.44,250.283 2108.84,232.683C2109.54,231.083 2110.61,229.658 2112.06,228.408C2113.51,227.158 2114.99,226.533 2116.49,226.533C2118.69,226.533 2120.04,228.033 2120.54,231.033C2119.14,248.333 2118.44,259.283 2118.44,263.883C2118.44,274.883 2120.59,284.633 2124.89,293.133C2127.59,298.733 2130.91,303.408 2134.86,307.158C2138.81,310.908 2142.69,312.783 2146.49,312.783C2152.79,312.783 2158.19,307.883 2162.69,298.083C2164.59,294.683 2165.64,289.233 2165.84,281.733C2165.84,279.733 2165.94,278.333 2166.14,277.533L2166.44,257.733C2166.44,248.533 2165.74,240.133 2164.34,232.533C2164.34,230.433 2165.04,228.583 2166.44,226.983Z" style="fill:rgb(35,31,32);fill-rule:nonzero;stroke:rgb(35,31,32);stroke-width:4.17px;stroke-linecap:butt;stroke-miterlimit:1.41421;"/>
                <path d="M2201.24,277.683L2199.59,314.133C2199.49,317.333 2199.39,319.483 2199.29,320.583C2198.89,323.283 2197.14,324.633 2194.04,324.633C2192.84,324.633 2191.76,324.208 2190.81,323.358C2189.86,322.508 2189.34,321.433 2189.24,320.133C2190.04,294.133 2190.44,280.108 2190.44,278.058C2190.44,276.008 2190.44,273.733 2190.44,271.233C2190.44,268.733 2190.69,266.483 2191.19,264.483C2191.89,261.783 2193.69,260.433 2196.59,260.433C2197.99,260.433 2199.74,261.383 2201.84,263.283C2203.94,265.183 2206.99,268.683 2210.99,273.783C2220.49,285.483 2227.69,296.533 2232.59,306.933C2232.39,292.733 2232.04,281.908 2231.54,274.458C2231.04,267.008 2230.79,262.933 2230.79,262.233C2230.79,261.533 2230.79,261.133 2230.79,261.033C2231.49,257.233 2233.54,255.333 2236.94,255.333C2238.24,255.333 2239.44,255.908 2240.54,257.058C2241.64,258.208 2242.19,259.633 2242.19,261.333L2242.94,317.133C2242.94,322.333 2240.84,324.933 2236.64,324.933C2234.14,324.933 2232.19,324.058 2230.79,322.308C2229.39,320.558 2228.39,319.183 2227.79,318.183C2227.19,317.183 2226.29,315.583 2225.09,313.383C2217.39,298.883 2209.44,286.983 2201.24,277.683Z" style="fill:rgb(35,31,32);fill-rule:nonzero;stroke:rgb(35,31,32);stroke-width:4.17px;stroke-linecap:butt;stroke-miterlimit:1.41421;"/>
                <path d="M2259.74,320.583C2258.44,319.583 2257.79,318.558 2257.79,317.508C2257.79,316.458 2258.14,315.483 2258.84,314.583C2257.84,306.883 2257.14,297.983 2256.74,287.883C2256.34,277.783 2256.14,272.058 2256.14,270.708C2256.14,269.358 2256.16,267.908 2256.21,266.358C2256.26,264.808 2256.49,263.083 2256.89,261.183C2257.59,257.383 2259.89,255.483 2263.79,255.483C2274.09,255.483 2284.01,260.133 2293.56,269.433C2303.11,278.733 2307.89,288.833 2307.89,299.733C2307.89,307.933 2305.34,314.108 2300.24,318.258C2295.14,322.408 2288.19,324.483 2279.39,324.483C2277.69,324.483 2275.29,324.283 2272.19,323.883C2272.19,325.483 2271.54,326.883 2270.24,328.083C2268.94,329.283 2267.44,329.883 2265.74,329.883C2263.14,329.883 2261.59,328.583 2261.09,325.983L2259.74,320.583ZM2267.39,266.583C2267.29,267.683 2267.24,269.583 2267.24,272.283C2267.24,274.983 2267.51,280.958 2268.06,290.208C2268.61,299.458 2269.34,307.333 2270.24,313.833C2271.04,314.033 2274.14,314.133 2279.54,314.133C2291.24,314.133 2297.09,310.833 2297.09,304.233C2297.09,295.833 2294.41,288.333 2289.06,281.733C2283.71,275.133 2276.49,270.083 2267.39,266.583Z" style="fill:rgb(35,31,32);fill-rule:nonzero;stroke:rgb(35,31,32);stroke-width:4.17px;stroke-linecap:butt;stroke-miterlimit:1.41421;"/>
                <path d="M2334.14,290.733L2334.44,310.383C2334.44,312.983 2334.39,314.383 2334.29,314.583L2360.24,314.133C2363.14,314.433 2364.59,315.683 2364.59,317.883C2364.59,322.083 2362.64,324.183 2358.74,324.183L2329.34,324.483C2327.54,324.483 2326.21,323.858 2325.36,322.608C2324.51,321.358 2324.04,320.033 2323.94,318.633C2323.84,317.233 2323.79,315.683 2323.79,313.983L2323.79,289.083C2322.49,288.383 2321.84,287.333 2321.84,285.933C2321.84,284.533 2322.39,283.283 2323.49,282.183C2323.19,274.383 2323.04,267.283 2323.04,260.883C2323.04,257.183 2325.29,255.283 2329.79,255.183C2330.99,255.183 2332.39,255.183 2333.99,255.183L2360.24,255.633L2360.39,255.633C2363.59,256.033 2365.19,257.533 2365.19,260.133C2365.19,262.133 2364.59,263.483 2363.39,264.183C2360.79,265.583 2354.54,266.283 2344.64,266.283C2340.94,266.283 2337.24,266.133 2333.54,265.833C2333.54,274.833 2333.59,279.883 2333.69,280.983C2337.59,281.083 2345.24,281.133 2356.64,281.133C2359.74,281.533 2361.29,282.933 2361.29,285.333C2361.29,286.533 2360.79,287.683 2359.79,288.783C2358.79,289.883 2357.71,290.508 2356.56,290.658C2355.41,290.808 2352.96,290.883 2349.21,290.883C2345.46,290.883 2340.44,290.833 2334.14,290.733Z" style="fill:rgb(35,31,32);fill-rule:nonzero;stroke:rgb(35,31,32);stroke-width:4.17px;stroke-linecap:butt;stroke-miterlimit:1.41421;"/>
                <path d="M2390.24,318.933C2390.24,320.433 2389.54,321.733 2388.14,322.833C2386.74,323.933 2385.19,324.483 2383.49,324.483C2381.29,324.483 2380.19,323.483 2380.19,321.483C2379.79,316.783 2379.59,298.133 2379.59,265.533C2379.59,262.333 2381.51,259.833 2385.36,258.033C2389.21,256.233 2394.36,255.333 2400.81,255.333C2407.26,255.333 2412.91,256.933 2417.76,260.133C2422.61,263.333 2425.04,267.183 2425.04,271.683C2425.04,273.883 2424.09,276.333 2422.19,279.033C2420.29,281.733 2418.26,283.858 2416.11,285.408C2413.96,286.958 2410.89,288.833 2406.89,291.033C2402.89,293.233 2400.44,294.433 2399.54,294.633C2405.84,298.633 2411.44,302.983 2416.34,307.683C2421.24,312.383 2423.69,316.083 2423.69,318.783C2423.69,321.483 2422.49,323.233 2420.09,324.033C2419.39,324.233 2418.49,324.333 2417.39,324.333C2416.29,324.333 2414.89,323.258 2413.19,321.108C2411.49,318.958 2408.29,315.858 2403.59,311.808C2398.89,307.758 2394.24,304.133 2389.64,300.933C2389.84,308.933 2390.04,314.883 2390.24,318.783L2390.24,318.933ZM2389.64,287.583C2392.94,287.583 2397.89,285.958 2404.49,282.708C2411.09,279.458 2414.54,276.433 2414.84,273.633C2414.84,270.933 2413.34,268.908 2410.34,267.558C2407.34,266.208 2404.19,265.533 2400.89,265.533C2397.09,265.533 2393.39,265.983 2389.79,266.883C2389.69,271.683 2389.64,278.583 2389.64,287.583Z" style="fill:rgb(35,31,32);fill-rule:nonzero;stroke:rgb(35,31,32);stroke-width:4.17px;stroke-linecap:butt;stroke-miterlimit:1.41421;"/>
                <path d="M2450.24,277.683L2448.59,314.133C2448.49,317.333 2448.39,319.483 2448.29,320.583C2447.89,323.283 2446.14,324.633 2443.04,324.633C2441.84,324.633 2440.76,324.208 2439.81,323.358C2438.86,322.508 2438.34,321.433 2438.24,320.133C2439.04,294.133 2439.44,280.108 2439.44,278.058C2439.44,276.008 2439.44,273.733 2439.44,271.233C2439.44,268.733 2439.69,266.483 2440.19,264.483C2440.89,261.783 2442.69,260.433 2445.59,260.433C2446.99,260.433 2448.74,261.383 2450.84,263.283C2452.94,265.183 2455.99,268.683 2459.99,273.783C2469.49,285.483 2476.69,296.533 2481.59,306.933C2481.39,292.733 2481.04,281.908 2480.54,274.458C2480.04,267.008 2479.79,262.933 2479.79,262.233C2479.79,261.533 2479.79,261.133 2479.79,261.033C2480.49,257.233 2482.54,255.333 2485.94,255.333C2487.24,255.333 2488.44,255.908 2489.54,257.058C2490.64,258.208 2491.19,259.633 2491.19,261.333L2491.94,317.133C2491.94,322.333 2489.84,324.933 2485.64,324.933C2483.14,324.933 2481.19,324.058 2479.79,322.308C2478.39,320.558 2477.39,319.183 2476.79,318.183C2476.19,317.183 2475.29,315.583 2474.09,313.383C2466.39,298.883 2458.44,286.983 2450.24,277.683Z" style="fill:rgb(35,31,32);fill-rule:nonzero;stroke:rgb(35,31,32);stroke-width:4.17px;stroke-linecap:butt;stroke-miterlimit:1.41421;"/>
                <path d="M2517.14,290.733L2517.44,310.383C2517.44,312.983 2517.39,314.383 2517.29,314.583L2543.24,314.133C2546.14,314.433 2547.59,315.683 2547.59,317.883C2547.59,322.083 2545.64,324.183 2541.74,324.183L2512.34,324.483C2510.54,324.483 2509.21,323.858 2508.36,322.608C2507.51,321.358 2507.04,320.033 2506.94,318.633C2506.84,317.233 2506.79,315.683 2506.79,313.983L2506.79,289.083C2505.49,288.383 2504.84,287.333 2504.84,285.933C2504.84,284.533 2505.39,283.283 2506.49,282.183C2506.19,274.383 2506.04,267.283 2506.04,260.883C2506.04,257.183 2508.29,255.283 2512.79,255.183C2513.99,255.183 2515.39,255.183 2516.99,255.183L2543.24,255.633L2543.39,255.633C2546.59,256.033 2548.19,257.533 2548.19,260.133C2548.19,262.133 2547.59,263.483 2546.39,264.183C2543.79,265.583 2537.54,266.283 2527.64,266.283C2523.94,266.283 2520.24,266.133 2516.54,265.833C2516.54,274.833 2516.59,279.883 2516.69,280.983C2520.59,281.083 2528.24,281.133 2539.64,281.133C2542.74,281.533 2544.29,282.933 2544.29,285.333C2544.29,286.533 2543.79,287.683 2542.79,288.783C2541.79,289.883 2540.71,290.508 2539.56,290.658C2538.41,290.808 2535.96,290.883 2532.21,290.883C2528.46,290.883 2523.44,290.833 2517.14,290.733Z" style="fill:rgb(35,31,32);fill-rule:nonzero;stroke:rgb(35,31,32);stroke-width:4.17px;stroke-linecap:butt;stroke-miterlimit:1.41421;"/>
                <path d="M2572.49,320.433C2572.09,322.933 2570.31,324.183 2567.16,324.183C2564.01,324.183 2562.44,322.883 2562.44,320.283C2562.44,314.383 2565.34,302.383 2571.14,284.283C2573.74,275.983 2576.64,269.083 2579.84,263.583C2583.04,258.083 2586.14,255.333 2589.14,255.333C2590.74,255.333 2592.14,256.283 2593.34,258.183C2594.54,260.083 2596.71,264.408 2599.86,271.158C2603.01,277.908 2605.64,285.058 2607.74,292.608C2609.84,300.158 2612.14,309.383 2614.64,320.283C2614.64,321.583 2614.19,322.608 2613.29,323.358C2612.39,324.108 2611.29,324.483 2609.99,324.483C2606.79,324.483 2604.79,323.083 2603.99,320.283L2598.74,299.733C2589.94,299.733 2582.89,299.033 2577.59,297.633C2574.59,308.633 2572.89,316.233 2572.49,320.433ZM2588.69,269.133C2585.39,274.733 2582.69,280.983 2580.59,287.883C2584.99,289.083 2590.19,289.683 2596.19,289.683C2594.29,282.783 2591.79,275.933 2588.69,269.133Z" style="fill:rgb(35,31,32);fill-rule:nonzero;stroke:rgb(35,31,32);stroke-width:4.17px;stroke-linecap:butt;stroke-miterlimit:1.41421;"/>
                <path d="M2657.99,264.333L2657.69,299.883C2657.69,307.283 2657.79,313.783 2657.99,319.383C2658.09,320.883 2657.46,322.108 2656.11,323.058C2654.76,324.008 2653.39,324.483 2651.99,324.483C2649.39,324.483 2648.09,323.083 2648.09,320.283C2647.79,309.383 2647.64,299.008 2647.64,289.158C2647.64,279.308 2647.94,271.183 2648.54,264.783C2642.54,265.283 2636.44,265.533 2630.24,265.533C2627.14,265.533 2625.59,264.233 2625.59,261.633C2625.59,260.433 2626.16,259.233 2627.31,258.033C2628.46,256.833 2629.74,256.183 2631.14,256.083L2677.94,254.583C2680.64,255.183 2681.99,256.483 2681.99,258.483C2681.99,262.583 2677.29,264.633 2667.89,264.633L2657.99,264.333Z" style="fill:rgb(35,31,32);fill-rule:nonzero;stroke:rgb(35,31,32);stroke-width:4.17px;stroke-linecap:butt;stroke-miterlimit:1.41421;"/>
                <path d="M2736.74,293.883L2736.59,316.083C2736.59,321.683 2734.79,324.483 2731.19,324.483C2729.49,324.483 2728.21,324.133 2727.36,323.433C2726.51,322.733 2726.14,321.633 2726.24,320.133C2726.64,314.833 2726.84,306.383 2726.84,294.783C2725.14,294.983 2722.51,295.083 2718.96,295.083C2715.41,295.083 2709.89,294.683 2702.39,293.883L2702.39,297.033C2702.39,299.133 2702.79,306.733 2703.59,319.833C2703.69,321.433 2703.11,322.608 2701.86,323.358C2700.61,324.108 2699.34,324.483 2698.04,324.483C2696.74,324.483 2695.71,324.108 2694.96,323.358C2694.21,322.608 2693.79,321.733 2693.69,320.733C2692.59,310.333 2692.04,302.458 2692.04,297.108C2692.04,291.758 2692.09,288.133 2692.19,286.233L2692.79,261.183C2692.89,259.983 2693.56,258.958 2694.81,258.108C2696.06,257.258 2697.39,256.833 2698.79,256.833C2701.39,256.833 2702.69,257.933 2702.69,260.133L2702.39,283.683C2707.39,284.483 2711.74,284.883 2715.44,284.883L2726.84,284.883C2726.54,279.383 2726.39,271.083 2726.39,259.983C2726.39,258.583 2727.06,257.433 2728.41,256.533C2729.76,255.633 2731.21,255.183 2732.76,255.183C2734.31,255.183 2735.39,255.883 2735.99,257.283C2736.59,258.683 2736.84,260.033 2736.74,261.333L2736.74,293.883Z" style="fill:rgb(35,31,32);fill-rule:nonzero;stroke:rgb(35,31,32);stroke-width:4.17px;stroke-linecap:butt;stroke-miterlimit:1.41421;"/>
                <path d="M2068.19,371.4C2070.79,371.7 2072.09,372.9 2072.09,375C2072.09,377.6 2070.74,381.05 2068.04,385.35C2067.14,386.75 2065.84,388.725 2064.14,391.275C2062.44,393.825 2061.26,395.625 2060.61,396.675C2059.96,397.725 2058.91,399.25 2057.46,401.25C2056.01,403.25 2054.79,405.1 2053.79,406.8L2053.79,419.85C2053.79,428.85 2053.49,434.65 2052.89,437.25C2052.29,439.85 2050.44,441.15 2047.34,441.15C2046.44,441.15 2045.79,440.95 2045.39,440.55C2044.29,439.45 2043.74,436.15 2043.74,430.65L2043.89,414.45C2043.89,411.85 2043.74,409.2 2043.44,406.5C2039.34,401.2 2033.74,392.1 2026.64,379.2C2026.34,378.7 2026.19,378.1 2026.19,377.4C2026.19,376.7 2026.49,375.95 2027.09,375.15C2028.49,373.05 2030.19,372 2032.19,372C2033.69,372 2037.34,377.05 2043.14,387.15C2045.74,391.65 2047.69,394.85 2048.99,396.75C2050.69,394.25 2052.59,391.325 2054.69,387.975C2056.79,384.625 2058.34,382.15 2059.34,380.55C2062.34,375.85 2064.64,373.05 2066.24,372.15C2066.94,371.65 2067.59,371.4 2068.19,371.4Z" style="fill:rgb(35,31,32);fill-rule:nonzero;stroke:rgb(35,31,32);stroke-width:4.17px;stroke-linecap:butt;stroke-miterlimit:1.41421;"/>
                <path d="M2114.39,372.6C2121.79,372.6 2127.76,375.45 2132.31,381.15C2136.86,386.85 2139.14,394.65 2139.14,404.55C2139.14,414.45 2136.64,423 2131.64,430.2C2126.64,437.4 2120.29,441 2112.59,441C2104.19,441 2097.34,437.4 2092.04,430.2C2086.74,423 2084.09,414.2 2084.09,403.8C2084.09,393.4 2086.84,385.6 2092.34,380.4C2097.84,375.2 2105.19,372.6 2114.39,372.6ZM2128.34,406.2C2128.34,398.2 2127.19,392.325 2124.89,388.575C2122.59,384.825 2118.54,382.95 2112.74,382.95C2106.94,382.95 2102.44,384.725 2099.24,388.275C2096.04,391.825 2094.44,396.875 2094.44,403.425C2094.44,409.975 2096.14,416.05 2099.54,421.65C2102.94,427.25 2107.64,430.05 2113.64,430.05C2117.04,430.05 2119.94,428.6 2122.34,425.7C2126.34,420.7 2128.34,414.2 2128.34,406.2Z" style="fill:rgb(35,31,32);fill-rule:nonzero;stroke:rgb(35,31,32);stroke-width:4.17px;stroke-linecap:butt;stroke-miterlimit:1.41421;"/>
                <path d="M2195.09,378C2194.99,377.6 2194.94,376.95 2194.94,376.05C2194.94,375.15 2195.56,374.2 2196.81,373.2C2198.06,372.2 2199.34,371.7 2200.64,371.7C2201.94,371.7 2203.11,372.1 2204.16,372.9C2205.21,373.7 2205.79,374.6 2205.89,375.6C2206.89,385.7 2207.39,393.65 2207.39,399.45C2207.39,405.25 2207.24,409.75 2206.94,412.95C2206.24,422.65 2203.81,429.775 2199.66,434.325C2195.51,438.875 2189.14,441.15 2180.54,441.15C2174.24,441.15 2168.99,439.325 2164.79,435.675C2160.59,432.025 2157.64,427.25 2155.94,421.35C2153.34,412.45 2152.04,402.55 2152.04,391.65C2152.04,386.95 2152.29,382.2 2152.79,377.4C2152.89,376 2153.66,374.85 2155.11,373.95C2156.56,373.05 2157.91,372.6 2159.16,372.6C2160.41,372.6 2161.44,373 2162.24,373.8C2163.04,374.6 2163.39,375.65 2163.29,376.95C2162.79,382.15 2162.54,386.825 2162.54,390.975C2162.54,395.125 2162.64,398.85 2162.84,402.15C2163.44,410.15 2165.29,416.975 2168.39,422.625C2171.49,428.275 2175.54,431.1 2180.54,431.1C2191.44,431.1 2196.89,421.8 2196.89,403.2C2196.89,392.1 2196.29,383.7 2195.09,378Z" style="fill:rgb(35,31,32);fill-rule:nonzero;stroke:rgb(35,31,32);stroke-width:4.17px;stroke-linecap:butt;stroke-miterlimit:1.41421;"/>
                <path d="M2231.09,435.6C2231.09,437.1 2230.39,438.4 2228.99,439.5C2227.59,440.6 2226.04,441.15 2224.34,441.15C2222.14,441.15 2221.04,440.15 2221.04,438.15C2220.64,433.45 2220.44,414.8 2220.44,382.2C2220.44,379 2222.36,376.5 2226.21,374.7C2230.06,372.9 2235.21,372 2241.66,372C2248.11,372 2253.76,373.6 2258.61,376.8C2263.46,380 2265.89,383.85 2265.89,388.35C2265.89,390.55 2264.94,393 2263.04,395.7C2261.14,398.4 2259.11,400.525 2256.96,402.075C2254.81,403.625 2251.74,405.5 2247.74,407.7C2243.74,409.9 2241.29,411.1 2240.39,411.3C2246.69,415.3 2252.29,419.65 2257.19,424.35C2262.09,429.05 2264.54,432.75 2264.54,435.45C2264.54,438.15 2263.34,439.9 2260.94,440.7C2260.24,440.9 2259.34,441 2258.24,441C2257.14,441 2255.74,439.925 2254.04,437.775C2252.34,435.625 2249.14,432.525 2244.44,428.475C2239.74,424.425 2235.09,420.8 2230.49,417.6C2230.69,425.6 2230.89,431.55 2231.09,435.45L2231.09,435.6ZM2230.49,404.25C2233.79,404.25 2238.74,402.625 2245.34,399.375C2251.94,396.125 2255.39,393.1 2255.69,390.3C2255.69,387.6 2254.19,385.575 2251.19,384.225C2248.19,382.875 2245.04,382.2 2241.74,382.2C2237.94,382.2 2234.24,382.65 2230.64,383.55C2230.54,388.35 2230.49,395.25 2230.49,404.25Z" style="fill:rgb(35,31,32);fill-rule:nonzero;stroke:rgb(35,31,32);stroke-width:4.17px;stroke-linecap:butt;stroke-miterlimit:1.41421;"/>
                <path d="M2361.89,384.75L2349.74,383.25C2333.54,383.25 2325.44,391.35 2325.44,407.55C2325.44,415.75 2327.89,422.25 2332.79,427.05C2335.19,429.55 2337.69,430.8 2340.29,430.8C2342.89,430.8 2347.44,429.65 2353.94,427.35C2360.44,425.05 2363.94,423.9 2364.44,423.9C2367.14,423.9 2368.49,425.15 2368.49,427.65C2368.49,429.75 2367.34,431.55 2365.04,433.05C2352.54,438.35 2343.49,441 2337.89,441C2334.49,441 2331.14,439.9 2327.84,437.7C2324.54,435.5 2321.94,432.65 2320.04,429.15C2316.14,422.25 2314.19,414.85 2314.19,406.95C2314.19,396.35 2317.39,387.95 2323.79,381.75C2330.19,375.55 2338.39,372.45 2348.39,372.45C2354.19,372.45 2359.94,373.4 2365.64,375.3L2365.64,375.45C2367.44,376.55 2368.34,377.8 2368.34,379.2C2368.34,380.6 2367.61,381.875 2366.16,383.025C2364.71,384.175 2363.29,384.75 2361.89,384.75Z" style="fill:rgb(35,31,32);fill-rule:nonzero;stroke:rgb(35,31,32);stroke-width:4.17px;stroke-linecap:butt;stroke-miterlimit:1.41421;"/>
                <path d="M2399.54,441.3L2385.29,441.15C2382.79,441.15 2381.39,440.4 2381.09,438.9C2380.49,434.7 2380.19,428.15 2380.19,419.25L2381.24,375.75C2381.24,373.25 2383.14,372 2386.94,372C2388.84,372 2390.39,372.45 2391.59,373.35C2392.79,374.25 2393.39,375.5 2393.39,377.1C2393.19,381.3 2392.64,387.1 2391.74,394.5C2390.64,404.2 2390.09,411.275 2390.09,415.725C2390.09,420.175 2390.24,425.5 2390.54,431.7L2412.74,430.35C2416.04,430.35 2417.69,432.05 2417.69,435.45C2417.69,438.25 2416.64,439.85 2414.54,440.25C2410.04,440.95 2405.04,441.3 2399.54,441.3Z" style="fill:rgb(35,31,32);fill-rule:nonzero;stroke:rgb(35,31,32);stroke-width:4.17px;stroke-linecap:butt;stroke-miterlimit:1.41421;"/>
                <path d="M2456.39,372.6C2463.79,372.6 2469.76,375.45 2474.31,381.15C2478.86,386.85 2481.14,394.65 2481.14,404.55C2481.14,414.45 2478.64,423 2473.64,430.2C2468.64,437.4 2462.29,441 2454.59,441C2446.19,441 2439.34,437.4 2434.04,430.2C2428.74,423 2426.09,414.2 2426.09,403.8C2426.09,393.4 2428.84,385.6 2434.34,380.4C2439.84,375.2 2447.19,372.6 2456.39,372.6ZM2470.34,406.2C2470.34,398.2 2469.19,392.325 2466.89,388.575C2464.59,384.825 2460.54,382.95 2454.74,382.95C2448.94,382.95 2444.44,384.725 2441.24,388.275C2438.04,391.825 2436.44,396.875 2436.44,403.425C2436.44,409.975 2438.14,416.05 2441.54,421.65C2444.94,427.25 2449.64,430.05 2455.64,430.05C2459.04,430.05 2461.94,428.6 2464.34,425.7C2468.34,420.7 2470.34,414.2 2470.34,406.2Z" style="fill:rgb(35,31,32);fill-rule:nonzero;stroke:rgb(35,31,32);stroke-width:4.17px;stroke-linecap:butt;stroke-miterlimit:1.41421;"/>
                <path d="M2524.34,381L2524.04,416.55C2524.04,423.95 2524.14,430.45 2524.34,436.05C2524.44,437.55 2523.81,438.775 2522.46,439.725C2521.11,440.675 2519.74,441.15 2518.34,441.15C2515.74,441.15 2514.44,439.75 2514.44,436.95C2514.14,426.05 2513.99,415.675 2513.99,405.825C2513.99,395.975 2514.29,387.85 2514.89,381.45C2508.89,381.95 2502.79,382.2 2496.59,382.2C2493.49,382.2 2491.94,380.9 2491.94,378.3C2491.94,377.1 2492.51,375.9 2493.66,374.7C2494.81,373.5 2496.09,372.85 2497.49,372.75L2544.29,371.25C2546.99,371.85 2548.34,373.15 2548.34,375.15C2548.34,379.25 2543.64,381.3 2534.24,381.3L2524.34,381Z" style="fill:rgb(35,31,32);fill-rule:nonzero;stroke:rgb(35,31,32);stroke-width:4.17px;stroke-linecap:butt;stroke-miterlimit:1.41421;"/>
                <path d="M2603.09,410.55L2602.94,432.75C2602.94,438.35 2601.14,441.15 2597.54,441.15C2595.84,441.15 2594.56,440.8 2593.71,440.1C2592.86,439.4 2592.49,438.3 2592.59,436.8C2592.99,431.5 2593.19,423.05 2593.19,411.45C2591.49,411.65 2588.86,411.75 2585.31,411.75C2581.76,411.75 2576.24,411.35 2568.74,410.55L2568.74,413.7C2568.74,415.8 2569.14,423.4 2569.94,436.5C2570.04,438.1 2569.46,439.275 2568.21,440.025C2566.96,440.775 2565.69,441.15 2564.39,441.15C2563.09,441.15 2562.06,440.775 2561.31,440.025C2560.56,439.275 2560.14,438.4 2560.04,437.4C2558.94,427 2558.39,419.125 2558.39,413.775C2558.39,408.425 2558.44,404.8 2558.54,402.9L2559.14,377.85C2559.24,376.65 2559.91,375.625 2561.16,374.775C2562.41,373.925 2563.74,373.5 2565.14,373.5C2567.74,373.5 2569.04,374.6 2569.04,376.8L2568.74,400.35C2573.74,401.15 2578.09,401.55 2581.79,401.55L2593.19,401.55C2592.89,396.05 2592.74,387.75 2592.74,376.65C2592.74,375.25 2593.41,374.1 2594.76,373.2C2596.11,372.3 2597.56,371.85 2599.11,371.85C2600.66,371.85 2601.74,372.55 2602.34,373.95C2602.94,375.35 2603.19,376.7 2603.09,378L2603.09,410.55Z" style="fill:rgb(35,31,32);fill-rule:nonzero;stroke:rgb(35,31,32);stroke-width:4.17px;stroke-linecap:butt;stroke-miterlimit:1.41421;"/>
                <path d="M2627.99,407.4L2628.29,427.05C2628.29,429.65 2628.24,431.05 2628.14,431.25L2654.09,430.8C2656.99,431.1 2658.44,432.35 2658.44,434.55C2658.44,438.75 2656.49,440.85 2652.59,440.85L2623.19,441.15C2621.39,441.15 2620.06,440.525 2619.21,439.275C2618.36,438.025 2617.89,436.7 2617.79,435.3C2617.69,433.9 2617.64,432.35 2617.64,430.65L2617.64,405.75C2616.34,405.05 2615.69,404 2615.69,402.6C2615.69,401.2 2616.24,399.95 2617.34,398.85C2617.04,391.05 2616.89,383.95 2616.89,377.55C2616.89,373.85 2619.14,371.95 2623.64,371.85C2624.84,371.85 2626.24,371.85 2627.84,371.85L2654.09,372.3L2654.24,372.3C2657.44,372.7 2659.04,374.2 2659.04,376.8C2659.04,378.8 2658.44,380.15 2657.24,380.85C2654.64,382.25 2648.39,382.95 2638.49,382.95C2634.79,382.95 2631.09,382.8 2627.39,382.5C2627.39,391.5 2627.44,396.55 2627.54,397.65C2631.44,397.75 2639.09,397.8 2650.49,397.8C2653.59,398.2 2655.14,399.6 2655.14,402C2655.14,403.2 2654.64,404.35 2653.64,405.45C2652.64,406.55 2651.56,407.175 2650.41,407.325C2649.26,407.475 2646.81,407.55 2643.06,407.55C2639.31,407.55 2634.29,407.5 2627.99,407.4Z" style="fill:rgb(35,31,32);fill-rule:nonzero;stroke:rgb(35,31,32);stroke-width:4.17px;stroke-linecap:butt;stroke-miterlimit:1.41421;"/>
                <path d="M2672.84,388.8C2672.84,384.1 2675.24,380.075 2680.04,376.725C2684.84,373.375 2690.71,371.7 2697.66,371.7C2704.61,371.7 2709.89,372.6 2713.49,374.4C2717.09,376.2 2718.89,378.5 2718.89,381.3C2718.89,382.6 2718.46,383.675 2717.61,384.525C2716.76,385.375 2715.74,385.8 2714.54,385.8C2713.34,385.8 2710.96,385 2707.41,383.4C2703.86,381.8 2700.66,381 2697.81,381C2694.96,381 2691.96,381.775 2688.81,383.325C2685.66,384.875 2684.09,386.8 2684.09,389.1C2684.09,391.4 2685.99,393.45 2689.79,395.25C2693.59,397.05 2698.09,398.6 2703.29,399.9C2708.49,401.2 2711.96,402.475 2713.71,403.725C2715.46,404.975 2716.71,405.975 2717.46,406.725C2718.21,407.475 2718.99,408.925 2719.79,411.075C2720.59,413.225 2720.99,416 2720.99,419.4C2720.99,426.7 2718.61,432.125 2713.86,435.675C2709.11,439.225 2703.46,441 2696.91,441C2690.36,441 2684.74,439.95 2680.04,437.85C2675.34,435.75 2672.99,433.15 2672.99,430.05C2672.99,428.45 2673.66,427.025 2675.01,425.775C2676.36,424.525 2677.79,424.2 2679.29,424.8C2688.69,428.5 2694.59,430.35 2696.99,430.35C2701.29,430.35 2704.59,429.275 2706.89,427.125C2709.19,424.975 2710.34,422.25 2710.34,418.95C2710.34,415.65 2709.04,413.125 2706.44,411.375C2703.84,409.625 2700.71,408.35 2697.06,407.55C2693.41,406.75 2689.76,405.85 2686.11,404.85C2682.46,403.85 2679.34,402.1 2676.74,399.6C2674.14,397.1 2672.84,393.5 2672.84,388.8Z" style="fill:rgb(35,31,32);fill-rule:nonzero;stroke:rgb(35,31,32);stroke-width:4.17px;stroke-linecap:butt;stroke-miterlimit:1.41421;"/>
                <path d="M2742.89,423.15C2745.09,423.15 2746.99,423.95 2748.59,425.55C2750.19,427.15 2751.14,429.35 2751.44,432.15C2751.44,434.35 2750.64,436.375 2749.04,438.225C2747.44,440.075 2745.56,441 2743.41,441C2741.26,441 2739.34,440.425 2737.64,439.275C2735.94,438.125 2735.09,436.35 2735.09,433.95C2735.09,431.55 2735.86,429.15 2737.41,426.75C2738.96,424.35 2740.79,423.15 2742.89,423.15Z" style="fill:rgb(35,31,32);fill-rule:nonzero;stroke:rgb(35,31,32);stroke-width:4.17px;stroke-linecap:butt;stroke-miterlimit:1.41421;"/>
                <path d="M2774.99,423.15C2777.19,423.15 2779.09,423.95 2780.69,425.55C2782.29,427.15 2783.24,429.35 2783.54,432.15C2783.54,434.35 2782.74,436.375 2781.14,438.225C2779.54,440.075 2777.66,441 2775.51,441C2773.36,441 2771.44,440.425 2769.74,439.275C2768.04,438.125 2767.19,436.35 2767.19,433.95C2767.19,431.55 2767.96,429.15 2769.51,426.75C2771.06,424.35 2772.89,423.15 2774.99,423.15Z" style="fill:rgb(35,31,32);fill-rule:nonzero;stroke:rgb(35,31,32);stroke-width:4.17px;stroke-linecap:butt;stroke-miterlimit:1.41421;"/>
                <path d="M2807.09,423.15C2809.29,423.15 2811.19,423.95 2812.79,425.55C2814.39,427.15 2815.34,429.35 2815.64,432.15C2815.64,434.35 2814.84,436.375 2813.24,438.225C2811.64,440.075 2809.76,441 2807.61,441C2805.46,441 2803.54,440.425 2801.84,439.275C2800.14,438.125 2799.29,436.35 2799.29,433.95C2799.29,431.55 2800.06,429.15 2801.61,426.75C2803.16,424.35 2804.99,423.15 2807.09,423.15Z" style="fill:rgb(35,31,32);fill-rule:nonzero;stroke:rgb(35,31,32);stroke-width:4.17px;stroke-linecap:butt;stroke-miterlimit:1.41421;"/>
            </g>
        </g>
        <g transform="matrix(1,0,0,1,66.7528,186.709)">
            <circle cx="1609.59" cy="330.426" r="27.642" style="fill:rgb(35,31,32);stroke:rgb(35,31,32);stroke-width:20.83px;"/>
        </g>
        <g transform="matrix(1,0,0,1,-49.9549,131.425)">
            <path d="M1753.94,385.709L1753.94,277.13" style="fill:none;stroke:rgb(35,31,32);stroke-width:20.83px;"/>
        </g>
        <g transform="matrix(1,0,0,1,-5.75686,176.292)">
            <path d="M1709.74,232.262L1753.94,232.262" style="fill:none;stroke:rgb(35,31,32);stroke-width:20.83px;"/>
        </g>
        <g transform="matrix(1,0,0,1,1125.52,566.646)">
            <circle cx="1609.59" cy="330.426" r="27.642" style="fill:rgb(35,31,32);stroke:rgb(35,31,32);stroke-width:20.83px;"/>
        </g>
        <g transform="matrix(1,0,0,1,634.337,571.439)">
            <circle cx="1609.59" cy="330.426" r="27.642" style="fill:rgb(35,31,32);stroke:rgb(35,31,32);stroke-width:20.83px;"/>
        </g>
        <g transform="matrix(1,0,0,1,1008.82,511.363)">
            <path d="M1753.94,385.709L1753.94,277.13" style="fill:none;stroke:rgb(35,31,32);stroke-width:20.83px;"/>
        </g>
        <g transform="matrix(1,0,0,1,517.63,516.155)">
            <path d="M1753.94,385.709L1753.94,277.13" style="fill:none;stroke:rgb(35,31,32);stroke-width:20.83px;"/>
        </g>
        <g transform="matrix(1,0,0,1,1053.02,556.23)">
            <path d="M1709.74,232.262L1753.94,232.262" style="fill:none;stroke:rgb(35,31,32);stroke-width:20.83px;"/>
        </g>
        <g transform="matrix(1,0,0,1,561.828,561.022)">
            <path d="M1709.74,232.262L1753.94,232.262" style="fill:none;stroke:rgb(35,31,32);stroke-width:20.83px;"/>
        </g>
        <g transform="matrix(1,0,0,1,1081.33,181.174)">
            <circle cx="1609.59" cy="330.426" r="27.642" style="fill:rgb(35,31,32);stroke:rgb(35,31,32);stroke-width:20.83px;"/>
        </g>
        <g transform="matrix(1,0,0,1,502.911,-28.1795)">
            <circle cx="1609.59" cy="330.426" r="27.642" style="fill:rgb(35,31,32);stroke:rgb(35,31,32);stroke-width:20.83px;"/>
        </g>
        <g transform="matrix(1,0,0,1,964.619,125.891)">
            <path d="M1753.94,385.709L1753.94,277.13" style="fill:none;stroke:rgb(35,31,32);stroke-width:20.83px;"/>
        </g>
        <g transform="matrix(1,0,0,1,386.203,-83.4631)">
            <path d="M1753.94,385.709L1753.94,277.13" style="fill:none;stroke:rgb(35,31,32);stroke-width:20.83px;"/>
        </g>
        <g transform="matrix(1,0,0,1,1008.82,170.758)">
            <path d="M1709.74,232.262L1753.94,232.262" style="fill:none;stroke:rgb(35,31,32);stroke-width:20.83px;"/>
        </g>
        <g transform="matrix(1,0,0,1,430.401,-38.5959)">
            <path d="M1709.74,232.262L1753.94,232.262" style="fill:none;stroke:rgb(35,31,32);stroke-width:20.83px;"/>
        </g>
        <g transform="matrix(1,0,0,1,1180.81,153.532)">
            <circle cx="1609.59" cy="330.426" r="27.642" style="fill:rgb(35,31,32);stroke:rgb(35,31,32);stroke-width:20.83px;"/>
        </g>
        <g transform="matrix(1,0,0,1,602.393,-55.8213)">
            <circle cx="1609.59" cy="330.426" r="27.642" style="fill:rgb(35,31,32);stroke:rgb(35,31,32);stroke-width:20.83px;"/>
        </g>
        <g transform="matrix(1,0,0,1,1064.1,98.2488)">
            <path d="M1753.94,385.709L1753.94,277.13" style="fill:none;stroke:rgb(35,31,32);stroke-width:20.83px;"/>
        </g>
        <g transform="matrix(1,0,0,1,485.685,-111.105)">
            <path d="M1753.94,385.709L1753.94,277.13" style="fill:none;stroke:rgb(35,31,32);stroke-width:20.83px;"/>
        </g>
        <g transform="matrix(1,0,0,1,1108.3,143.116)">
            <path d="M1709.74,232.262L1753.94,232.262" style="fill:none;stroke:rgb(35,31,32);stroke-width:20.83px;"/>
        </g>
        <g transform="matrix(1,0,0,1,529.883,-66.2377)">
            <path d="M1709.74,232.262L1753.94,232.262" style="fill:none;stroke:rgb(35,31,32);stroke-width:20.83px;"/>
        </g>
        <path d="M1301.96,2053.46C1272.21,2053.46 1171.4,2192.85 1188.19,2226.43C1191.85,2233.75 1222.34,2241.12 1231.68,2242.67C1272.94,2249.5 1336.65,2253.73 1349.24,2218.81C1356.45,2198.78 1393.91,2093.23 1381.26,2067.93C1372.51,2050.45 1321.27,2050.3 1304.26,2050.3" style="fill:white;stroke:rgb(35,31,32);stroke-width:20.83px;"/>
        <g transform="matrix(-1,0,0,1,3494.8,-1.77636e-15)">
            <path d="M1301.96,2053.46C1272.21,2053.46 1171.4,2192.85 1188.19,2226.43C1191.85,2233.75 1222.34,2241.12 1231.68,2242.67C1272.94,2249.5 1336.65,2253.73 1349.24,2218.81C1356.45,2198.78 1393.91,2093.23 1381.26,2067.93C1372.51,2050.45 1321.27,2050.3 1304.26,2050.3" style="fill:white;stroke:rgb(35,31,32);stroke-width:20.83px;"/>
        </g>
        <circle cx="1219.04" cy="937.461" r="35.596" style="fill:rgb(225,244,253);stroke:rgb(35,31,32);stroke-width:20.83px;"/>
        <g transform="matrix(1,0,0,1,1467.81,253.776)">
            <circle cx="1219.04" cy="937.461" r="35.596" style="fill:rgb(225,244,253);stroke:rgb(35,31,32);stroke-width:20.83px;"/>
        </g>
        <g transform="matrix(1,0,0,1,-33.0426,-373.825)">
            <circle cx="1219.04" cy="937.461" r="35.596" style="fill:rgb(225,244,253);stroke:rgb(35,31,32);stroke-width:20.83px;"/>
        </g>
        <g transform="matrix(1.69082,0,0,1.69082,-662.527,-851.98)">
            <circle cx="1219.04" cy="937.461" r="35.596" style="fill:rgb(225,244,253);stroke:rgb(35,31,32);stroke-width:12.32px;"/>
        </g>
        <g transform="matrix(1.69082,0,0,1.69082,-1155.24,-438.332)">
            <circle cx="1219.04" cy="937.461" r="35.596" style="fill:rgb(225,244,253);stroke:rgb(35,31,32);stroke-width:12.32px;"/>
        </g>
        <g transform="matrix(1,0,0,1,716.725,-63.1582)">
            <g transform="matrix(1,0,0,1,-521.2,263.908)">
                <path d="M1763.94,1002.5C1763.94,1002.5 1693.08,1081.42 1656.92,1078.17C1582.45,1071.47 1537.25,1013.33 1537.25,1013.33C1537.25,1013.33 1405.38,860.461 1537.25,819.164C1537.25,819.164 1632.09,789.466 1656.92,888.65C1656.92,888.65 1658.41,816.839 1753.94,819.164C1753.94,819.164 1899.7,825.61 1763.94,1002.5" style="fill:white;stroke:rgb(35,31,32);stroke-width:20.83px;"/>
            </g>
            <g transform="matrix(0.7957,0,0,0.7957,-178.702,465.824)">
                <circle cx="1576.42" cy="927.586" r="25.976" style="fill:rgb(35,31,32);stroke:rgb(35,31,32);stroke-width:39.27px;"/>
            </g>
            <g transform="matrix(0.7957,0,0,0.7957,-58.6973,465.824)">
                <circle cx="1576.42" cy="927.586" r="25.976" style="fill:rgb(35,31,32);stroke:rgb(35,31,32);stroke-width:39.27px;"/>
            </g>
        </g>
    </g>
</svg>
