<?xml version="1.0" encoding="UTF-8" standalone="no"?>
<!DOCTYPE svg PUBLIC "-//W3C//DTD SVG 1.1//EN" "http://www.w3.org/Graphics/SVG/1.1/DTD/svg11.dtd">
<svg width="100%" height="100%" viewBox="0 0 2821 1655" version="1.1" xmlns="http://www.w3.org/2000/svg" xmlns:xlink="http://www.w3.org/1999/xlink" xml:space="preserve" xmlns:serif="http://www.serif.com/" style="fill-rule:evenodd;clip-rule:evenodd;stroke-linecap:round;stroke-linejoin:round;stroke-miterlimit:1.5;">
    <g transform="matrix(1,0,0,1,-307.901,-316.048)">
        <g transform="matrix(1,0,0,0.778601,-192.913,-98.6562)">
            <rect x="2507.95" y="1466.55" width="625.662" height="60.678" style="fill:white;stroke:rgb(35,31,32);stroke-width:23.25px;"/>
        </g>
        <g transform="matrix(1,0,0,0.778601,-192.913,-433.018)">
            <rect x="2507.95" y="1466.55" width="625.662" height="60.678" style="fill:white;stroke:rgb(35,31,32);stroke-width:23.25px;"/>
        </g>
        <g transform="matrix(1,0,0,0.778601,-192.913,-144.444)">
            <rect x="2507.95" y="1466.55" width="625.662" height="60.678" style="fill:white;stroke:rgb(35,31,32);stroke-width:23.25px;"/>
        </g>
        <g transform="matrix(1,0,0,0.778601,-192.913,-478.806)">
            <rect x="2507.95" y="1466.55" width="625.662" height="60.678" style="fill:white;stroke:rgb(35,31,32);stroke-width:23.25px;"/>
        </g>
        <g transform="matrix(1,0,0,0.778601,-200.836,-192.17)">
            <rect x="2507.95" y="1466.55" width="625.662" height="60.678" style="fill:white;stroke:rgb(35,31,32);stroke-width:23.25px;"/>
        </g>
        <g transform="matrix(1,0,0,0.778601,-200.836,-526.532)">
            <rect x="2507.95" y="1466.55" width="625.662" height="60.678" style="fill:white;stroke:rgb(35,31,32);stroke-width:23.25px;"/>
        </g>
        <g transform="matrix(1,0,0,0.778601,-203.822,-195.156)">
            <rect x="2507.95" y="1466.55" width="625.662" height="60.678" style="fill:white;stroke:rgb(35,31,32);stroke-width:23.25px;"/>
        </g>
        <g transform="matrix(1,0,0,0.778601,-203.822,-529.518)">
            <rect x="2507.95" y="1466.55" width="625.662" height="60.678" style="fill:white;stroke:rgb(35,31,32);stroke-width:23.25px;"/>
        </g>
        <g transform="matrix(1,0,0,0.778601,-203.822,-249.312)">
            <rect x="2507.95" y="1466.55" width="625.662" height="60.678" style="fill:white;stroke:rgb(35,31,32);stroke-width:23.25px;"/>
        </g>
        <g transform="matrix(1,0,0,0.778601,-203.822,-583.674)">
            <rect x="2507.95" y="1466.55" width="625.662" height="60.678" style="fill:white;stroke:rgb(35,31,32);stroke-width:23.25px;"/>
        </g>
        <g transform="matrix(1,0,0,0.778601,-203.822,-296.292)">
            <rect x="2507.95" y="1466.55" width="625.662" height="60.678" style="fill:white;stroke:rgb(35,31,32);stroke-width:23.25px;"/>
        </g>
        <g transform="matrix(1,0,0,0.778601,-203.822,-630.654)">
            <rect x="2507.95" y="1466.55" width="625.662" height="60.678" style="fill:white;stroke:rgb(35,31,32);stroke-width:23.25px;"/>
        </g>
        <g transform="matrix(1,0,0,0.778601,-203.822,-341.075)">
            <rect x="2507.95" y="1466.55" width="625.662" height="60.678" style="fill:white;stroke:rgb(35,31,32);stroke-width:23.25px;"/>
        </g>
        <g transform="matrix(1,0,0,0.778601,-203.822,-675.437)">
            <rect x="2507.95" y="1466.55" width="625.662" height="60.678" style="fill:white;stroke:rgb(35,31,32);stroke-width:23.25px;"/>
        </g>
        <g transform="matrix(1,0,0,0.778601,-203.822,-384.768)">
            <rect x="2507.95" y="1466.55" width="625.662" height="60.678" style="fill:white;stroke:rgb(35,31,32);stroke-width:23.25px;"/>
        </g>
        <g transform="matrix(1,0,0,0.778601,-203.822,-719.13)">
            <rect x="2507.95" y="1466.55" width="625.662" height="60.678" style="fill:white;stroke:rgb(35,31,32);stroke-width:23.25px;"/>
        </g>
        <g transform="matrix(0.909085,-0.41661,0.41661,0.909085,-586.134,151.713)">
            <rect x="301.173" y="1513.79" width="529.636" height="375.67" style="fill:white;stroke:rgb(35,31,32);stroke-width:20.83px;"/>
        </g>
        <g transform="matrix(0.941778,-0.344655,0.432605,1.05974,-798.545,251.559)">
            <rect x="728.869" y="1333.03" width="31.201" height="202.21" style="fill:rgb(167,169,172);"/>
        </g>
        <g transform="matrix(0.941778,-0.344655,0.432605,1.05974,-749.27,226.557)">
            <rect x="728.869" y="1333.03" width="31.201" height="202.21" style="fill:rgb(167,169,172);"/>
        </g>
        <path d="M405.87,1455.17C410.906,1455.17 427.451,1446.64 431.043,1453.82C434.869,1461.48 418.632,1464.97 414.293,1466.04C411.44,1466.75 402.562,1466.74 405.502,1466.74C423.076,1466.74 439.709,1488.66 446.353,1502.05C447.218,1503.79 457.019,1612.9 479.045,1612.9" style="fill:none;stroke:rgb(35,31,32);stroke-width:20.83px;"/>
        <g transform="matrix(0.944478,0.328576,-0.328576,0.944478,767.219,-375.743)">
            <rect x="301.173" y="1513.79" width="529.636" height="375.67" style="fill:white;stroke:rgb(35,31,32);stroke-width:20.83px;"/>
        </g>
        <g transform="matrix(0.944478,0.328576,-0.328576,0.944478,735.805,-672.363)">
            <rect x="301.173" y="1513.79" width="529.636" height="375.67" style="fill:white;stroke:rgb(35,31,32);stroke-width:20.83px;"/>
        </g>
        <g transform="matrix(0.984749,0.17398,-0.17398,0.984749,1123.86,-653.39)">
            <rect x="301.173" y="1513.79" width="529.636" height="375.67" style="fill:white;stroke:rgb(35,31,32);stroke-width:20.83px;"/>
        </g>
        <g transform="matrix(0.937729,-0.232243,0.240402,0.970673,610.945,-23.1793)">
            <rect x="301.173" y="1513.79" width="529.636" height="375.67" style="fill:white;stroke:rgb(35,31,32);stroke-width:21.19px;"/>
        </g>
        <g transform="matrix(0.953316,0.311325,-0.315123,1.10041,287.004,-746.919)">
            <rect x="728.869" y="1333.03" width="31.201" height="202.21" style="fill:rgb(167,169,172);"/>
        </g>
        <g transform="matrix(0.972592,0.244535,-0.238134,1.11959,1100.6,-681.456)">
            <rect x="728.869" y="1333.03" width="31.201" height="202.21" style="fill:rgb(167,169,172);"/>
        </g>
        <g transform="matrix(0.363971,-0.934483,1.08113,0.375961,-1200.67,1632.35)">
            <rect x="728.869" y="1333.03" width="31.201" height="202.21" style="fill:rgb(167,169,172);"/>
        </g>
        <g transform="matrix(0.953316,0.311325,-0.315123,1.10041,339.16,-730.041)">
            <rect x="728.869" y="1333.03" width="31.201" height="202.21" style="fill:rgb(167,169,172);"/>
        </g>
        <g transform="matrix(1,0,0,1,229.465,-233.819)">
            <g transform="matrix(1,0,0,1,-160.937,301.008)">
                <path d="M2337.37,951.254C2492.44,804.758 2710.73,819.906 2710.64,819.802C2710.58,819.736 2537.68,1014.19 2537.68,1041.65" style="fill:rgb(186,202,211);stroke:rgb(35,31,32);stroke-width:20.83px;"/>
            </g>
            <g transform="matrix(1,0,0,1,-160.937,301.008)">
                <path d="M1990.58,1065.4L1999.23,1135.76L2028.89,1103.04L2032.67,1155.01L2070.62,1119.06L2094.41,1155.01L2125.06,1135.76" style="fill:white;stroke:rgb(35,31,32);stroke-width:12.5px;"/>
            </g>
            <g transform="matrix(1,0,0,1,-160.937,301.008)">
                <path d="M2025,1217.37L2010.81,1148.57L2053.12,1186.24L2057.63,1144.89L2094.41,1164.78" style="fill:white;stroke:rgb(35,31,32);stroke-width:12.5px;"/>
            </g>
            <g transform="matrix(1,0,0,1,-160.937,301.008)">
                <path d="M2063.65,706.31C2003.87,706.31 1982,985.255 1995.09,1066.1C1995.24,1067.02 2129.36,1128.91 2129.36,1128.91C2129.36,1128.91 2104.91,1179.02 2030.61,1211.98C2007.35,1222.3 2231.57,1395.27 2323.09,1395.27" style="fill:white;stroke:rgb(35,31,32);stroke-width:20.83px;"/>
            </g>
            <g transform="matrix(1,0,0,1,-160.937,301.008)">
                <path d="M2525.86,1415.31C2772.98,1436.45 2889.75,1289.1 2889.7,1289.64L2484.18,1251.8" style="fill:white;stroke:rgb(35,31,32);stroke-width:20.83px;"/>
            </g>
            <g transform="matrix(1,0,0,1,-160.937,301.008)">
                <path d="M2063.65,706.31C2063.65,706.31 2171.94,841.436 2238.17,887.918C2560.75,1114.33 2893.2,1112.75 2893.2,1112.75C2932.47,985.236 3049.9,945.769 3049.27,949.149C2994.07,1245.65 3050.65,1428.74 3049.27,1428.27C2919.6,1384.73 2893.8,1281.31 2893.2,1281.43C2679.6,1325.88 2498.19,1284.8 2498.24,1286.43C2503.52,1446.05 2575.74,1595.69 2571.67,1595C2308.24,1550.52 2274.61,1238.48 2274.61,1240.3C2274.61,1240.81 2019.29,1071.39 2063.65,706.31Z" style="fill:rgb(186,202,211);stroke:rgb(35,31,32);stroke-width:20.83px;"/>
            </g>
            <g transform="matrix(1,0,0,1,-160.937,301.008)">
                <path d="M2167.18,839.763C2167.71,842.131 2109.74,908.734 2197.43,975.375C2271.65,1031.78 2330.79,959.504 2330.79,956.657" style="fill:white;stroke:rgb(35,31,32);stroke-width:20.83px;"/>
            </g>
            <g transform="matrix(1,0,0,1,-159.937,289.008)">
                <path d="M2204.38,877.697C2204.38,878.876 2174.59,922.199 2217.89,951.149C2265.35,982.872 2293.64,942.215 2293.74,942.203" style="fill:rgb(35,31,32);stroke:rgb(35,31,32);stroke-width:20.83px;"/>
            </g>
        </g>
        <g transform="matrix(0.953316,0.311325,-0.315123,1.10041,393.347,-719.23)">
            <rect x="728.869" y="1333.03" width="31.201" height="202.21" style="fill:rgb(167,169,172);"/>
        </g>
        <g transform="matrix(0.972592,0.244535,-0.238134,1.11959,1153.8,-668.232)">
            <rect x="728.869" y="1333.03" width="31.201" height="202.21" style="fill:rgb(167,169,172);"/>
        </g>
        <g transform="matrix(0.363971,-0.934483,1.08113,0.375961,-1180.91,1581.22)">
            <rect x="728.869" y="1333.03" width="31.201" height="202.21" style="fill:rgb(167,169,172);"/>
        </g>
        <g transform="matrix(0.914761,-0.403995,0.486715,1.10207,-630.184,-128.344)">
            <path d="M717.095,1580.2C717.095,1580.2 1002.57,1558.49 1097.82,1558.49C1099.02,1558.49 1106.75,1304.76 1062.65,1282.72C1053.18,1277.98 671.856,1266.59 671.311,1266.86C668.977,1268.01 643.834,1475.52 717.095,1580.2Z" style="fill:white;stroke:rgb(35,31,32);stroke-width:18.82px;"/>
        </g>
        <g transform="matrix(1,0,0,1,71.2437,-285.984)">
            <g transform="matrix(1,0,0,1,-531.567,294.632)">
                <path d="M1952.38,1368.26C2033.85,1368.26 2051.22,1110.31 1876.29,1122.42L1842.49,1185.85L1824.73,1297.18" style="fill:rgb(241,114,172);stroke:rgb(35,31,32);stroke-width:20.83px;"/>
            </g>
            <g transform="matrix(1,0,0,1,-531.567,294.632)">
                <path d="M1364.59,1449.74C1340.27,1449.74 1286.03,1455.15 1256.02,1414.08C1197.67,1334.21 1198.01,1249.34 1235.27,1168C1266.21,1100.44 1327.29,1087.99 1327.29,1080.46L1393.35,1183.81" style="fill:rgb(241,114,172);stroke:rgb(35,31,32);stroke-width:20.83px;"/>
            </g>
            <g transform="matrix(1,0,0,1,-160.937,301.008)">
                <path d="M927.877,1179.13L1122.23,1341.76L1315.96,1200.13L1052.34,1080.68L927.877,1179.13Z" style="fill:rgb(241,114,172);"/>
            </g>
            <g transform="matrix(1,0,0,1,-531.567,294.632)">
                <path d="M1504.67,1240.16C1504.67,1240.16 1368.79,1248.26 1297.7,990.992C1297.7,990.992 1217.34,680.109 1594.35,640.705C1594.35,640.705 1945.69,603.515 1908.15,990.992C1908.15,990.992 1884.89,1231.14 1753.94,1240.16" style="fill:rgb(241,114,172);stroke:rgb(35,31,32);stroke-width:20.83px;"/>
            </g>
            <g transform="matrix(1,0,0,1,-531.567,294.632)">
                <path d="M1565.34,1096.28C1594.67,1125.61 1636.96,1167.25 1682.45,1164.23C1731.55,1160.97 1791.31,1084.15 1791.31,1080.46" style="fill:none;stroke:rgb(35,31,32);stroke-width:20.83px;"/>
            </g>
            <g transform="matrix(1,0,0,1,-531.567,282.632)">
                <path d="M1533.92,1130.18C1564.16,1113.87 1579.44,1076.84 1581.87,1076.84" style="fill:none;stroke:rgb(35,31,32);stroke-width:20.83px;"/>
            </g>
            <g transform="matrix(1,0,0,1,-526.148,283.967)">
                <path d="M1772.08,1065.16C1774.53,1067.46 1787.13,1091.94 1817.71,1108.17" style="fill:none;stroke:rgb(35,31,32);stroke-width:20.83px;"/>
            </g>
            <g transform="matrix(1,0,0,1,-521.2,263.908)">
                <path d="M1763.94,1002.5C1763.94,1002.5 1693.08,1081.42 1656.92,1078.17C1582.45,1071.47 1537.25,1013.33 1537.25,1013.33C1537.25,1013.33 1405.38,860.461 1537.25,819.164C1537.25,819.164 1632.09,789.466 1656.92,888.65C1656.92,888.65 1658.41,816.839 1753.94,819.164C1753.94,819.164 1899.7,825.61 1763.94,1002.5" style="fill:white;stroke:rgb(35,31,32);stroke-width:20.83px;"/>
            </g>
            <g transform="matrix(0.7957,0,0,0.7957,-178.702,465.824)">
                <circle cx="1576.42" cy="927.586" r="25.976" style="fill:rgb(35,31,32);stroke:rgb(35,31,32);stroke-width:39.27px;"/>
            </g>
            <g transform="matrix(0.7957,0,0,0.7957,-58.6973,465.824)">
                <circle cx="1576.42" cy="927.586" r="25.976" style="fill:rgb(35,31,32);stroke:rgb(35,31,32);stroke-width:39.27px;"/>
            </g>
            <g transform="matrix(1,0,0,1,-531.567,294.632)">
                <path d="M1824.73,1297.18C1867.85,1297.18 1898.07,1236.32 1878.47,1197.12C1871.02,1182.22 1839.47,1174.21 1825.53,1170.77C1765.51,1155.95 1742.92,1202.15 1736.28,1215.76C1724.73,1239.43 1653.34,1453.2 1842.61,1473.43C1873.57,1476.74 1901.6,1467.9 1919.56,1448.82C2024.85,1336.97 1880.88,1291.37 1878.47,1281.58" style="fill:rgb(241,114,172);stroke:rgb(35,31,32);stroke-width:20.83px;"/>
            </g>
            <g transform="matrix(1,0,0,1,-531.567,294.632)">
                <path d="M1608.19,1243.31C1585.26,1243.31 1548.19,1174.72 1571.5,1151.05C1592.11,1130.13 1618.3,1119.13 1650.3,1119.13C1746.42,1119.13 1753.73,1256.42 1750.39,1320.93C1744.36,1437.62 1625.78,1433.68 1605.09,1440.74C1544.93,1461.26 1444.14,1381.17 1430.1,1325.4C1423.89,1300.71 1430.1,1301.95 1430.1,1274.94" style="fill:rgb(241,114,172);stroke:rgb(35,31,32);stroke-width:20.83px;"/>
            </g>
            <g transform="matrix(1,0,0,1,-529.146,253.25)">
                <path d="M1561.5,1380.89C1539.94,1380.89 1535.57,1368.48 1524.82,1357.73C1467.78,1300.68 1609.1,1264.6 1640.9,1296.41C1666.75,1322.25 1652.85,1552.3 1489.44,1551.96C1321.34,1551.61 1343.17,1349.11 1355.37,1258.98" style="fill:rgb(241,114,172);stroke:rgb(35,31,32);stroke-width:20.83px;"/>
            </g>
        </g>
        <g transform="matrix(1.09117,-0.242064,0.261735,1.17984,264.298,-312.368)">
            <rect x="301.173" y="1513.79" width="529.636" height="375.67" style="fill:white;stroke:rgb(35,31,32);stroke-width:17.9px;"/>
        </g>
        <g transform="matrix(-0.169151,-0.988495,1.12039,-0.234383,-0.560935,2681.31)">
            <rect x="728.869" y="1333.03" width="31.201" height="202.21" style="fill:rgb(167,169,172);"/>
        </g>
        <g transform="matrix(-0.169151,-0.988495,1.12039,-0.234383,6.35273,2739.01)">
            <rect x="728.869" y="1333.03" width="31.201" height="202.21" style="fill:rgb(167,169,172);"/>
        </g>
        <g transform="matrix(0.972592,0.244535,-0.238134,1.11959,1208.6,-661.201)">
            <rect x="728.869" y="1333.03" width="31.201" height="202.21" style="fill:rgb(167,169,172);"/>
        </g>
        <g transform="matrix(0.363971,-0.934483,1.08113,0.375961,-1167.1,1527.72)">
            <rect x="728.869" y="1333.03" width="31.201" height="202.21" style="fill:rgb(167,169,172);"/>
        </g>
        <g transform="matrix(-0.169151,-0.988495,1.12039,-0.234383,-16.2661,2628.33)">
            <rect x="728.869" y="1333.03" width="31.201" height="202.21" style="fill:rgb(167,169,172);"/>
        </g>
        <path d="M882.183,1701.14C882.183,1665.89 933.588,1365.02 945.021,1358.3C956.365,1351.64 1449.11,1373.97 1452.11,1376.82C1456.1,1380.62 1426.92,1766.59 1423.4,1770.22C1422.18,1771.49 882.183,1701.14 882.183,1701.14Z" style="fill:white;stroke:rgb(35,31,32);stroke-width:20.83px;"/>
        <g transform="matrix(0.988688,0.168019,-0.150185,1.13474,472.079,-219.953)">
            <rect x="728.869" y="1333.03" width="31.201" height="202.21" style="fill:rgb(167,169,172);"/>
        </g>
        <g transform="matrix(0.988688,0.168019,-0.150185,1.13474,611.288,-229.5)">
            <rect x="728.869" y="1333.03" width="31.201" height="202.21" style="fill:rgb(167,169,172);"/>
        </g>
        <g transform="matrix(0.988688,0.168019,-0.150185,1.13474,526.147,-210.914)">
            <rect x="728.869" y="1333.03" width="31.201" height="202.21" style="fill:rgb(167,169,172);"/>
        </g>
        <g transform="matrix(0.988688,0.168019,-0.150185,1.13474,665.357,-220.461)">
            <rect x="728.869" y="1333.03" width="31.201" height="202.21" style="fill:rgb(167,169,172);"/>
        </g>
        <g transform="matrix(0.989538,-0.169251,0.257481,1.16506,569.72,-68.5701)">
            <rect x="728.869" y="1333.03" width="31.201" height="202.21" style="fill:rgb(167,169,172);"/>
        </g>
        <g transform="matrix(1,0,0,1,7.00944,0)">
            <path d="M671.311,1558.49C671.311,1558.49 1002.57,1558.49 1097.82,1558.49C1099.02,1558.49 1130.16,1299.19 1078.25,1240.16C1071.26,1232.2 671.378,1266.25 671.311,1266.86C661.555,1354.49 700.757,1502.66 671.311,1558.49Z" style="fill:white;stroke:rgb(35,31,32);stroke-width:20.83px;"/>
        </g>
        <g transform="matrix(0.988688,0.168019,-0.150185,1.13474,720.544,-217.721)">
            <rect x="728.869" y="1333.03" width="31.201" height="202.21" style="fill:rgb(167,169,172);"/>
        </g>
        <g transform="matrix(0.989538,-0.169251,0.257481,1.16506,622.621,-84.5364)">
            <rect x="728.869" y="1333.03" width="31.201" height="202.21" style="fill:rgb(167,169,172);"/>
        </g>
        <path d="M1297.12,1541.51C1297.12,1541.51 1527.11,1526.31 1732.74,1365.92C1734.02,1364.93 1694.21,1152 1618.13,1074.83C1418.45,1260.74 1230.24,1289.91 1229.9,1290.22C1226.22,1293.63 1297.12,1463.38 1297.12,1541.51Z" style="fill:white;stroke:rgb(35,31,32);stroke-width:20.83px;"/>
        <g transform="matrix(0.970673,-0.240402,0.240402,0.970673,313.734,198.632)">
            <rect x="301.173" y="1513.79" width="529.636" height="375.67" style="fill:white;stroke:rgb(35,31,32);stroke-width:20.83px;"/>
        </g>
        <g transform="matrix(0.989538,-0.169251,0.257481,1.16506,236.764,162.484)">
            <rect x="728.869" y="1333.03" width="31.201" height="202.21" style="fill:rgb(167,169,172);"/>
        </g>
        <path d="M918.625,591.558C918.625,553.609 974.599,333.981 977.073,331.383C1012.97,293.696 1187.73,484.968 1212.24,484.968L1124.26,650.446" style="fill:white;stroke:rgb(35,31,32);stroke-width:20.83px;"/>
        <g transform="matrix(0.989538,-0.169251,0.257481,1.16506,290.826,153.081)">
            <rect x="728.869" y="1333.03" width="31.201" height="202.21" style="fill:rgb(167,169,172);"/>
        </g>
        <g transform="matrix(0.953316,0.311325,-0.315123,1.10041,737.339,-1284.53)">
            <rect x="728.869" y="1333.03" width="31.201" height="202.21" style="fill:rgb(167,169,172);"/>
        </g>
        <g transform="matrix(0.953316,0.311325,-0.315123,1.10041,789.495,-1257.66)">
            <rect x="728.869" y="1333.03" width="31.201" height="202.21" style="fill:rgb(167,169,172);"/>
        </g>
        <g transform="matrix(0.953316,0.311325,-0.315123,1.10041,834.246,-1224.66)">
            <rect x="728.869" y="1333.03" width="31.201" height="202.21" style="fill:rgb(167,169,172);"/>
        </g>
        <path d="M847.365,830.517C847.365,830.517 975.565,728.234 1333.8,694.982C1337.16,694.67 1305.18,464.009 1305.18,362C1305.18,358.27 1119.89,611.593 1101.23,629.968C1100,631.186 1100.87,632.932 1099.31,633.743C1081.06,643.228 783.279,533.741 773.653,530.713C772.368,530.309 769.791,526.958 770.768,527.885C818.045,572.759 847.365,760.317 847.365,830.517Z" style="fill:white;stroke:rgb(35,31,32);stroke-width:20.83px;"/>
        <g transform="matrix(1,0,0,1,-4.29183,-17.7654)">
            <path d="M788.2,1512.75C796.561,1512.75 799.736,1493.49 794.902,1488.65C789.99,1483.74 781.367,1481.63 774.878,1480.27C774.21,1480.13 768.651,1480.71 769.177,1479.67C772.232,1473.61 784.473,1473.36 788.35,1469.66C789.475,1468.59 774.962,1462.74 773.538,1462.17C762.397,1457.72 766.308,1436.71 760.385,1426.63C754.983,1417.44 766.643,1406.35 769.747,1397.25C774.954,1381.98 766.116,1364.49 766.116,1350.71" style="fill:none;stroke:rgb(35,31,32);stroke-width:20.83px;"/>
        </g>
        <g transform="matrix(1,0,0,1,120.856,-17.9125)">
            <path d="M788.2,1512.75C796.561,1512.75 799.736,1493.49 794.902,1488.65C789.99,1483.74 781.367,1481.63 774.878,1480.27C774.21,1480.13 768.651,1480.71 769.177,1479.67C772.232,1473.61 784.473,1473.36 788.35,1469.66C789.475,1468.59 774.962,1462.74 773.538,1462.17C762.397,1457.72 766.308,1436.71 760.385,1426.63C754.983,1417.44 766.643,1406.35 769.747,1397.25C774.954,1381.98 766.116,1364.49 766.116,1350.71" style="fill:none;stroke:rgb(35,31,32);stroke-width:20.83px;"/>
        </g>
        <g transform="matrix(1,0,0,1,-28.9251,-28.4964)">
            <path d="M854.703,1510.46C858.033,1508.77 869.242,1498.19 870.396,1494.44C875.268,1478.65 851.803,1471.76 848.282,1457.77C845.145,1445.31 866.876,1459.27 864.505,1446.84C862.424,1435.93 847.199,1421.67 842.181,1411.55C834.381,1395.83 854.097,1384.29 856.293,1371.06C858.415,1358.28 845.771,1364.57 845.771,1358.04" style="fill:none;stroke:rgb(35,31,32);stroke-width:20.83px;"/>
        </g>
        <path d="M953.953,1430.19C953.953,1423.81 964.465,1418.22 962.174,1409.15C960.225,1401.43 955.176,1393.03 952.466,1385.19C950.148,1378.49 957.175,1368.2 956.29,1359.86C954.848,1346.3 948.764,1331.13 948.764,1317.87" style="fill:none;stroke:rgb(35,31,32);stroke-width:20.83px;"/>
        <g transform="matrix(1,0,0,1,6.93937,-3.69426)">
            <path d="M1661.55,1326.93C1661.55,1319.96 1647.87,1306.99 1643.87,1301.12C1623.46,1271.23 1621.55,1221.82 1599.49,1199.76" style="fill:none;stroke:rgb(35,31,32);stroke-width:20.83px;"/>
        </g>
        <g transform="matrix(0.989538,-0.169251,0.257481,1.16506,62.5191,194.045)">
            <rect x="728.869" y="1333.03" width="31.201" height="202.21" style="fill:rgb(167,169,172);"/>
        </g>
        <g transform="matrix(0.989538,-0.169251,0.257481,1.16506,116.582,184.643)">
            <rect x="728.869" y="1333.03" width="31.201" height="202.21" style="fill:rgb(167,169,172);"/>
        </g>
        <g transform="matrix(0.967886,0.143735,-0.146893,0.989152,587.361,-127.007)">
            <rect x="301.173" y="1513.79" width="529.636" height="375.67" style="fill:white;stroke:rgb(35,31,32);stroke-width:21.06px;"/>
        </g>
        <g transform="matrix(0.990885,0.161179,-0.134714,1.18555,351.975,-181.348)">
            <rect x="728.869" y="1333.03" width="31.201" height="202.21" style="fill:rgb(167,169,172);"/>
        </g>
        <g transform="matrix(0.989538,-0.169251,0.257481,1.16506,169.483,168.676)">
            <rect x="728.869" y="1333.03" width="31.201" height="202.21" style="fill:rgb(167,169,172);"/>
        </g>
        <g transform="matrix(0.990885,0.161179,-0.134714,1.18555,406.161,-172.689)">
            <rect x="728.869" y="1333.03" width="31.201" height="202.21" style="fill:rgb(167,169,172);"/>
        </g>
        <path d="M683.042,1047.22C693.207,1047.22 700.11,1031.39 708.886,1029.16C739.999,1021.28 758.036,1033.11 782.889,1008.66C787.494,1004.13 797.37,1006 802.4,1000.88" style="fill:none;stroke:rgb(35,31,32);stroke-width:20.83px;"/>
        <path d="M707.841,1112.99C718.456,1112.99 728.637,1094.15 737.234,1089.79C744.707,1085.99 789.135,1089.02 789.135,1072.53" style="fill:none;stroke:rgb(35,31,32);stroke-width:20.83px;"/>
        <g transform="matrix(0.990885,0.161179,-0.134714,1.18555,176.922,-208.066)">
            <rect x="728.869" y="1333.03" width="31.201" height="202.21" style="fill:rgb(167,169,172);"/>
        </g>
        <g transform="matrix(0.990885,0.161179,-0.134714,1.18555,231.109,-199.407)">
            <rect x="728.869" y="1333.03" width="31.201" height="202.21" style="fill:rgb(167,169,172);"/>
        </g>
        <g transform="matrix(0.990885,0.161179,-0.134714,1.18555,286.328,-197.334)">
            <rect x="728.869" y="1333.03" width="31.201" height="202.21" style="fill:rgb(167,169,172);"/>
        </g>
        <g transform="matrix(0.992266,-0.124129,0.144744,1.15706,-230.833,-57.2942)">
            <path d="M1396.89,1454.1C1396.89,1440.52 1399.27,1424.37 1394.87,1411.36C1388.48,1392.45 1372.76,1366.98 1372.76,1349.15" style="fill:none;stroke:rgb(35,31,32);stroke-width:19.18px;"/>
        </g>
        <g transform="matrix(0.992266,-0.124129,0.144744,1.15706,-230.833,-57.2942)">
            <path d="M1453.5,1447.37C1453.5,1437.24 1454.87,1426.09 1453.5,1416.08C1452.08,1405.73 1442.49,1394.72 1439.29,1384.54C1435.51,1372.52 1436.68,1357.9 1432.57,1346C1431.31,1342.37 1426.64,1337.55 1426.64,1334.31" style="fill:none;stroke:rgb(35,31,32);stroke-width:19.18px;"/>
        </g>
        <g transform="matrix(1.13592,-0.142099,0.174381,1.39397,-482.51,-341.51)">
            <path d="M1509.31,1429.7C1509.31,1408.27 1500.2,1386.13 1492.74,1366.3C1488.85,1355.96 1490.61,1343.62 1488.57,1333C1487.23,1325.95 1481.3,1318.11 1481.3,1312.04" style="fill:none;stroke:rgb(35,31,32);stroke-width:16.26px;"/>
        </g>
        <g transform="matrix(1.24925,-0.156277,0.191076,1.52743,-692.875,-497.408)">
            <path d="M1561.39,1408.27C1561.39,1372.81 1534.62,1338.33 1534.62,1302.9" style="fill:none;stroke:rgb(35,31,32);stroke-width:14.82px;"/>
        </g>
        <g transform="matrix(1.95028,0,0,1.70064,-1558.29,-943.968)">
            <path d="M1607.3,1373.91C1607.3,1370.01 1598.03,1333.14 1594.46,1333.14" style="fill:none;stroke:rgb(35,31,32);stroke-width:11.39px;"/>
        </g>
        <path d="M1029.05,1428.71C1029.05,1426.72 1029.05,1424.73 1029.05,1422.74C1029.05,1403.08 1028.43,1383.14 1028.43,1363.86C1028.43,1362.61 1027.9,1359.58 1026.67,1359.58" style="fill:none;stroke:rgb(35,31,32);stroke-width:20.83px;"/>
        <path d="M1615.47,1360.95C1615.47,1312.14 1554.13,1247.63 1554.13,1227.59" style="fill:none;stroke:rgb(35,31,32);stroke-width:20.83px;"/>
        <path d="M915.526,731.46C915.526,717.963 896.398,705.78 889.198,695.299C884.789,688.881 902.39,685.432 899.596,679.844C888.965,658.582 875.28,644.841 875.28,619.114" style="fill:none;stroke:rgb(35,31,32);stroke-width:20.83px;"/>
        <path d="M1181.3,657.08C1197.81,657.08 1212.41,647.862 1228.78,646.215C1244.76,644.607 1261.69,649.462 1277.41,646.809C1282.3,645.983 1285.79,641.573 1290.9,641.573" style="fill:none;stroke:rgb(35,31,32);stroke-width:20.83px;"/>
        <path d="M1190.71,592.489C1206.45,592.489 1219.44,578.121 1234.52,575.229C1241.66,573.862 1246.7,578.785 1253.46,579.901C1266.22,582.004 1275.31,575.519 1287.31,575.519" style="fill:none;stroke:rgb(35,31,32);stroke-width:20.83px;"/>
        <path d="M1032.12,1772.42C1032.12,1755.3 1014.38,1707.3 994.331,1707.3C990.254,1707.3 1002.63,1707.74 1006.55,1706.62C1011.37,1705.24 1030.84,1705.49 1032.54,1703.78C1041.07,1695.18 1038.76,1664.05 1041.83,1651.68C1045,1638.91 1058.45,1624.78 1058.45,1612.29" style="fill:none;stroke:rgb(35,31,32);stroke-width:20.83px;"/>
        <path d="M962.223,725.684C962.223,712.395 963.767,698.082 961.589,685.12C959.153,670.628 948.364,659.999 948.364,645.691" style="fill:none;stroke:rgb(35,31,32);stroke-width:20.83px;"/>
        <path d="M1477.69,1794.02C1477.69,1768.46 1483.67,1765.9 1465.55,1748.08C1461.53,1744.12 1471.69,1733.98 1473.39,1730.55C1475.89,1725.51 1470.2,1709.66 1468.56,1704.78C1460.31,1680.31 1451.51,1667.67 1451.51,1642.61" style="fill:none;stroke:rgb(35,31,32);stroke-width:20.83px;"/>
    </g>
</svg>
