<?xml version="1.0" encoding="UTF-8" standalone="no"?>
<!DOCTYPE svg PUBLIC "-//W3C//DTD SVG 1.1//EN" "http://www.w3.org/Graphics/SVG/1.1/DTD/svg11.dtd">
<svg width="100%" height="100%" viewBox="0 0 2488 1966" version="1.1" xmlns="http://www.w3.org/2000/svg" xmlns:xlink="http://www.w3.org/1999/xlink" xml:space="preserve" xmlns:serif="http://www.serif.com/" style="fill-rule:evenodd;clip-rule:evenodd;stroke-linecap:round;stroke-linejoin:round;stroke-miterlimit:1.5;">
    <g transform="matrix(1,0,0,1,-509.944,-257.532)">
        <g transform="matrix(0.968016,-0.250889,0.250889,0.968016,289.758,-184.534)">
            <g transform="matrix(1,0,0,1,-531.567,294.632)">
                <path d="M1952.38,1368.26C2033.85,1368.26 2051.22,1110.31 1876.29,1122.42L1842.49,1185.85L1824.73,1297.18" style="fill:rgb(241,114,172);stroke:rgb(35,31,32);stroke-width:20.83px;"/>
            </g>
            <g transform="matrix(1,0,0,1,-531.567,294.632)">
                <path d="M1364.59,1449.74C1340.27,1449.74 1286.03,1455.15 1256.02,1414.08C1197.67,1334.21 1198.01,1249.34 1235.27,1168C1266.21,1100.44 1327.29,1087.99 1327.29,1080.46L1393.35,1183.81" style="fill:rgb(241,114,172);stroke:rgb(35,31,32);stroke-width:20.83px;"/>
            </g>
            <g transform="matrix(1,0,0,1,-160.937,301.008)">
                <path d="M927.877,1179.13L1122.23,1341.76L1315.96,1200.13L1052.34,1080.68L927.877,1179.13Z" style="fill:rgb(241,114,172);"/>
            </g>
            <g transform="matrix(1,0,0,1,-531.567,294.632)">
                <path d="M1504.67,1240.16C1504.67,1240.16 1368.79,1248.26 1297.7,990.992C1297.7,990.992 1217.34,680.109 1594.35,640.705C1594.35,640.705 1945.69,603.515 1908.15,990.992C1908.15,990.992 1884.89,1231.14 1753.94,1240.16" style="fill:rgb(241,114,172);stroke:rgb(35,31,32);stroke-width:20.83px;"/>
            </g>
            <g transform="matrix(1,0,0,1,-531.567,294.632)">
                <path d="M1565.34,1096.28C1594.67,1125.61 1636.96,1167.25 1682.45,1164.23C1731.55,1160.97 1791.31,1084.15 1791.31,1080.46" style="fill:none;stroke:rgb(35,31,32);stroke-width:20.83px;"/>
            </g>
            <g transform="matrix(1,0,0,1,-531.567,282.632)">
                <path d="M1533.92,1130.18C1564.16,1113.87 1579.44,1076.84 1581.87,1076.84" style="fill:none;stroke:rgb(35,31,32);stroke-width:20.83px;"/>
            </g>
            <g transform="matrix(1,0,0,1,-526.148,283.967)">
                <path d="M1772.08,1065.16C1774.53,1067.46 1787.13,1091.94 1817.71,1108.17" style="fill:none;stroke:rgb(35,31,32);stroke-width:20.83px;"/>
            </g>
            <g transform="matrix(1,0,0,1,-521.2,263.908)">
                <path d="M1763.94,1002.5C1763.94,1002.5 1693.08,1081.42 1656.92,1078.17C1582.45,1071.47 1537.25,1013.33 1537.25,1013.33C1537.25,1013.33 1405.38,860.461 1537.25,819.164C1537.25,819.164 1632.09,789.466 1656.92,888.65C1656.92,888.65 1658.41,816.839 1753.94,819.164C1753.94,819.164 1899.7,825.61 1763.94,1002.5" style="fill:white;stroke:rgb(35,31,32);stroke-width:20.83px;"/>
            </g>
            <g transform="matrix(0.7957,0,0,0.7957,-178.702,465.824)">
                <circle cx="1576.42" cy="927.586" r="25.976" style="fill:rgb(35,31,32);stroke:rgb(35,31,32);stroke-width:39.27px;"/>
            </g>
            <g transform="matrix(0.7957,0,0,0.7957,-58.6973,465.824)">
                <circle cx="1576.42" cy="927.586" r="25.976" style="fill:rgb(35,31,32);stroke:rgb(35,31,32);stroke-width:39.27px;"/>
            </g>
            <g transform="matrix(1,0,0,1,-531.567,294.632)">
                <path d="M1824.73,1297.18C1867.85,1297.18 1898.07,1236.32 1878.47,1197.12C1871.02,1182.22 1839.47,1174.21 1825.53,1170.77C1765.51,1155.95 1742.92,1202.15 1736.28,1215.76C1724.73,1239.43 1653.34,1453.2 1842.61,1473.43C1873.57,1476.74 1901.6,1467.9 1919.56,1448.82C2024.85,1336.97 1880.88,1291.37 1878.47,1281.58" style="fill:rgb(241,114,172);stroke:rgb(35,31,32);stroke-width:20.83px;"/>
            </g>
            <g transform="matrix(1,0,0,1,-531.567,294.632)">
                <path d="M1608.19,1243.31C1585.26,1243.31 1548.19,1174.72 1571.5,1151.05C1592.11,1130.13 1618.3,1119.13 1650.3,1119.13C1746.42,1119.13 1753.73,1256.42 1750.39,1320.93C1744.36,1437.62 1625.78,1433.68 1605.09,1440.74C1544.93,1461.26 1444.14,1381.17 1430.1,1325.4C1423.89,1300.71 1430.1,1301.95 1430.1,1274.94" style="fill:rgb(241,114,172);stroke:rgb(35,31,32);stroke-width:20.83px;"/>
            </g>
            <g transform="matrix(1,0,0,1,-529.146,253.25)">
                <path d="M1561.5,1380.89C1539.94,1380.89 1535.57,1368.48 1524.82,1357.73C1467.78,1300.68 1609.1,1264.6 1640.9,1296.41C1666.75,1322.25 1652.85,1552.3 1489.44,1551.96C1321.34,1551.61 1343.17,1349.11 1355.37,1258.98" style="fill:rgb(241,114,172);stroke:rgb(35,31,32);stroke-width:20.83px;"/>
            </g>
        </g>
        <g transform="matrix(0.932132,0,0,1.18017,-19.0515,-222.102)">
            <rect x="666.172" y="1585.81" width="2467.15" height="321.465" style="fill:white;stroke:rgb(35,31,32);stroke-width:19.59px;"/>
        </g>
        <g transform="matrix(0.992648,-0.121034,0.121034,0.992648,194.795,626.782)">
            <text x="2083.63px" y="324.483px" style="font-family:'PatrickHandSC-Regular', 'Patrick Hand SC';font-size:150px;fill:rgb(35,31,32);stroke:rgb(35,31,32);stroke-width:4.17px;stroke-linecap:butt;stroke-miterlimit:1.41421;">Njak</text>
        </g>
        <g transform="matrix(0.971396,0.237466,-0.237466,0.971396,-1099.84,-282.807)">
            <text x="2083.63px" y="324.483px" style="font-family:'PatrickHandSC-Regular', 'Patrick Hand SC';font-size:150px;fill:rgb(35,31,32);stroke:rgb(35,31,32);stroke-width:4.17px;stroke-linecap:butt;stroke-miterlimit:1.41421;">Njak</text>
        </g>
        <g transform="matrix(0.960145,-0.279501,0.279501,0.960145,-1458.57,1351.22)">
            <text x="2083.63px" y="324.483px" style="font-family:'PatrickHandSC-Regular', 'Patrick Hand SC';font-size:150px;fill:rgb(35,31,32);stroke:rgb(35,31,32);stroke-width:4.17px;stroke-linecap:butt;stroke-miterlimit:1.41421;">Njak</text>
        </g>
        <g transform="matrix(1,0,0,1,-98.6091,16.6032)">
            <path d="M2198.26,1252.09C2235.57,1252.09 2301.33,1178.84 2301.33,1143.31" style="fill:none;stroke:rgb(35,31,32);stroke-width:20.83px;"/>
        </g>
        <g transform="matrix(1,0,0,1,-98.6091,16.6032)">
            <path d="M2262.01,1296.67C2305.12,1252.83 2374.47,1216.94 2374.47,1148.6" style="fill:none;stroke:rgb(35,31,32);stroke-width:20.83px;"/>
        </g>
        <g transform="matrix(0.967284,0.253695,-0.253695,0.967284,254.431,-206.364)">
            <path d="M1228.72,1083.64C1228.72,1122.43 1293.63,1187.74 1325.98,1187.74" style="fill:none;stroke:rgb(35,31,32);stroke-width:20.83px;"/>
        </g>
        <g transform="matrix(0.967284,0.253695,-0.253695,0.967284,254.431,-206.364)">
            <path d="M1171.68,1090.75C1171.68,1122.82 1209.23,1183.69 1236.9,1197.53C1238.05,1198.1 1240.62,1197.81 1240.62,1199.35" style="fill:none;stroke:rgb(35,31,32);stroke-width:20.83px;"/>
        </g>
        <g transform="matrix(1,0,0,1,-76.0173,73.1136)">
            <path d="M1835.77,257.06C1853.6,257.06 1922.77,262.188 1971.67,322.628" style="fill:none;stroke:rgb(35,31,32);stroke-width:20.83px;"/>
        </g>
        <g transform="matrix(1,0,0,1,-76.0173,73.1136)">
            <path d="M1813.53,194.851C1844.86,194.851 1925.09,192.339 1969.64,249.381" style="fill:none;stroke:rgb(35,31,32);stroke-width:20.83px;"/>
        </g>
        <g transform="matrix(1,0,0,1,-76.0173,73.1136)">
            <path d="M2099.91,1553.23C2099.91,1485.58 2205.49,1469.2 2259.12,1438.39C2284.95,1423.55 2370.3,1305.64 2397.77,1294.03C2457.41,1268.81 2549.77,1279.91 2613.95,1279.91C2631,1279.91 2842.08,1284.86 2891.75,1397.11L2891.75,1576.3L2099.91,1576.3" style="fill:white;stroke:rgb(35,31,32);stroke-width:20.83px;"/>
        </g>
        <g transform="matrix(1,0,0,1,-76.0173,73.1136)">
            <path d="M2082.48,1576.3L767.144,1576.3L767.144,1426.11C822.484,1369.95 920.024,1335.64 1041.91,1333.57C1126.91,1332.12 1269.63,1465.27 1350.57,1479.49C1430,1493.44 1813.02,1501.34 1887.41,1534.23C1941.09,1557.97 2032.34,1534.23 2082.48,1534.23" style="fill:white;stroke:rgb(35,31,32);stroke-width:20.83px;"/>
        </g>
        <path d="M520.361,1499.22L691.126,1499.22L691.126,1787.71L2815.73,1787.71L2815.73,1239.24L2987.51,1239.24L2987.51,2212.37L2815.73,2212.37L2815.73,2109.18L691.126,2109.18L691.126,2212.37L520.361,2212.37L520.361,1499.22Z" style="fill:rgb(143,86,59);stroke:rgb(35,31,32);stroke-width:20.83px;"/>
    </g>
</svg>
