<?xml version="1.0" encoding="UTF-8" standalone="no"?>
<!DOCTYPE svg PUBLIC "-//W3C//DTD SVG 1.1//EN" "http://www.w3.org/Graphics/SVG/1.1/DTD/svg11.dtd">
<svg width="100%" height="100%" viewBox="0 0 2605 1176" version="1.1" xmlns="http://www.w3.org/2000/svg" xmlns:xlink="http://www.w3.org/1999/xlink" xml:space="preserve" xmlns:serif="http://www.serif.com/" style="fill-rule:evenodd;clip-rule:evenodd;stroke-linecap:round;stroke-linejoin:round;stroke-miterlimit:1.5;">
    <g transform="matrix(1,0,0,1,-451.541,-663.023)">
        <g transform="matrix(1.17747,0,0,1.17747,-227.981,-188.887)">
            <circle cx="1603.9" cy="1213.65" r="481.3" style="fill:rgb(0,192,243);"/>
            <clipPath id="_clip1">
                <circle cx="1603.9" cy="1213.65" r="481.3"/>
            </clipPath>
            <g clip-path="url(#_clip1)">
                <g transform="matrix(0.60524,0,0,0.60524,638.515,483.563)">
                    <path d="M811.518,989.872C811.518,1002.36 850.595,1142.06 857.277,1155.43C875.253,1191.38 850.603,1238.28 874.573,1274.84C889.709,1297.92 924.078,1304.25 946.672,1315.54C962.73,1323.57 979.21,1345.7 995.776,1356.57C1012.94,1367.82 1117.5,1439.26 1137.55,1419.2C1145.38,1411.37 1110.55,1375.92 1104.72,1373C1065.76,1353.52 1064.25,1325.94 1035.26,1295.51C1027.81,1287.68 1009.96,1292.96 1000.84,1288.4C995.234,1285.6 1000.79,1264.51 996.092,1259.65C988.673,1251.98 973.761,1257.77 964.341,1254.74C939.075,1246.62 901.566,1190.77 921.065,1160.75C929.32,1148.04 1006.46,1148.28 1022.8,1153.91C1039.17,1159.54 1053.19,1183.63 1070.07,1183.63C1070.65,1183.63 1071.29,1183.9 1071.81,1183.63C1088.87,1174.75 1082.19,1106.1 1086.68,1088.01C1093.97,1058.65 1180.09,987.547 1203.5,963.921C1226.94,940.27 1304.68,965.626 1323,929.544C1329.65,916.441 1265.85,887.141 1306.85,866.33C1325.68,856.772 1431.2,870.427 1399.8,807.638C1381.32,770.662 1357.96,715.545 1314.67,715.545C1305.55,715.545 1287.48,719.433 1279.71,715.545C1268.72,710.051 1233.65,703.33 1220.55,709.574C1213.45,712.962 1203.21,774.228 1166.41,792.352C1154.57,798.184 1146.25,749.521 1132.98,742.86C1121.64,737.167 1066.9,740.748 1066.9,718.889L1064.17,720.626C1090.02,720.626 1185.35,629.554 1202.67,611.94C1204.46,610.116 1181.33,601.836 1179.23,601.132C1166.14,596.732 1156.36,596.783 1142.17,596.783C1141.12,596.783 1136.35,597.438 1135.68,596.783C1118.78,580.147 1174.78,551.457 1185.96,547.923C1201.48,543.017 1240.96,541.14 1250.62,555.875C1256.65,565.059 1270.52,565.314 1274.83,573.932C1285.7,595.687 1256.09,652.459 1262.07,656.379C1271.51,662.572 1280.78,660.503 1290.18,665.207C1296.88,668.556 1320.21,670.643 1328.11,668.149C1355.47,659.501 1388.56,614.99 1373.54,585.041C1353.88,545.872 1322.13,512.435 1386.28,479.872C1396.33,474.771 1420.85,479.872 1432.01,479.872C1506.88,479.872 1435.84,561.244 1454,613.978C1461.64,636.173 1479.92,649.805 1490.81,671.565C1498.79,687.539 1513.45,702.803 1533.18,697.804C1565.21,689.686 1597.99,652.312 1626.07,635.696C1656.2,617.873 1712.96,593.987 1736.07,570.171C1752.88,552.837 1745.11,534.05 1741.46,514.766C1722.5,414.514 1629.17,394.066 1539.65,394.066L811.518,394.066L811.518,989.872Z" style="fill:rgb(0,166,80);stroke:rgb(35,31,32);stroke-width:29.23px;"/>
                </g>
                <g transform="matrix(0.60524,0,0,0.60524,653.527,508.949)">
                    <path d="M1127.93,1430.89C1127.93,1454.94 1152.9,1493.94 1141.16,1517.79C1131.2,1538.02 1124.45,1557.12 1129.58,1584.57C1135.57,1616.61 1240.41,1689.81 1269.54,1698.79C1293.72,1706.24 1316.92,1764.08 1326.03,1782.67C1342.57,1816.42 1349.53,1854.08 1368.21,1887.02C1387.42,1920.89 1459.75,1994.72 1500.94,1994.72C1507.09,1994.72 1489.02,1989.52 1485.64,1984.38C1480.64,1976.79 1473.94,1968.94 1470.54,1960.4C1456.5,1925.12 1457.53,1881.77 1481.5,1849.59C1508.47,1813.39 1517.22,1766.68 1535.8,1743.11C1562.2,1709.64 1676.89,1632.12 1618.28,1573.51C1592.04,1547.27 1541.45,1524.09 1503.68,1517.74C1483.11,1514.29 1456.24,1523.99 1436.28,1517.74C1421.76,1513.2 1409.27,1479.49 1394.55,1469.92C1375.56,1457.57 1355.64,1455.84 1337.01,1444.88C1307.08,1427.3 1275.7,1393.24 1245.04,1383.64C1203.98,1370.78 1172.48,1405.65 1138.31,1405.65C1135.29,1405.65 1126.92,1406.07 1126.92,1408.4" style="fill:rgb(0,166,80);stroke:rgb(35,31,32);stroke-width:29.23px;"/>
                </g>
                <g transform="matrix(0.60524,0,0,0.60524,638.515,483.563)">
                    <path d="M2238.59,1682.58C2234.8,1682.58 2226.95,1697.23 2225.05,1700.22C2220.69,1707.14 2216.95,1714.64 2212.21,1721.36C2212.1,1721.52 2200.67,1735.75 2200.54,1735.92C2199.14,1737.7 2197.95,1739.64 2196.46,1741.35C2194.77,1743.27 2192.72,1744.86 2191.02,1746.77C2182.58,1756.28 1976.25,1952.81 1983.64,1867.93C1986.37,1836.59 2000.56,1830.35 2002.99,1826.2C2023.86,1790.54 2158.38,1565.86 2145.48,1514.08C2124.27,1428.97 2066.97,1463.98 2008.99,1452.33C1958.07,1442.11 1902.12,1403.38 1902.12,1350.25C1902.12,1298.06 1898.05,1244.8 1918.37,1193.26C1927.55,1169.98 1962.97,1156.77 1982.62,1143.7C2002.3,1130.61 2013.54,1098.91 2027.26,1080.5C2040.93,1062.15 2115.5,1028.11 2138.6,1039.66C2158.78,1049.75 2170.46,1079.26 2185.91,1094.71C2208.48,1117.28 2328.04,1118.24 2344.55,1085.97C2360.41,1054.97 2306.58,1058.32 2315.8,1021.19C2322.85,992.774 2331.36,978.942 2353.52,967.696C2355.89,966.492 2356.35,965.839 2356.35,963.017C2356.35,948.271 2309.43,891.162 2297.51,891.162C2296.83,891.162 2293.27,890.711 2292.86,891.162C2270.51,915.743 2277.77,973.107 2253.75,996.777C2249.53,1000.93 2244.66,989.48 2243.87,988.136C2227.49,960.263 2182.94,942.073 2160.43,919.568C2159.92,919.055 2158.46,917.768 2156.74,918.606C2151.36,921.239 2146.82,936.171 2141.85,941.099C2128.09,954.733 2105.89,956.938 2089.61,964.954C2063.73,977.704 1991.67,1082.55 1961.06,1009.91C1926.09,926.914 1997.43,962.735 2019.69,940.266C2045.93,913.788 1988.28,891.045 2035.91,855.034C2055.53,840.208 2071.99,812.731 2095.54,804.509C2142.26,788.199 2169.84,810.287 2169.84,754.544L2172.06,758.678C2172.06,703.236 2132.74,726.908 2108.72,678.498C2105.11,671.229 2099.52,625.842 2090.33,630.399C2079.74,635.652 2078.99,657.739 2076.06,667.015C2074.3,672.574 2063.65,677.834 2067.46,682.245C2084.8,702.306 2094.66,718.469 2105.4,739.946C2105.99,741.124 2110.82,755.597 2108.44,756.783C2097.06,762.476 2079.07,753.457 2070.46,748.401C2008.57,712.03 2012.47,700.087 2029.86,630.055C2031.79,622.294 2025.98,592.568 2030.91,587.869C2055.54,564.357 2133.26,618.328 2156.24,618.328L2527,618.328L2527,1682.58L2238.59,1682.58Z" style="fill:rgb(0,166,80);stroke:rgb(35,31,32);stroke-width:29.23px;"/>
                </g>
                <g transform="matrix(0.60524,0,0,0.60524,638.515,483.563)">
                    <path d="M1838.47,446.887C1825.32,446.887 1801.61,450.665 1801.61,467.284C1801.61,485.715 1994.85,548.657 1918.01,467.485C1909.14,458.11 1894.14,457.653 1880.98,457.653C1866.17,457.653 1847.64,450.734 1834.68,450.734" style="fill:rgb(0,166,80);stroke:rgb(35,31,32);stroke-width:29.23px;"/>
                </g>
            </g>
            <circle cx="1603.9" cy="1213.65" r="481.3" style="fill:none;stroke:rgb(35,31,32);stroke-width:17.69px;"/>
        </g>
        <g transform="matrix(0.712654,0,0,0.712654,523.854,380.495)">
            <path d="M1917.93,793.213C1917.93,803.109 1888.08,836.963 1911.88,849.336C1938.69,863.266 1932.45,833.231 1952.62,833.231C1963.16,833.231 1993.51,834.784 1993.51,819.724C1993.51,801.735 2007.54,796.274 1991.78,780.51C1985.38,774.113 1981.32,765.076 1975.23,758.979C1940.52,724.267 1950.45,786.825 1922.52,786.825" style="fill:rgb(0,166,80);stroke:rgb(35,31,32);stroke-width:29.23px;"/>
        </g>
        <g transform="matrix(0.712654,0,0,0.712654,523.854,380.495)">
            <path d="M1735.45,661.188C1762.24,661.188 1831.02,677.963 1831.02,640.231C1831.02,637.971 1832.48,626.642 1831.02,625.289C1815.24,610.687 1692,622.432 1725.79,657.37C1726.59,658.197 1731.67,660.154 1732.05,660.154" style="fill:rgb(0,166,80);stroke:rgb(35,31,32);stroke-width:29.23px;"/>
        </g>
        <g transform="matrix(1,0,0,1,-215.855,-129.635)">
            <g transform="matrix(1,0,0,1,-531.567,294.632)">
                <path d="M1952.38,1368.26C2033.85,1368.26 2051.22,1110.31 1876.29,1122.42L1842.49,1185.85L1824.73,1297.18" style="fill:rgb(241,114,172);stroke:rgb(35,31,32);stroke-width:20.83px;"/>
            </g>
            <g transform="matrix(1,0,0,1,-531.567,294.632)">
                <path d="M1364.59,1449.74C1340.27,1449.74 1286.03,1455.15 1256.02,1414.08C1197.67,1334.21 1198.01,1249.34 1235.27,1168C1266.21,1100.44 1327.29,1087.99 1327.29,1080.46L1393.35,1183.81" style="fill:rgb(241,114,172);stroke:rgb(35,31,32);stroke-width:20.83px;"/>
            </g>
            <g transform="matrix(1,0,0,1,-160.937,301.008)">
                <path d="M927.877,1179.13L1122.23,1341.76L1315.96,1200.13L1052.34,1080.68L927.877,1179.13Z" style="fill:rgb(241,114,172);"/>
            </g>
            <g transform="matrix(1,0,0,1,-531.567,294.632)">
                <path d="M1504.67,1240.16C1504.67,1240.16 1368.79,1248.26 1297.7,990.992C1297.7,990.992 1217.34,680.109 1594.35,640.705C1594.35,640.705 1945.69,603.515 1908.15,990.992C1908.15,990.992 1884.89,1231.14 1753.94,1240.16" style="fill:rgb(241,114,172);stroke:rgb(35,31,32);stroke-width:20.83px;"/>
            </g>
            <g transform="matrix(1,0,0,1,-531.567,294.632)">
                <path d="M1565.34,1096.28C1594.67,1125.61 1636.96,1167.25 1682.45,1164.23C1731.55,1160.97 1791.31,1084.15 1791.31,1080.46" style="fill:none;stroke:rgb(35,31,32);stroke-width:20.83px;"/>
            </g>
            <g transform="matrix(1,0,0,1,-531.567,282.632)">
                <path d="M1533.92,1130.18C1564.16,1113.87 1579.44,1076.84 1581.87,1076.84" style="fill:none;stroke:rgb(35,31,32);stroke-width:20.83px;"/>
            </g>
            <g transform="matrix(1,0,0,1,-526.148,283.967)">
                <path d="M1772.08,1065.16C1774.53,1067.46 1787.13,1091.94 1817.71,1108.17" style="fill:none;stroke:rgb(35,31,32);stroke-width:20.83px;"/>
            </g>
            <g transform="matrix(1,0,0,1,-521.2,263.908)">
                <path d="M1763.94,1002.5C1763.94,1002.5 1693.08,1081.42 1656.92,1078.17C1582.45,1071.47 1537.25,1013.33 1537.25,1013.33C1537.25,1013.33 1405.38,860.461 1537.25,819.164C1537.25,819.164 1632.09,789.466 1656.92,888.65C1656.92,888.65 1658.41,816.839 1753.94,819.164C1753.94,819.164 1899.7,825.61 1763.94,1002.5" style="fill:white;stroke:rgb(35,31,32);stroke-width:20.83px;"/>
            </g>
            <g transform="matrix(0.7957,0,0,0.7957,-178.702,465.824)">
                <circle cx="1576.42" cy="927.586" r="25.976" style="fill:rgb(35,31,32);stroke:rgb(35,31,32);stroke-width:39.27px;"/>
            </g>
            <g transform="matrix(0.7957,0,0,0.7957,-58.6973,465.824)">
                <circle cx="1576.42" cy="927.586" r="25.976" style="fill:rgb(35,31,32);stroke:rgb(35,31,32);stroke-width:39.27px;"/>
            </g>
            <g transform="matrix(1,0,0,1,-531.567,294.632)">
                <path d="M1824.73,1297.18C1867.85,1297.18 1898.07,1236.32 1878.47,1197.12C1871.02,1182.22 1839.47,1174.21 1825.53,1170.77C1765.51,1155.95 1742.92,1202.15 1736.28,1215.76C1724.73,1239.43 1653.34,1453.2 1842.61,1473.43C1873.57,1476.74 1901.6,1467.9 1919.56,1448.82C2024.85,1336.97 1880.88,1291.37 1878.47,1281.58" style="fill:rgb(241,114,172);stroke:rgb(35,31,32);stroke-width:20.83px;"/>
            </g>
            <g transform="matrix(1,0,0,1,-531.567,294.632)">
                <path d="M1608.19,1243.31C1585.26,1243.31 1548.19,1174.72 1571.5,1151.05C1592.11,1130.13 1618.3,1119.13 1650.3,1119.13C1746.42,1119.13 1753.73,1256.42 1750.39,1320.93C1744.36,1437.62 1625.78,1433.68 1605.09,1440.74C1544.93,1461.26 1444.14,1381.17 1430.1,1325.4C1423.89,1300.71 1430.1,1301.95 1430.1,1274.94" style="fill:rgb(241,114,172);stroke:rgb(35,31,32);stroke-width:20.83px;"/>
            </g>
            <g transform="matrix(1,0,0,1,-529.146,253.25)">
                <path d="M1561.5,1380.89C1539.94,1380.89 1535.57,1368.48 1524.82,1357.73C1467.78,1300.68 1609.1,1264.6 1640.9,1296.41C1666.75,1322.25 1652.85,1552.3 1489.44,1551.96C1321.34,1551.61 1343.17,1349.11 1355.37,1258.98" style="fill:rgb(241,114,172);stroke:rgb(35,31,32);stroke-width:20.83px;"/>
            </g>
        </g>
        <g transform="matrix(0.770902,-0.636954,0.636954,0.770902,-168.778,455.585)">
            <path d="M1212.64,1862.11C1212.64,1843.27 1197.35,1827.98 1178.52,1827.98L1019.27,1827.98C1000.43,1827.98 985.141,1843.27 985.141,1862.11L985.141,2150.03C985.141,2168.86 1000.43,2184.15 1019.27,2184.15L1178.52,2184.15C1197.35,2184.15 1212.64,2168.86 1212.64,2150.03L1212.64,1862.11Z" style="fill:rgb(88,89,91);stroke:rgb(35,31,32);stroke-width:20.83px;"/>
        </g>
        <g transform="matrix(0.55669,-0.464702,0.438876,0.525751,458.064,749.504)">
            <rect x="985.141" y="1827.98" width="227.503" height="356.171" style="fill:rgb(225,244,253);"/>
        </g>
        <g transform="matrix(0.357852,-0.295022,0.185751,0.22531,1232.7,1199.3)">
            <path d="M1212.64,1917.03C1212.64,1867.88 1187.52,1827.98 1156.58,1827.98L1041.2,1827.98C1010.26,1827.98 985.141,1867.88 985.141,1917.03L985.141,2095.11C985.141,2144.26 1010.26,2184.15 1041.2,2184.15L1156.58,2184.15C1187.52,2184.15 1212.64,2144.26 1212.64,2095.11L1212.64,1917.03Z" style="fill:rgb(134,200,121);"/>
        </g>
        <g transform="matrix(1,0,0,1,-0.5,1)">
            <g transform="matrix(0.237984,-0.184631,0.0201687,0.0259969,1684.33,1459.47)">
                <rect x="985.141" y="1827.98" width="227.503" height="356.171" style="fill:white;"/>
            </g>
            <g transform="matrix(0.237984,-0.184631,0.0201687,0.0259969,1696.64,1476.7)">
                <rect x="985.141" y="1827.98" width="227.503" height="356.171" style="fill:white;"/>
            </g>
            <g transform="matrix(0.237984,-0.184631,0.0201687,0.0259969,1709.85,1494.18)">
                <rect x="985.141" y="1827.98" width="227.503" height="356.171" style="fill:white;"/>
            </g>
        </g>
        <g transform="matrix(-0.384968,0.323212,-0.181122,-0.21573,2689.73,1336.3)">
            <path d="M1212.64,1917.03C1212.64,1867.88 1190.29,1827.98 1162.75,1827.98L1035.04,1827.98C1007.5,1827.98 985.141,1867.88 985.141,1917.03L985.141,2095.11C985.141,2144.26 1007.5,2184.15 1035.04,2184.15L1162.75,2184.15C1190.29,2184.15 1212.64,2144.26 1212.64,2095.11L1212.64,1917.03Z" style="fill:rgb(167,169,172);"/>
        </g>
        <g transform="matrix(0.231596,-0.192583,0.0210374,0.0252991,1593.87,1403.62)">
            <rect x="985.141" y="1827.98" width="227.503" height="356.171" style="fill:rgb(88,89,91);"/>
        </g>
        <g transform="matrix(0.231596,-0.192583,0.0210374,0.0252991,1606.69,1419.46)">
            <rect x="985.141" y="1827.98" width="227.503" height="356.171" style="fill:rgb(88,89,91);"/>
        </g>
        <g transform="matrix(0.231596,-0.192583,0.0210374,0.0252991,1619.42,1435.56)">
            <rect x="985.141" y="1827.98" width="227.503" height="356.171" style="fill:rgb(88,89,91);"/>
        </g>
        <g transform="matrix(0.865797,0.500396,-0.500396,0.865797,1170.75,-1114.54)">
            <g transform="matrix(1,0,0,1,-160.937,301.008)">
                <path d="M2337.37,951.254C2492.44,804.758 2710.73,819.906 2710.64,819.802C2710.58,819.736 2537.68,1014.19 2537.68,1041.65" style="fill:rgb(186,202,211);stroke:rgb(35,31,32);stroke-width:20.83px;"/>
            </g>
            <g transform="matrix(1,0,0,1,-160.937,301.008)">
                <path d="M1990.58,1065.4L1999.23,1135.76L2028.89,1103.04L2032.67,1155.01L2070.62,1119.06L2094.41,1155.01L2125.06,1135.76" style="fill:white;stroke:rgb(35,31,32);stroke-width:12.5px;"/>
            </g>
            <g transform="matrix(1,0,0,1,-160.937,301.008)">
                <path d="M2025,1217.37L2010.81,1148.57L2053.12,1186.24L2057.63,1144.89L2094.41,1164.78" style="fill:white;stroke:rgb(35,31,32);stroke-width:12.5px;"/>
            </g>
            <g transform="matrix(1,0,0,1,-160.937,301.008)">
                <path d="M2063.65,706.31C2003.87,706.31 1982,985.255 1995.09,1066.1C1995.24,1067.02 2129.36,1128.91 2129.36,1128.91C2129.36,1128.91 2104.91,1179.02 2030.61,1211.98C2007.35,1222.3 2231.57,1395.27 2323.09,1395.27" style="fill:white;stroke:rgb(35,31,32);stroke-width:20.83px;"/>
            </g>
            <g transform="matrix(1,0,0,1,-160.937,301.008)">
                <path d="M2525.86,1415.31C2772.98,1436.45 2889.75,1289.1 2889.7,1289.64L2484.18,1251.8" style="fill:white;stroke:rgb(35,31,32);stroke-width:20.83px;"/>
            </g>
            <g transform="matrix(1,0,0,1,-160.937,301.008)">
                <path d="M2063.65,706.31C2063.65,706.31 2171.94,841.436 2238.17,887.918C2560.75,1114.33 2893.2,1112.75 2893.2,1112.75C2932.47,985.236 3049.9,945.769 3049.27,949.149C2994.07,1245.65 3050.65,1428.74 3049.27,1428.27C2919.6,1384.73 2893.8,1281.31 2893.2,1281.43C2679.6,1325.88 2498.19,1284.8 2498.24,1286.43C2503.52,1446.05 2575.74,1595.69 2571.67,1595C2308.24,1550.52 2274.61,1238.48 2274.61,1240.3C2274.61,1240.81 2019.29,1071.39 2063.65,706.31Z" style="fill:rgb(186,202,211);stroke:rgb(35,31,32);stroke-width:20.83px;"/>
            </g>
            <g transform="matrix(1,0,0,1,-160.937,301.008)">
                <path d="M2167.18,839.763C2167.71,842.131 2109.74,908.734 2197.43,975.375C2271.65,1031.78 2330.79,959.504 2330.79,956.657" style="fill:white;stroke:rgb(35,31,32);stroke-width:20.83px;"/>
            </g>
            <g transform="matrix(1,0,0,1,-159.937,289.008)">
                <path d="M2204.38,877.697C2204.38,878.876 2174.59,922.199 2217.89,951.149C2265.35,982.872 2293.64,942.215 2293.74,942.203" style="fill:rgb(35,31,32);stroke:rgb(35,31,32);stroke-width:20.83px;"/>
            </g>
        </g>
        <g transform="matrix(0.704296,0,0,0.704296,593.614,404.664)">
            <circle cx="2074.96" cy="1421.61" r="24.834" style="fill:rgb(35,31,32);"/>
        </g>
        <g transform="matrix(1,0,0,1,9.29155,-28.9301)">
            <g transform="matrix(0.712654,0,0,0.712654,523.854,380.495)">
                <path d="M1145.18,1240.39C1140.4,1240.39 1132.82,1229.89 1129.94,1226.82C1119.69,1215.93 1071.14,1221.81 1055.09,1221.81C1029.31,1221.81 1038.76,1261.85 1054.67,1272.28C1089.67,1295.23 1176.64,1316.45 1217.64,1295.63C1224.09,1292.36 1241.03,1300.92 1245.37,1296.58C1254.26,1287.7 1226.16,1278.61 1223.18,1278.11C1196.33,1273.6 1152.33,1252.37 1152.33,1223.57" style="fill:rgb(0,166,80);stroke:rgb(35,31,32);stroke-width:29.23px;"/>
            </g>
            <g transform="matrix(0.768999,0.63925,-0.63925,0.768999,1717.61,-850.718)">
                <path d="M1212.64,1862.11C1212.64,1843.27 1197.35,1827.98 1178.52,1827.98L1019.27,1827.98C1000.43,1827.98 985.141,1843.27 985.141,1862.11L985.141,2150.03C985.141,2168.86 1000.43,2184.15 1019.27,2184.15L1178.52,2184.15C1197.35,2184.15 1212.64,2168.86 1212.64,2150.03L1212.64,1862.11Z" style="fill:white;stroke:rgb(209,211,212);stroke-width:20.83px;"/>
            </g>
            <g transform="matrix(0.199616,0.165936,-0.0315722,0.0379804,1032.33,1242.48)">
                <path d="M1212.64,1881.41C1212.64,1851.92 1208.09,1827.98 1202.48,1827.98L995.306,1827.98C989.696,1827.98 985.141,1851.92 985.141,1881.41L985.141,2130.73C985.141,2160.22 989.696,2184.15 995.306,2184.15L1202.48,2184.15C1208.09,2184.15 1212.64,2160.22 1212.64,2130.73L1212.64,1881.41Z" style="fill:rgb(230,231,232);"/>
            </g>
            <g transform="matrix(0.558925,0.464621,-0.447686,0.538552,1570.75,-202.023)">
                <rect x="985.141" y="1827.98" width="227.503" height="356.171" style="fill:rgb(199,234,251);"/>
            </g>
            <g transform="matrix(1,0,0,1,5,4)">
                <g transform="matrix(0.35665,0.296475,-0.186666,0.224553,1290.05,553.475)">
                    <path d="M1212.64,1917.03C1212.64,1867.88 1187.52,1827.98 1156.58,1827.98L1041.2,1827.98C1010.26,1827.98 985.141,1867.88 985.141,1917.03L985.141,2095.11C985.141,2144.26 1010.26,2184.15 1041.2,2184.15L1156.58,2184.15C1187.52,2184.15 1212.64,2144.26 1212.64,2095.11L1212.64,1917.03Z" style="fill:rgb(134,200,121);"/>
                </g>
                <g transform="matrix(1,0,0,1,0.70641,0.559422)">
                    <g transform="matrix(0.231627,0.192546,-0.0210333,0.0253025,1108.53,1050.03)">
                        <rect x="985.141" y="1827.98" width="227.503" height="356.171" style="fill:white;"/>
                    </g>
                    <g transform="matrix(0.231627,0.192546,-0.0210333,0.0253025,1094.09,1067.35)">
                        <rect x="985.141" y="1827.98" width="227.503" height="356.171" style="fill:white;"/>
                    </g>
                    <g transform="matrix(0.231627,0.192546,-0.0210333,0.0253025,1080.39,1083.64)">
                        <rect x="985.141" y="1827.98" width="227.503" height="356.171" style="fill:white;"/>
                    </g>
                </g>
            </g>
            <g transform="matrix(1,0,0,1,-2,0)">
                <g transform="matrix(0.386544,0.321325,-0.180065,0.216613,1195.33,652.181)">
                    <path d="M1212.64,1917.03C1212.64,1867.88 1190.29,1827.98 1162.75,1827.98L1035.04,1827.98C1007.5,1827.98 985.141,1867.88 985.141,1917.03L985.141,2095.11C985.141,2144.26 1007.5,2184.15 1035.04,2184.15L1162.75,2184.15C1190.29,2184.15 1212.64,2144.26 1212.64,2095.11L1212.64,1917.03Z" style="fill:rgb(167,169,172);"/>
                </g>
                <g transform="matrix(1,0,0,1,-1,-1.5)">
                    <g transform="matrix(0.231627,0.192546,-0.0210333,0.0253025,1060.47,1162.81)">
                        <rect x="985.141" y="1827.98" width="227.503" height="356.171" style="fill:rgb(88,89,91);"/>
                    </g>
                    <g transform="matrix(0.231627,0.192546,-0.0210333,0.0253025,1047.16,1179.11)">
                        <rect x="985.141" y="1827.98" width="227.503" height="356.171" style="fill:rgb(88,89,91);"/>
                    </g>
                    <g transform="matrix(0.231627,0.192546,-0.0210333,0.0253025,1034.6,1195.14)">
                        <rect x="985.141" y="1827.98" width="227.503" height="356.171" style="fill:rgb(88,89,91);"/>
                    </g>
                </g>
            </g>
        </g>
    </g>
</svg>
