<?xml version="1.0" encoding="UTF-8" standalone="no"?>
<!DOCTYPE svg PUBLIC "-//W3C//DTD SVG 1.1//EN" "http://www.w3.org/Graphics/SVG/1.1/DTD/svg11.dtd">
<svg width="100%" height="100%" viewBox="0 0 3508 2481" version="1.1" xmlns="http://www.w3.org/2000/svg" xmlns:xlink="http://www.w3.org/1999/xlink" xml:space="preserve" xmlns:serif="http://www.serif.com/" style="fill-rule:evenodd;clip-rule:evenodd;stroke-linecap:round;stroke-linejoin:round;stroke-miterlimit:1.5;">
    <g transform="matrix(4.25046,0,0,3.04178,-1067.48,-1409.54)">
        <rect x="251.145" y="463.392" width="825.293" height="412.817" style="fill:rgb(187,189,192);stroke:rgb(35,31,32);stroke-width:5.64px;"/>
    </g>
    <g transform="matrix(4.71714,0,0,1.31885,-931.455,-259.115)">
        <rect x="197.462" y="826.376" width="743.644" height="322.211" style="fill:rgb(253,184,18);stroke:rgb(35,31,32);stroke-width:6.02px;"/>
    </g>
    <g transform="matrix(1.07392,0,0,0.776223,-259.305,555.038)">
        <rect x="241.456" y="1280.16" width="3266.42" height="1200.16" style="fill:rgb(231,232,233);stroke:rgb(35,31,32);stroke-width:22.23px;"/>
    </g>
    <g transform="matrix(4.908,0,0,1,-1411.54,306.93)">
        <rect x="287.6" y="1020.21" width="714.726" height="371.832" style="fill:rgb(88,89,91);stroke:rgb(35,31,32);stroke-width:5.88px;"/>
    </g>
    <g transform="matrix(1.13745,0,0,1,-577.006,268.568)">
        <rect x="507.281" y="987.132" width="3083.98" height="71.439" style="fill:rgb(253,184,18);stroke:rgb(35,31,32);stroke-width:19.45px;"/>
    </g>
    <g transform="matrix(1,0,0,1,-556.305,358.048)">
        <path d="M2331.02,943.813C2335.82,943.813 2393.17,896.04 2466.2,865.139C2552.8,828.497 2710.73,819.906 2710.64,819.802C2710.58,819.736 2537.68,1014.19 2537.68,1041.65" style="fill:rgb(186,202,211);stroke:rgb(35,31,32);stroke-width:20.83px;"/>
    </g>
    <g transform="matrix(1,0,0,1,-556.305,358.048)">
        <path d="M1990.58,1063.79L1999.23,1135.76L2028.89,1103.04L2032.67,1155.01L2070.62,1119.06L2094.41,1155.01L2125.06,1135.76" style="fill:white;stroke:rgb(35,31,32);stroke-width:12.5px;"/>
    </g>
    <g transform="matrix(1,0,0,1,-556.305,358.048)">
        <path d="M2026.8,1215.61L2010.81,1148.57L2053.12,1186.24L2057.63,1144.89L2094.41,1164.78" style="fill:white;stroke:rgb(35,31,32);stroke-width:12.5px;"/>
    </g>
    <g transform="matrix(1,0,0,1,-556.305,358.048)">
        <path d="M2065.21,713.856C2005.43,713.856 1979.32,1015.42 1995.09,1066.1C2006.79,1103.66 2067.24,1123.68 2107.6,1123.68C2115.06,1123.68 2129.36,1128.91 2129.36,1128.91C2129.36,1128.91 2125.8,1136.06 2122.61,1138.13C2099.45,1153.18 2090.2,1176.92 2063.51,1190.07C2057,1193.28 2028.94,1205.3 2030.61,1211.98C2036.78,1236.67 2069.79,1254.11 2088.18,1268.69C2158.88,1324.74 2231.57,1395.27 2323.09,1395.27" style="fill:white;stroke:rgb(35,31,32);stroke-width:20.83px;"/>
    </g>
    <g transform="matrix(1,0,0,1,-556.305,358.048)">
        <path d="M2525.86,1415.31C2644.62,1415.31 2731.72,1416.12 2830.81,1350.22C2849.77,1337.61 2889.7,1314.63 2889.7,1289.64L2484.18,1251.8" style="fill:white;stroke:rgb(35,31,32);stroke-width:20.83px;"/>
    </g>
    <g transform="matrix(1,0,0,1,-556.305,358.048)">
        <path d="M2063.65,706.31C2063.65,706.31 2168.8,846.277 2238.17,887.918C2429.39,1002.7 2628.55,1105.86 2854.29,1105.86L2852.14,1109.99C2852.14,1010.76 2922.42,904.807 3008.41,861.451C3009.33,860.988 3020.39,855.051 3021.01,855.607C3023.49,857.825 3016.32,882.923 3015.66,885.866C2991.75,993.136 2990.35,1121.44 3001.23,1230.76C3006.18,1280.43 3009.65,1330.45 3025.67,1378.07C3026.47,1380.44 3050.25,1427.2 3049.27,1428.27C3045.65,1432.26 3031.92,1422.19 3029.38,1420.17C2999.78,1396.67 2964.52,1377.18 2938.91,1349.95C2919.89,1329.72 2912.25,1300.48 2893.2,1281.43C2892.64,1280.88 2887.2,1281.43 2886.34,1281.43C2867.14,1281.43 2849.89,1292.65 2831.12,1296.18C2782.12,1305.4 2721.2,1311.16 2669.94,1304.13C2624.59,1297.92 2585.48,1276.47 2541.29,1267.25C2522.86,1263.4 2500.37,1251.74 2481.83,1251.74C2480.65,1251.74 2479.28,1248.11 2479.28,1249.29C2479.28,1272.69 2498.37,1300.96 2505.11,1323.43C2521.11,1376.78 2528.13,1432.04 2540.05,1486.09C2546.04,1513.28 2554.03,1539.82 2562.4,1564.1C2563.9,1568.46 2575.59,1596.31 2571.67,1595C2560.26,1591.17 2406.58,1543.12 2329.87,1398.09C2313.51,1367.18 2291.75,1327.71 2286.96,1292.78C2285.24,1280.22 2281.33,1268.88 2278.22,1256.52C2277.35,1253.09 2274.61,1238.48 2274.61,1240.3C2254.51,1240.3 2234.77,1215.88 2220.45,1201.56C2092.95,1074.06 2063.65,880.29 2063.65,706.31Z" style="fill:rgb(186,202,211);stroke:rgb(35,31,32);stroke-width:20.83px;"/>
    </g>
    <g transform="matrix(1,0,0,1,-556.305,358.048)">
        <path d="M2167.18,839.763C2152.19,854.504 2148.75,889.881 2148.61,891.658C2140.76,991.336 2288.96,1032.99 2319.7,970.579C2321.62,966.682 2330.79,959.504 2330.79,956.657" style="fill:white;stroke:rgb(35,31,32);stroke-width:20.83px;"/>
    </g>
    <g transform="matrix(1,0,0,1,-554.305,344.048)">
        <path d="M2204.38,877.697C2204.38,892.386 2183.07,907.08 2192.25,924.878C2203.78,947.246 2271.39,964.917 2293.74,942.203" style="fill:rgb(35,31,32);stroke:rgb(35,31,32);stroke-width:20.83px;"/>
    </g>
    <g transform="matrix(1.09807,0,0,1.87933,-175.007,-349.187)">
        <rect x="159.377" y="185.804" width="937.743" height="442.046" style="fill:white;stroke:rgb(35,31,32);stroke-width:13.54px;"/>
    </g>
    <g transform="matrix(1.32381,0,0,1.87933,930.098,-349.187)">
        <rect x="159.377" y="185.804" width="937.743" height="442.046" style="fill:white;stroke:rgb(35,31,32);stroke-width:12.82px;"/>
    </g>
    <g transform="matrix(1.09807,0,0,1.87933,2303.15,-349.187)">
        <rect x="159.377" y="185.804" width="937.743" height="442.046" style="fill:white;stroke:rgb(35,31,32);stroke-width:13.54px;"/>
    </g>
    <g transform="matrix(1.03225,0,0,1.75136,-164.517,-325.409)">
        <rect x="159.377" y="185.804" width="937.743" height="442.046" style="fill:rgb(109,207,246);stroke:rgb(35,31,32);stroke-width:14.49px;"/>
    </g>
    <g transform="matrix(1.19127,0,0,1.75136,1013.79,-325.409)">
        <rect x="159.377" y="185.804" width="937.743" height="442.046" style="fill:rgb(109,207,246);stroke:rgb(35,31,32);stroke-width:13.91px;"/>
    </g>
    <g transform="matrix(1.03135,0,0,1.75136,2376.36,-325.409)">
        <rect x="159.377" y="185.804" width="937.743" height="442.046" style="fill:rgb(109,207,246);stroke:rgb(35,31,32);stroke-width:14.5px;"/>
    </g>
    <g transform="matrix(0.866517,0,0,1,-54.2164,0)">
        <rect x="62.568" y="167.525" width="1117.1" height="57.493" style="fill:white;stroke:rgb(35,31,32);stroke-width:22.27px;"/>
    </g>
    <g transform="matrix(0.997437,0,0,1,1144.11,0)">
        <rect x="62.568" y="167.525" width="1117.1" height="57.493" style="fill:white;stroke:rgb(35,31,32);stroke-width:20.86px;"/>
    </g>
    <g transform="matrix(0.865762,0,0,1,2486.56,0)">
        <rect x="62.568" y="167.525" width="1117.1" height="57.493" style="fill:white;stroke:rgb(35,31,32);stroke-width:22.27px;"/>
    </g>
    <g transform="matrix(1,0,0,1.35043,-72.5542,-305.471)">
        <rect x="782.853" y="226.203" width="75.166" height="1411.9" style="fill:rgb(187,189,192);stroke:rgb(35,31,32);stroke-width:17.53px;"/>
    </g>
    <g transform="matrix(1,0,0,1.35043,1969.68,-305.471)">
        <rect x="782.853" y="226.203" width="75.166" height="1411.9" style="fill:rgb(187,189,192);stroke:rgb(35,31,32);stroke-width:17.53px;"/>
    </g>
</svg>
