<?xml version="1.0" encoding="UTF-8" standalone="no"?><!DOCTYPE svg PUBLIC "-//W3C//DTD SVG 1.1//EN" "http://www.w3.org/Graphics/SVG/1.1/DTD/svg11.dtd"><svg width="100%" height="100%" viewBox="0 0 820 547" version="1.1" xmlns="http://www.w3.org/2000/svg" xmlns:xlink="http://www.w3.org/1999/xlink" xml:space="preserve" xmlns:serif="http://www.serif.com/" style="fill-rule:evenodd;clip-rule:evenodd;stroke-linecap:round;stroke-linejoin:round;stroke-miterlimit:1.5;"><circle cx="618.359" cy="224.773" r="113.386" style="fill:#395e6e;stroke:#231f20;stroke-width:5px;"/><rect x="448.28" y="224.773" width="340.157" height="199.997" style="fill:#b19585;stroke:#231f20;stroke-width:5px;"/><rect x="590.012" y="86.595" width="56.693" height="28.371" style="fill:#b19585;stroke:#231f20;stroke-width:5px;"/><rect x="20.86" y="202.764" width="368.504" height="289.058" style="fill:#fff1e2;stroke:#231f20;stroke-width:5px;"/><rect x="448.28" y="310.605" width="340.157" height="181.217" style="fill:#b19585;stroke:#231f20;stroke-width:5px;"/><path d="M2.5,202.764l19.894,-91.377l365.032,0l20.492,91.377l-405.418,0Z" style="fill:#073240;stroke:#231f20;stroke-width:5px;"/><rect x="448.28" y="111.387" width="56.693" height="380.435" style="fill:#b19585;stroke:#231f20;stroke-width:5px;"/><rect x="419.934" y="274.728" width="28.346" height="217.094" style="fill:#b19585;stroke:#231f20;stroke-width:5px;"/><rect x="788.438" y="274.728" width="28.346" height="217.094" style="fill:#b19585;stroke:#231f20;stroke-width:5px;"/><rect x="556.979" y="224.773" width="28.346" height="45.533" style="fill:#b19585;stroke:#231f20;stroke-width:5px;"/><rect x="651.392" y="225.845" width="28.346" height="45.533" style="fill:#b19585;stroke:#231f20;stroke-width:5px;"/><rect x="731.745" y="111.387" width="56.693" height="380.435" style="fill:#b19585;stroke:#231f20;stroke-width:5px;"/><path d="M590.012,87.539l56.693,0l-28.346,-85.039l-28.347,85.039Z" style="fill:#e7dabe;stroke:#231f20;stroke-width:5px;"/><path d="M448.28,111.387l56.693,0l-28.346,-85.039l-28.347,85.039Z" style="fill:#e7dabe;stroke:#231f20;stroke-width:5px;"/><path d="M448.28,111.387l28.347,0l-14.174,-42.52l-14.173,42.52Z" style="fill:#e7dabe;stroke:#231f20;stroke-width:5px;"/><path d="M419.934,274.728l28.346,0l-14.173,-42.519l-14.173,42.519Z" style="fill:#e7dabe;stroke:#231f20;stroke-width:5px;"/><path d="M788.438,274.728l28.346,0l-14.173,-42.519l-14.173,42.519Z" style="fill:#e7dabe;stroke:#231f20;stroke-width:5px;"/><path d="M476.627,111.387l28.346,0l-14.173,-42.52l-14.173,42.52Z" style="fill:#e7dabe;stroke:#231f20;stroke-width:5px;"/><path d="M731.745,111.387l56.693,0l-28.347,-85.039l-28.346,85.039Z" style="fill:#e7dabe;stroke:#231f20;stroke-width:5px;"/><g><rect x="59.313" y="241.707" width="33.256" height="63.664" style="fill:#a7a9ac;stroke:#231f20;stroke-width:5px;"/><path d="M59.313,267.111l33.256,0" style="fill:none;stroke:#fff;stroke-width:5px;"/><path d="M75.941,267.111l0,38.261" style="fill:none;stroke:#fff;stroke-width:5px;"/><rect x="49.145" y="241.707" width="10.168" height="76.696" style="fill:#fff1e2;stroke:#231f20;stroke-width:5px;"/><rect x="93.069" y="241.707" width="10.168" height="76.696" style="fill:#fff1e2;stroke:#231f20;stroke-width:5px;"/><rect x="49.145" y="305.372" width="54.093" height="13.032" style="fill:#fff1e2;stroke:#231f20;stroke-width:5px;"/><path d="M49.145,241.707l54.093,0l-27.297,-22.008l-26.796,22.008Z" style="fill:#fff1e2;stroke:#231f20;stroke-width:5px;"/></g><g><rect x="59.313" y="241.707" width="33.256" height="63.664" style="fill:#a7a9ac;stroke:#231f20;stroke-width:5px;"/><path d="M59.313,267.111l33.256,0" style="fill:none;stroke:#fff;stroke-width:5px;"/><path d="M75.941,267.111l0,38.261" style="fill:none;stroke:#fff;stroke-width:5px;"/><rect x="49.145" y="241.707" width="10.168" height="76.696" style="fill:#fff1e2;stroke:#231f20;stroke-width:5px;"/><rect x="93.069" y="241.707" width="10.168" height="76.696" style="fill:#fff1e2;stroke:#231f20;stroke-width:5px;"/><rect x="49.145" y="305.372" width="54.093" height="13.032" style="fill:#fff1e2;stroke:#231f20;stroke-width:5px;"/><path d="M49.145,241.707l54.093,0l-27.297,-22.008l-26.796,22.008Z" style="fill:#fff1e2;stroke:#231f20;stroke-width:5px;"/></g><g><rect x="59.313" y="363.205" width="33.256" height="63.664" style="fill:#a7a9ac;stroke:#231f20;stroke-width:5px;"/><path d="M59.313,388.608l33.256,0" style="fill:none;stroke:#fff;stroke-width:5px;"/><path d="M75.941,388.608l0,38.261" style="fill:none;stroke:#fff;stroke-width:5px;"/><rect x="49.145" y="363.205" width="10.168" height="76.696" style="fill:#fff1e2;stroke:#231f20;stroke-width:5px;"/><rect x="93.069" y="363.205" width="10.168" height="76.696" style="fill:#fff1e2;stroke:#231f20;stroke-width:5px;"/><rect x="49.145" y="426.869" width="54.093" height="13.032" style="fill:#fff1e2;stroke:#231f20;stroke-width:5px;"/><path d="M49.145,363.205l54.093,0l-27.297,-22.009l-26.796,22.009Z" style="fill:#fff1e2;stroke:#231f20;stroke-width:5px;"/></g><g><rect x="147.236" y="241.707" width="33.256" height="63.664" style="fill:#a7a9ac;stroke:#231f20;stroke-width:5px;"/><path d="M147.236,267.111l33.256,0" style="fill:none;stroke:#fff;stroke-width:5px;"/><path d="M163.864,267.111l0,38.261" style="fill:none;stroke:#fff;stroke-width:5px;"/><rect x="137.068" y="241.707" width="10.168" height="76.696" style="fill:#fff1e2;stroke:#231f20;stroke-width:5px;"/><rect x="180.992" y="241.707" width="10.168" height="76.696" style="fill:#fff1e2;stroke:#231f20;stroke-width:5px;"/><rect x="137.068" y="305.372" width="54.093" height="13.032" style="fill:#fff1e2;stroke:#231f20;stroke-width:5px;"/><path d="M137.068,241.707l54.092,0l-27.296,-22.008l-26.796,22.008Z" style="fill:#fff1e2;stroke:#231f20;stroke-width:5px;"/></g><g><rect x="147.956" y="241.707" width="33.256" height="63.664" style="fill:#a7a9ac;stroke:#231f20;stroke-width:5px;"/><path d="M147.956,267.111l33.256,0" style="fill:none;stroke:#fff;stroke-width:5px;"/><path d="M164.584,267.111l0,38.261" style="fill:none;stroke:#fff;stroke-width:5px;"/><rect x="137.788" y="241.707" width="10.168" height="76.696" style="fill:#fff1e2;stroke:#231f20;stroke-width:5px;"/><rect x="181.712" y="241.707" width="10.168" height="76.696" style="fill:#fff1e2;stroke:#231f20;stroke-width:5px;"/><rect x="137.788" y="305.372" width="54.093" height="13.032" style="fill:#fff1e2;stroke:#231f20;stroke-width:5px;"/><path d="M137.788,241.707l54.092,0l-27.296,-22.008l-26.796,22.008Z" style="fill:#fff1e2;stroke:#231f20;stroke-width:5px;"/></g><g><rect x="147.956" y="363.205" width="33.256" height="63.664" style="fill:#a7a9ac;stroke:#231f20;stroke-width:5px;"/><path d="M147.956,388.608l33.256,0" style="fill:none;stroke:#fff;stroke-width:5px;"/><path d="M164.584,388.608l0,38.261" style="fill:none;stroke:#fff;stroke-width:5px;"/><rect x="137.788" y="363.205" width="10.168" height="76.696" style="fill:#fff1e2;stroke:#231f20;stroke-width:5px;"/><rect x="181.712" y="363.205" width="10.168" height="76.696" style="fill:#fff1e2;stroke:#231f20;stroke-width:5px;"/><rect x="137.788" y="426.869" width="54.093" height="13.032" style="fill:#fff1e2;stroke:#231f20;stroke-width:5px;"/><path d="M137.788,363.205l54.092,0l-27.296,-22.009l-26.796,22.009Z" style="fill:#fff1e2;stroke:#231f20;stroke-width:5px;"/></g><g><rect x="229.578" y="241.707" width="33.256" height="63.664" style="fill:#a7a9ac;stroke:#231f20;stroke-width:5px;"/><path d="M229.578,267.111l33.255,0" style="fill:none;stroke:#fff;stroke-width:5px;"/><path d="M246.205,267.111l0,38.261" style="fill:none;stroke:#fff;stroke-width:5px;"/><rect x="219.409" y="241.707" width="10.168" height="76.696" style="fill:#fff1e2;stroke:#231f20;stroke-width:5px;"/><rect x="263.333" y="241.707" width="10.168" height="76.696" style="fill:#fff1e2;stroke:#231f20;stroke-width:5px;"/><rect x="219.409" y="305.372" width="54.093" height="13.032" style="fill:#fff1e2;stroke:#231f20;stroke-width:5px;"/><path d="M219.409,241.707l54.093,0l-27.297,-22.008l-26.796,22.008Z" style="fill:#fff1e2;stroke:#231f20;stroke-width:5px;"/></g><g><rect x="230.298" y="241.707" width="33.256" height="63.664" style="fill:#a7a9ac;stroke:#231f20;stroke-width:5px;"/><path d="M230.298,267.111l33.255,0" style="fill:none;stroke:#fff;stroke-width:5px;"/><path d="M246.925,267.111l0,38.261" style="fill:none;stroke:#fff;stroke-width:5px;"/><rect x="220.129" y="241.707" width="10.168" height="76.696" style="fill:#fff1e2;stroke:#231f20;stroke-width:5px;"/><rect x="264.053" y="241.707" width="10.168" height="76.696" style="fill:#fff1e2;stroke:#231f20;stroke-width:5px;"/><rect x="220.129" y="305.372" width="54.093" height="13.032" style="fill:#fff1e2;stroke:#231f20;stroke-width:5px;"/><path d="M220.129,241.707l54.093,0l-27.297,-22.008l-26.796,22.008Z" style="fill:#fff1e2;stroke:#231f20;stroke-width:5px;"/></g><g><rect x="317.047" y="241.707" width="33.256" height="63.664" style="fill:#a7a9ac;stroke:#231f20;stroke-width:5px;"/><path d="M317.047,267.111l33.256,0" style="fill:none;stroke:#fff;stroke-width:5px;"/><path d="M333.675,267.111l0,38.261" style="fill:none;stroke:#fff;stroke-width:5px;"/><rect x="306.878" y="241.707" width="10.168" height="76.696" style="fill:#fff1e2;stroke:#231f20;stroke-width:5px;"/><rect x="350.802" y="241.707" width="10.168" height="76.696" style="fill:#fff1e2;stroke:#231f20;stroke-width:5px;"/><rect x="306.878" y="305.372" width="54.093" height="13.032" style="fill:#fff1e2;stroke:#231f20;stroke-width:5px;"/><path d="M306.878,241.707l54.093,0l-27.296,-22.008l-26.797,22.008Z" style="fill:#fff1e2;stroke:#231f20;stroke-width:5px;"/></g><g><rect x="317.047" y="241.707" width="33.256" height="63.664" style="fill:#a7a9ac;stroke:#231f20;stroke-width:5px;"/><path d="M317.047,267.111l33.256,0" style="fill:none;stroke:#fff;stroke-width:5px;"/><path d="M333.675,267.111l0,38.261" style="fill:none;stroke:#fff;stroke-width:5px;"/><rect x="306.878" y="241.707" width="10.168" height="76.696" style="fill:#fff1e2;stroke:#231f20;stroke-width:5px;"/><rect x="350.802" y="241.707" width="10.168" height="76.696" style="fill:#fff1e2;stroke:#231f20;stroke-width:5px;"/><rect x="306.878" y="305.372" width="54.093" height="13.032" style="fill:#fff1e2;stroke:#231f20;stroke-width:5px;"/><path d="M306.878,241.707l54.093,0l-27.296,-22.008l-26.797,22.008Z" style="fill:#fff1e2;stroke:#231f20;stroke-width:5px;"/></g><rect x="74.975" y="141.572" width="34.016" height="34.016" style="fill:#a7a9ac;stroke:#231f20;stroke-width:5px;"/><rect x="131.668" y="141.572" width="34.016" height="34.016" style="fill:#a7a9ac;stroke:#231f20;stroke-width:5px;"/><rect x="188.361" y="141.572" width="34.016" height="34.016" style="fill:#a7a9ac;stroke:#231f20;stroke-width:5px;"/><rect x="244.735" y="141.572" width="34.016" height="34.016" style="fill:#a7a9ac;stroke:#231f20;stroke-width:5px;"/><rect x="301.428" y="141.572" width="34.016" height="34.016" style="fill:#a7a9ac;stroke:#231f20;stroke-width:5px;"/><path d="M63.636,141.572l56.693,0l-28.608,-21.26l-28.085,21.26Z" style="fill:#fff1e2;stroke:#231f20;stroke-width:5px;"/><path d="M120.329,141.572l56.693,0l-28.608,-21.26l-28.085,21.26Z" style="fill:#fff1e2;stroke:#231f20;stroke-width:5px;"/><path d="M177.022,141.572l56.693,0l-28.608,-21.26l-28.085,21.26Z" style="fill:#fff1e2;stroke:#231f20;stroke-width:5px;"/><path d="M233.396,141.572l56.693,0l-28.608,-21.26l-28.085,21.26Z" style="fill:#fff1e2;stroke:#231f20;stroke-width:5px;"/><path d="M290.089,141.572l56.693,0l-28.608,-21.26l-28.085,21.26Z" style="fill:#fff1e2;stroke:#231f20;stroke-width:5px;"/><path d="M524.646,394.778c0,-7.823 6.351,-14.173 14.173,-14.173c7.822,0 14.173,6.35 14.173,14.173l0,56.693l-28.404,0l0,-56.693l0.058,0Z" style="fill:#395e6e;stroke:#231f20;stroke-width:5px;"/><path d="M524.891,242.627c0,-3.735 3.031,-6.766 6.766,-6.766c3.734,0 6.766,3.031 6.766,6.766l0,18.426l-13.56,0l0,-18.426l0.028,0Z" style="fill:#231f20;stroke:#231f20;stroke-width:5px;"/><path d="M698.24,242.627c0,-3.735 3.031,-6.766 6.766,-6.766c3.734,0 6.766,3.031 6.766,6.766l0,18.426l-13.56,0l0,-18.426l0.028,0Z" style="fill:#231f20;stroke:#231f20;stroke-width:5px;"/><path d="M462.482,394.778c0,-7.823 6.351,-14.173 14.174,-14.173c7.822,0 14.173,6.35 14.173,14.173l0,56.693l-28.405,0l0,-56.693l0.058,0Z" style="fill:#395e6e;stroke:#231f20;stroke-width:5px;"/><path d="M746.262,394.778c0,-7.823 6.351,-14.173 14.173,-14.173c7.823,0 14.174,6.35 14.174,14.173l0,56.693l-28.405,0l0,-56.693l0.058,0Z" style="fill:#395e6e;stroke:#231f20;stroke-width:5px;"/><path d="M462.482,252.829c0,-7.823 6.351,-14.174 14.174,-14.174c7.822,0 14.173,6.351 14.173,14.174l0,56.692l-28.405,0l0,-56.692l0.058,0Z" style="fill:#395e6e;stroke:#231f20;stroke-width:5px;"/><path d="M746.262,252.829c0,-7.823 6.351,-14.174 14.173,-14.174c7.823,0 14.174,6.351 14.174,14.174l0,56.692l-28.405,0l0,-56.692l0.058,0Z" style="fill:#395e6e;stroke:#231f20;stroke-width:5px;"/><path d="M683.775,394.163c0,-7.823 6.35,-14.173 14.173,-14.173c7.822,0 14.173,6.35 14.173,14.173l0,56.693l-28.405,0l0,-56.693l0.059,0Z" style="fill:#395e6e;stroke:#231f20;stroke-width:5px;"/><path d="M504.973,270.628l226.772,0" style="fill:none;stroke:#231f20;stroke-width:5px;"/><path d="M571.152,486.184l0,-215.878l47.207,-45.533l47.207,45.533l0,215.878l-94.414,0Z" style="fill:#b19585;stroke:#231f20;stroke-width:5px;"/><path d="M571.152,491.822l0,-90.134l47.207,-46.209l47.207,46.209l0,90.134l-94.414,0Z" style="fill:#b19585;stroke:#231f20;stroke-width:5px;"/><path d="M590.012,338.159l0,-34.016c2.63,-12.932 14.643,-22.677 28.347,-22.677c13.703,0 25.717,9.745 28.346,22.677l0,34.016l-56.693,0Z" style="fill:#395e6e;stroke:#231f20;stroke-width:5px;"/><path d="M590.012,433.796l0.569,0c2.629,-12.932 14.074,-22.677 27.778,-22.677c13.703,0 25.149,9.745 27.778,22.677l0.568,0l0,58.026l-56.693,0l0,-58.026Z" style="fill:#231f20;stroke:#231f20;stroke-width:5px;"/><path d="M525.354,224.773c0,0 17.242,-88.143 73.898,-109.808" style="fill:none;stroke:#231f20;stroke-width:5px;"/><path d="M711.364,224.773c0,0 -17.243,-88.143 -73.898,-109.808" style="fill:none;stroke:#231f20;stroke-width:5px;"/><path d="M572.873,224.773c0,0 2.484,-52.78 45.486,-109.808" style="fill:none;stroke:#231f20;stroke-width:5px;"/><path d="M663.844,224.773c0,0 -2.483,-52.78 -45.485,-109.808" style="fill:none;stroke:#231f20;stroke-width:5px;"/><path d="M609.638,338.159l0,-55.378" style="fill:none;stroke:#231f20;stroke-width:5px;"/><path d="M627.08,338.159l0,-55.378" style="fill:none;stroke:#231f20;stroke-width:5px;"/><path d="M590.012,321.59l56.693,0" style="fill:none;stroke:#231f20;stroke-width:5px;"/><path d="M590.012,304.143l56.693,0" style="fill:none;stroke:#231f20;stroke-width:5px;"/><path d="M524.588,434.266l28.404,0" style="fill:none;stroke:#231f20;stroke-width:5px;"/><path d="M462.424,434.266l28.405,0" style="fill:none;stroke:#231f20;stroke-width:5px;"/><path d="M462.424,293.662l28.405,0" style="fill:none;stroke:#231f20;stroke-width:5px;"/><path d="M746.204,293.662l28.405,0" style="fill:none;stroke:#231f20;stroke-width:5px;"/><path d="M683.716,434.266l28.405,0" style="fill:none;stroke:#231f20;stroke-width:5px;"/><path d="M746.204,434.266l28.405,0" style="fill:none;stroke:#231f20;stroke-width:5px;"/><path d="M524.588,415.569l28.404,0" style="fill:none;stroke:#231f20;stroke-width:5px;"/><path d="M462.424,415.569l28.405,0" style="fill:none;stroke:#231f20;stroke-width:5px;"/><path d="M462.424,274.965l28.405,0" style="fill:none;stroke:#231f20;stroke-width:5px;"/><path d="M746.204,274.965l28.405,0" style="fill:none;stroke:#231f20;stroke-width:5px;"/><path d="M683.716,415.569l28.405,0" style="fill:none;stroke:#231f20;stroke-width:5px;"/><path d="M746.204,415.569l28.405,0" style="fill:none;stroke:#231f20;stroke-width:5px;"/><path d="M524.588,397.809l28.404,0" style="fill:none;stroke:#231f20;stroke-width:5px;"/><path d="M462.424,397.809l28.405,0" style="fill:none;stroke:#231f20;stroke-width:5px;"/><path d="M462.424,257.204l28.405,0" style="fill:none;stroke:#231f20;stroke-width:5px;"/><path d="M746.204,257.204l28.405,0" style="fill:none;stroke:#231f20;stroke-width:5px;"/><path d="M683.716,397.809l28.405,0" style="fill:none;stroke:#231f20;stroke-width:5px;"/><path d="M746.204,397.809l28.405,0" style="fill:none;stroke:#231f20;stroke-width:5px;"/><path d="M731.745,111.387l28.346,0l-14.173,-42.52l-14.173,42.52Z" style="fill:#e7dabe;stroke:#231f20;stroke-width:5px;"/><path d="M590.012,90.127l28.347,0l-14.173,-42.519l-14.174,42.519Z" style="fill:#e7dabe;stroke:#231f20;stroke-width:5px;"/><path d="M760.091,111.387l28.347,0l-14.174,-42.52l-14.173,42.52Z" style="fill:#e7dabe;stroke:#231f20;stroke-width:5px;"/><path d="M618.359,90.127l28.346,0l-14.173,-42.519l-14.173,42.519Z" style="fill:#e7dabe;stroke:#231f20;stroke-width:5px;"/><path d="M556.979,224.773l28.346,0l-14.173,-42.52l-14.173,42.52Z" style="fill:#e7dabe;stroke:#231f20;stroke-width:5px;"/><path d="M556.979,224.773l28.346,0l-14.173,-42.52l-14.173,42.52Z" style="fill:#e7dabe;stroke:#231f20;stroke-width:5px;"/><path d="M651.392,224.773l28.347,0l-14.173,-42.52l-14.174,42.52Z" style="fill:#e7dabe;stroke:#231f20;stroke-width:5px;"/><path d="M91.983,141.572l0,34.016" style="fill:none;stroke:#231f20;stroke-width:5px;"/><path d="M148.676,141.572l0,34.016" style="fill:none;stroke:#231f20;stroke-width:5px;"/><path d="M205.369,141.572l0,34.016" style="fill:none;stroke:#231f20;stroke-width:5px;"/><path d="M261.743,141.572l0,34.016" style="fill:none;stroke:#231f20;stroke-width:5px;"/><path d="M318.436,141.572l0,34.016" style="fill:none;stroke:#231f20;stroke-width:5px;"/><g><path d="M365.38,344.482c-51.108,-3.044 -88.928,33.393 -88.927,33.359c0.001,-0.021 61.782,9.096 66.015,14.147" style="fill:#bacad3;stroke:#231f20;stroke-width:5px;"/><path d="M446.767,312.022l9.256,14.277l-10.501,-1.447l7.316,10.141l-12.522,-0.762l1.164,10.281l-8.603,1.184" style="fill:#fff;stroke:#231f20;stroke-width:3px;"/><path d="M463.862,345.285l-7.995,-14.845l-1.977,13.452l-7.202,-6.911l-3.702,9.328" style="fill:#fff;stroke:#231f20;stroke-width:3px;"/><path d="M377.973,257.231c10.996,-9.215 58.019,38.726 68.072,55.615c0.114,0.193 -15.016,32.253 -15.016,32.253c0,0 12.222,5.449 30.969,0.057c5.87,-1.688 -8.711,64.695 -25.546,78.803" style="fill:#fff;stroke:#231f20;stroke-width:5px;"/><path d="M402.24,458.903c-42.198,41.981 -86.393,32.876 -86.301,32.967l68.765,-69.471" style="fill:#fff;stroke:#231f20;stroke-width:5px;"/><path d="M377.973,257.231c0,0 0.909,41.55 -4.108,60.309c-24.438,91.373 -85.836,142.33 -85.836,142.33c-26.88,-17.402 -54.566,-6.56 -53.929,-6.036c55.859,46.033 73.675,88.433 73.857,88.136c17.14,-28 5.945,-51.001 6.074,-51.071c46.143,-24.75 73.181,-60.27 73.423,-59.961c23.633,30.175 33.415,68.833 34.059,68.079c41.602,-48.79 -0.313,-111.374 -0.032,-111.038c0.079,0.094 20.929,-70.428 -43.508,-130.748Z" style="fill:#bacad3;stroke:#231f20;stroke-width:5px;"/><path d="M379.5,297.739c0.268,0.517 21.197,3.833 15.339,29.61c-4.958,21.815 -26.977,17.637 -27.416,17.113" style="fill:#fff;stroke:#231f20;stroke-width:5px;"/><path d="M376.472,308.397c0.181,0.217 12.339,3.595 8.836,15.596c-3.839,13.15 -15.312,10.033 -15.331,10.045" style="fill:#231f20;stroke:#231f20;stroke-width:5px;"/></g><g><path d="M375.109,509.699c19.554,0 23.722,-61.908 -18.261,-59.002l-8.111,15.222l-4.263,26.721" style="fill:#f172ac;stroke:#231f20;stroke-width:5px;"/><path d="M234.041,529.252c-5.838,0 -18.855,1.301 -26.057,-8.557c-14.004,-19.169 -13.923,-39.537 -4.981,-59.059c7.426,-16.213 22.085,-19.203 22.085,-21.01l15.856,24.803" style="fill:#f172ac;stroke:#231f20;stroke-width:5px;"/><path d="M218.181,465.838l46.644,39.031l46.496,-33.99l-63.269,-28.668l-29.871,23.627Z" style="fill:#f172ac;"/><path d="M267.66,478.954c0,0 -32.611,1.944 -49.672,-59.8c0,0 -19.286,-74.612 71.196,-84.069c0,0 84.321,-8.926 75.312,84.069c0,0 -5.584,57.635 -37.012,59.8" style="fill:#f172ac;stroke:#231f20;stroke-width:5px;"/><path d="M282.222,444.422c7.039,7.04 17.187,17.034 28.106,16.31c11.782,-0.782 26.126,-19.219 26.126,-20.106" style="fill:none;stroke:#231f20;stroke-width:5px;"/><path d="M274.681,449.679c7.256,-3.914 10.923,-12.801 11.506,-12.801" style="fill:none;stroke:#231f20;stroke-width:5px;"/><path d="M333.139,434.394c0.587,0.554 3.612,6.427 10.951,10.324" style="fill:none;stroke:#231f20;stroke-width:5px;"/><path d="M332.372,414.541c0,0 -17.006,18.941 -25.683,18.161c-17.874,-1.607 -28.721,-15.562 -28.721,-15.562c0,0 -31.65,-36.687 0,-46.598c0,0 22.761,-7.128 28.721,16.676c0,0 0.357,-17.234 23.283,-16.676c0,0 34.982,1.547 2.4,43.999" style="fill:#fff;stroke:#231f20;stroke-width:5px;"/><circle cx="292.273" cy="399.541" r="4.961" style="fill:#231f20;stroke:#231f20;stroke-width:7.5px;"/><circle cx="321.074" cy="399.541" r="4.961" style="fill:#231f20;stroke:#231f20;stroke-width:7.5px;"/><path d="M344.474,492.64c10.348,0 17.601,-14.608 12.898,-24.014c-1.789,-3.577 -9.36,-5.499 -12.705,-6.325c-14.406,-3.557 -19.828,7.532 -21.42,10.796c-2.772,5.683 -19.906,56.988 25.519,61.843c7.43,0.794 14.158,-1.329 18.468,-5.908c25.268,-26.844 -9.285,-37.788 -9.862,-40.138" style="fill:#f172ac;stroke:#231f20;stroke-width:5px;"/><path d="M292.505,479.71c-5.503,0 -14.401,-16.462 -8.806,-22.142c4.946,-5.02 11.232,-7.662 18.913,-7.662c23.067,0 24.823,32.951 24.022,48.433c-1.449,28.007 -29.907,27.059 -34.874,28.754c-14.437,4.925 -38.628,-14.297 -41.996,-27.68c-1.492,-5.928 0,-5.628 0,-12.111" style="fill:#f172ac;stroke:#231f20;stroke-width:5px;"/><path d="M281.879,502.799c-5.172,0 -6.222,-2.98 -8.801,-5.56c-13.691,-13.69 20.225,-22.35 27.858,-14.716c6.203,6.202 2.867,61.414 -36.35,61.332c-40.344,-0.084 -35.105,-48.685 -32.177,-70.315" style="fill:#f172ac;stroke:#231f20;stroke-width:5px;"/></g></svg>