<svg viewBox="0 0 2077 1331" xmlns="http://www.w3.org/2000/svg" fill-rule="evenodd" clip-rule="evenodd" stroke-linecap="round" stroke-linejoin="round" stroke-miterlimit="1.5"><path d="M809.636 1086.961c81.47 0 98.84-257.95-76.09-245.84l-33.8 63.43-17.76 111.33M221.846 1168.441c-24.32 0-78.56 5.41-108.57-35.66-58.35-79.87-58.01-164.74-20.75-246.08 30.94-67.56 92.02-80.01 92.02-87.54l66.06 103.35" fill="#f172ac" stroke="#231f20" stroke-width="20.83"/><path d="M1354.656 676.331c155.07-146.496 373.36-131.348 373.27-131.452-.06-.066-172.96 194.388-172.96 221.848" fill="#bacad3" stroke="#231f20" stroke-width="20.83"/><path d="M155.763 904.207l194.353 162.63 193.73-141.63-263.62-119.45-124.463 98.45z" fill="#f172ac"/><path d="M361.926 958.861s-135.88 8.1-206.97-249.168c0 0-80.36-310.883 296.65-350.287 0 0 351.34-37.19 313.8 350.287 0 0-23.26 240.148-154.21 249.168" fill="#f172ac" stroke="#231f20" stroke-width="20.83"/><path d="M422.596 814.981c29.33 29.33 71.62 70.97 117.11 67.95 49.1-3.26 108.86-80.08 108.86-83.77M391.176 836.881c30.24-16.31 45.52-53.34 47.95-53.34M634.755 773.196c2.45 2.3 15.05 26.78 45.63 43.01" fill="none" stroke="#231f20" stroke-width="20.83"/><path d="M631.563 690.477s-70.86 78.92-107.02 75.67c-74.47-6.7-119.67-64.84-119.67-64.84s-131.87-152.869 0-194.166c0 0 94.84-29.698 119.67 69.486 0 0 1.49-71.811 97.02-69.486 0 0 145.76 6.446 10 183.336" fill="#fff" stroke="#231f20" stroke-width="20.83"/><circle cx="1576.42" cy="927.586" r="25.976" fill="#231f20" stroke="#231f20" stroke-width="39.27" transform="translate(-789.879 -110.107) scale(.7957)"/><circle cx="1576.42" cy="927.586" r="25.976" fill="#231f20" stroke="#231f20" stroke-width="39.27" transform="translate(-669.874 -110.107) scale(.7957)"/><path d="M681.986 1015.881c43.12 0 73.34-60.86 53.74-100.06-7.45-14.9-39-22.91-52.94-26.35-60.02-14.82-82.61 31.38-89.25 44.99-11.55 23.67-82.94 237.44 106.33 257.67 30.96 3.31 58.99-5.53 76.95-24.61 105.29-111.85-38.68-157.45-41.09-167.24" fill="#f172ac" stroke="#231f20" stroke-width="20.83"/><path d="M1007.866 790.477l8.65 70.36 29.66-32.72 3.78 51.97 37.95-35.95 23.79 35.95 30.65-19.25" fill="#fff" stroke="#231f20" stroke-width="12.5"/><path d="M1042.286 942.447l-14.19-68.8 42.31 37.67 4.51-41.35 36.78 19.89" fill="#fff" stroke="#231f20" stroke-width="12.5"/><path d="M1080.936 431.387c-59.78 0-81.65 278.945-68.56 359.79.15.92 134.27 62.81 134.27 62.81s-24.45 50.11-98.75 83.07c-23.26 10.32 200.96 183.29 292.48 183.29M1543.146 1140.387c247.12 21.14 363.89-126.21 363.84-125.67l-405.52-37.84" fill="#fff" stroke="#231f20" stroke-width="20.83"/><path d="M1080.936 431.387s108.29 135.126 174.52 181.608c322.58 226.412 655.03 224.832 655.03 224.832 39.27-127.514 156.7-166.981 156.07-163.601-55.2 296.501 1.38 479.591 0 479.121-129.67-43.54-155.47-146.96-156.07-146.84-213.6 44.45-395.01 3.37-394.96 5 5.28 159.62 77.5 309.26 73.43 308.57-263.43-44.48-297.06-356.52-297.06-354.7 0 .51-255.32-168.91-210.96-533.99z" fill="#bacad3" stroke="#231f20" stroke-width="20.83"/><path d="M1184.466 564.84c.53 2.368-57.44 68.971 30.25 135.612 74.22 56.405 133.36-15.871 133.36-18.718" fill="#fff" stroke="#231f20" stroke-width="20.83"/><path d="M1222.666 590.774c0 1.179-29.79 44.502 13.51 73.452 47.46 31.723 75.75-8.934 75.85-8.946" fill="#231f20" stroke="#231f20" stroke-width="20.83"/><path d="M86.172 413.396c-52.65-20.524-72.68-56.918-72.68-56.918-14.055-23.326 5.05-32.68 5.147-32.749 25.882-18.4 46.53 15.758 47.05 13.918 1.499-5.305 1.7-29.295 25.196-33.224 22.02-3.682 30.26 13.579 32.124 19.306 11.457 35.212-31.868 88.816-32.124 89.667M408.458 270.475c-44.858-34.368-53.965-74.899-53.965-74.899-7.007-26.316 13.947-29.983 14.058-30.022 29.982-10.468 40.305 28.086 41.317 26.464 2.916-4.679 9.788-27.664 33.448-24.898 22.174 2.593 25.285 21.465 25.48 27.485 1.204 37.01-55.33 76.436-55.812 77.182M737.236 348.691c-13.394-54.9 4.926-92.183 4.926-92.183 11.043-24.894 29.665-14.611 29.776-14.572 29.92 10.645 13.787 47.152 15.592 46.522 5.205-1.816 24.97-15.412 41.667 1.579 15.649 15.923 6.238 32.575 2.616 37.388-22.27 29.584-91.03 24.848-91.874 25.126" fill="#ed1c24" stroke="#231f20" stroke-width="16.6656933"/><path d="M815.822 573.07c-130.507-50.872-180.154-141.084-180.154-141.084-34.838-57.818 12.519-81.005 12.757-81.174 64.156-45.609 115.335 39.058 116.624 34.497 3.715-13.15 4.216-72.613 62.454-82.352 54.581-9.128 75.008 33.657 79.627 47.855 28.398 87.28-78.993 220.15-79.627 222.258" fill="#ed1c24" stroke="#231f20" stroke-width="34.54" transform="matrix(.46802 0 0 .49668 -176.187 -72.171)"/><path d="M815.822 573.07c-130.507-50.872-180.154-141.084-180.154-141.084-34.838-57.818 12.519-81.005 12.757-81.174 64.156-45.609 115.335 39.058 116.624 34.497 3.715-13.15 4.216-72.613 62.454-82.352 54.581-9.128 75.008 33.657 79.627 47.855 28.398 87.28-78.993 220.15-79.627 222.258" fill="#ed1c24" stroke="#231f20" stroke-width="34.54" transform="matrix(.35089 .30972 -.32868 .37237 589.863 -322.675)"/><path d="M465.446 962.011c-22.93 0-60-68.59-36.69-92.26 20.61-20.92 46.8-31.92 78.8-31.92 96.12 0 103.43 137.29 100.09 201.8-6.03 116.69-124.61 112.75-145.3 119.81-60.16 20.52-160.95-59.57-174.99-115.34-6.21-24.69 0-23.45 0-50.46" fill="#f172ac" stroke="#231f20" stroke-width="20.83"/><path d="M421.177 1058.209c-21.56 0-25.93-12.41-36.68-23.16-57.04-57.05 84.28-93.13 116.08-61.32 25.85 25.84 11.95 255.89-151.46 255.55-168.1-.35-146.27-202.85-134.07-292.98" fill="#f172ac" stroke="#231f20" stroke-width="20.83"/></svg>