<?xml version="1.0" encoding="UTF-8" standalone="no"?>
<!DOCTYPE svg PUBLIC "-//W3C//DTD SVG 1.1//EN" "http://www.w3.org/Graphics/SVG/1.1/DTD/svg11.dtd">
<svg width="100%" height="100%" viewBox="0 0 2698 1141" version="1.1" xmlns="http://www.w3.org/2000/svg" xmlns:xlink="http://www.w3.org/1999/xlink" xml:space="preserve" xmlns:serif="http://www.serif.com/" style="fill-rule:evenodd;clip-rule:evenodd;stroke-linecap:round;stroke-linejoin:round;stroke-miterlimit:1.5;">
    <g transform="matrix(1,0,0,1,-405.428,-667.189)">
        <g transform="matrix(1,0,0,0.879744,-397.824,-188.691)">
            <rect x="2010.67" y="1046.61" width="697.574" height="452.829" style="fill:rgb(2,13,80);stroke:rgb(35,31,32);stroke-width:22.12px;"/>
        </g>
        <g transform="matrix(1,0,0,0.988657,-294.748,-352)">
            <rect x="2010.67" y="1046.61" width="697.574" height="452.829" style="fill:rgb(167,169,172);stroke:rgb(35,31,32);stroke-width:20.95px;"/>
        </g>
        <g transform="matrix(1,0,0,1,-261.968,-251.767)">
            <g transform="matrix(1,0,0,1,-531.567,294.632)">
                <path d="M1952.38,1368.26C2033.85,1368.26 2051.22,1110.31 1876.29,1122.42L1842.49,1185.85L1824.73,1297.18" style="fill:rgb(241,114,172);stroke:rgb(35,31,32);stroke-width:20.83px;"/>
            </g>
            <g transform="matrix(1,0,0,1,-531.567,294.632)">
                <path d="M1364.59,1449.74C1340.27,1449.74 1286.03,1455.15 1256.02,1414.08C1197.67,1334.21 1198.01,1249.34 1235.27,1168C1266.21,1100.44 1327.29,1087.99 1327.29,1080.46L1393.35,1183.81" style="fill:rgb(241,114,172);stroke:rgb(35,31,32);stroke-width:20.83px;"/>
            </g>
            <g transform="matrix(1,0,0,1,-160.937,301.008)">
                <path d="M927.877,1179.13L1122.23,1341.76L1315.96,1200.13L1052.34,1080.68L927.877,1179.13Z" style="fill:rgb(241,114,172);"/>
            </g>
            <g transform="matrix(1,0,0,1,-531.567,294.632)">
                <path d="M1504.67,1240.16C1504.67,1240.16 1368.79,1248.26 1297.7,990.992C1297.7,990.992 1217.34,680.109 1594.35,640.705C1594.35,640.705 1945.69,603.515 1908.15,990.992C1908.15,990.992 1884.89,1231.14 1753.94,1240.16" style="fill:rgb(241,114,172);stroke:rgb(35,31,32);stroke-width:20.83px;"/>
            </g>
            <g transform="matrix(1,0,0,1,-531.567,294.632)">
                <path d="M1565.34,1096.28C1594.67,1125.61 1636.96,1167.25 1682.45,1164.23C1731.55,1160.97 1791.31,1084.15 1791.31,1080.46" style="fill:none;stroke:rgb(35,31,32);stroke-width:20.83px;"/>
            </g>
            <g transform="matrix(1,0,0,1,-531.567,282.632)">
                <path d="M1533.92,1130.18C1564.16,1113.87 1579.44,1076.84 1581.87,1076.84" style="fill:none;stroke:rgb(35,31,32);stroke-width:20.83px;"/>
            </g>
            <g transform="matrix(1,0,0,1,-526.148,283.967)">
                <path d="M1772.08,1065.16C1774.53,1067.46 1787.13,1091.94 1817.71,1108.17" style="fill:none;stroke:rgb(35,31,32);stroke-width:20.83px;"/>
            </g>
            <g transform="matrix(1,0,0,1,-521.2,263.908)">
                <path d="M1763.94,1002.5C1763.94,1002.5 1693.08,1081.42 1656.92,1078.17C1582.45,1071.47 1537.25,1013.33 1537.25,1013.33C1537.25,1013.33 1405.38,860.461 1537.25,819.164C1537.25,819.164 1632.09,789.466 1656.92,888.65C1656.92,888.65 1658.41,816.839 1753.94,819.164C1753.94,819.164 1899.7,825.61 1763.94,1002.5" style="fill:white;stroke:rgb(35,31,32);stroke-width:20.83px;"/>
            </g>
            <g transform="matrix(0.7957,0,0,0.7957,-178.702,465.824)">
                <circle cx="1576.42" cy="927.586" r="25.976" style="fill:rgb(35,31,32);stroke:rgb(35,31,32);stroke-width:39.27px;"/>
            </g>
            <g transform="matrix(0.7957,0,0,0.7957,-58.6973,465.824)">
                <circle cx="1576.42" cy="927.586" r="25.976" style="fill:rgb(35,31,32);stroke:rgb(35,31,32);stroke-width:39.27px;"/>
            </g>
            <g transform="matrix(1,0,0,1,-531.567,294.632)">
                <path d="M1824.73,1297.18C1867.85,1297.18 1898.07,1236.32 1878.47,1197.12C1871.02,1182.22 1839.47,1174.21 1825.53,1170.77C1765.51,1155.95 1742.92,1202.15 1736.28,1215.76C1724.73,1239.43 1653.34,1453.2 1842.61,1473.43C1873.57,1476.74 1901.6,1467.9 1919.56,1448.82C2024.85,1336.97 1880.88,1291.37 1878.47,1281.58" style="fill:rgb(241,114,172);stroke:rgb(35,31,32);stroke-width:20.83px;"/>
            </g>
            <g transform="matrix(1,0,0,1,-531.567,294.632)">
                <path d="M1608.19,1243.31C1585.26,1243.31 1548.19,1174.72 1571.5,1151.05C1592.11,1130.13 1618.3,1119.13 1650.3,1119.13C1746.42,1119.13 1753.73,1256.42 1750.39,1320.93C1744.36,1437.62 1625.78,1433.68 1605.09,1440.74C1544.93,1461.26 1444.14,1381.17 1430.1,1325.4C1423.89,1300.71 1430.1,1301.95 1430.1,1274.94" style="fill:rgb(241,114,172);stroke:rgb(35,31,32);stroke-width:20.83px;"/>
            </g>
            <g transform="matrix(1,0,0,1,-529.146,253.25)">
                <path d="M1561.5,1380.89C1539.94,1380.89 1535.57,1368.48 1524.82,1357.73C1467.78,1300.68 1609.1,1264.6 1640.9,1296.41C1666.75,1322.25 1652.85,1552.3 1489.44,1551.96C1321.34,1551.61 1343.17,1349.11 1355.37,1258.98" style="fill:rgb(241,114,172);stroke:rgb(35,31,32);stroke-width:20.83px;"/>
            </g>
        </g>
        <g transform="matrix(0.0663355,-0.626628,0.948515,0.100411,361.159,2530.17)">
            <path d="M3103.68,995.223C3103.68,988.348 3095.24,982.767 3084.83,982.767L1960.92,982.767C1950.52,982.767 1942.07,988.348 1942.07,995.223L1942.07,1020.13C1942.07,1027.01 1950.52,1032.59 1960.92,1032.59L3084.83,1032.59C3095.24,1032.59 3103.68,1027.01 3103.68,1020.13L3103.68,995.223Z" style="fill:white;stroke:rgb(35,31,32);stroke-width:25.77px;"/>
        </g>
        <g transform="matrix(-0.0664555,-0.627762,-0.948515,0.100411,3778.63,2531.12)">
            <path d="M3103.68,995.223C3103.68,988.348 3095.25,982.767 3084.87,982.767L1960.89,982.767C1950.5,982.767 1942.07,988.348 1942.07,995.223L1942.07,1020.13C1942.07,1027.01 1950.5,1032.59 1960.89,1032.59L3084.87,1032.59C3095.25,1032.59 3103.68,1027.01 3103.68,1020.13L3103.68,995.223Z" style="fill:white;stroke:rgb(35,31,32);stroke-width:25.76px;"/>
        </g>
        <g transform="matrix(1.1531,0,0,1.05071,-839.422,-352.426)">
            <path d="M3103.68,995.223C3103.68,988.348 3098.6,982.767 3092.34,982.767L1953.42,982.767C1947.16,982.767 1942.07,988.348 1942.07,995.223L1942.07,1020.13C1942.07,1027.01 1947.16,1032.59 1953.42,1032.59L3092.34,1032.59C3098.6,1032.59 3103.68,1027.01 3103.68,1020.13L3103.68,995.223Z" style="fill:white;stroke:rgb(35,31,32);stroke-width:18.89px;"/>
        </g>
        <g transform="matrix(1,0,0,1,-188.202,-369.008)">
            <rect x="2010.67" y="1046.61" width="697.574" height="452.829" style="fill:rgb(35,31,32);stroke:rgb(35,31,32);stroke-width:20.83px;"/>
        </g>
        <g transform="matrix(1,0,0,1,203.67,-98.2988)">
            <g transform="matrix(1,0,0,1,-160.937,301.008)">
                <path d="M2337.37,951.254C2492.44,804.758 2710.73,819.906 2710.64,819.802C2710.58,819.736 2537.68,1014.19 2537.68,1041.65" style="fill:rgb(186,202,211);stroke:rgb(35,31,32);stroke-width:20.83px;"/>
            </g>
            <g transform="matrix(1,0,0,1,-160.937,301.008)">
                <path d="M1990.58,1065.4L1999.23,1135.76L2028.89,1103.04L2032.67,1155.01L2070.62,1119.06L2094.41,1155.01L2125.06,1135.76" style="fill:white;stroke:rgb(35,31,32);stroke-width:12.5px;"/>
            </g>
            <g transform="matrix(1,0,0,1,-160.937,301.008)">
                <path d="M2025,1217.37L2010.81,1148.57L2053.12,1186.24L2057.63,1144.89L2094.41,1164.78" style="fill:white;stroke:rgb(35,31,32);stroke-width:12.5px;"/>
            </g>
            <g transform="matrix(1,0,0,1,-160.937,301.008)">
                <path d="M2063.65,706.31C2003.87,706.31 1982,985.255 1995.09,1066.1C1995.24,1067.02 2129.36,1128.91 2129.36,1128.91C2129.36,1128.91 2104.91,1179.02 2030.61,1211.98C2007.35,1222.3 2231.57,1395.27 2323.09,1395.27" style="fill:white;stroke:rgb(35,31,32);stroke-width:20.83px;"/>
            </g>
            <g transform="matrix(1,0,0,1,-160.937,301.008)">
                <path d="M2525.86,1415.31C2772.98,1436.45 2889.75,1289.1 2889.7,1289.64L2484.18,1251.8" style="fill:white;stroke:rgb(35,31,32);stroke-width:20.83px;"/>
            </g>
            <g transform="matrix(1,0,0,1,-160.937,301.008)">
                <path d="M2063.65,706.31C2063.65,706.31 2171.94,841.436 2238.17,887.918C2560.75,1114.33 2893.2,1112.75 2893.2,1112.75C2932.47,985.236 3049.9,945.769 3049.27,949.149C2994.07,1245.65 3050.65,1428.74 3049.27,1428.27C2919.6,1384.73 2893.8,1281.31 2893.2,1281.43C2679.6,1325.88 2498.19,1284.8 2498.24,1286.43C2503.52,1446.05 2575.74,1595.69 2571.67,1595C2308.24,1550.52 2274.61,1238.48 2274.61,1240.3C2274.61,1240.81 2019.29,1071.39 2063.65,706.31Z" style="fill:rgb(186,202,211);stroke:rgb(35,31,32);stroke-width:20.83px;"/>
            </g>
            <g transform="matrix(1,0,0,1,-160.937,301.008)">
                <path d="M2167.18,839.763C2167.71,842.131 2109.74,908.734 2197.43,975.375C2271.65,1031.78 2330.79,959.504 2330.79,956.657" style="fill:white;stroke:rgb(35,31,32);stroke-width:20.83px;"/>
            </g>
            <g transform="matrix(1,0,0,1,-159.937,289.008)">
                <path d="M2204.38,877.697C2204.38,878.876 2174.59,922.199 2217.89,951.149C2265.35,982.872 2293.64,942.215 2293.74,942.203" style="fill:rgb(35,31,32);stroke:rgb(35,31,32);stroke-width:20.83px;"/>
            </g>
        </g>
    </g>
</svg>
